<?xml version="1.0" encoding="UTF-8" standalone="no"?>
<!DOCTYPE svg PUBLIC "-//W3C//DTD SVG 1.1//EN"
 "http://www.w3.org/Graphics/SVG/1.1/DTD/svg11.dtd">
<!-- Generated by graphviz version 2.40.1 (20161225.0304)
 -->
<!-- Title: snakemake_dag Pages: 1 -->
<svg width="493pt" height="404pt"
 viewBox="0.00 0.00 493.00 404.00" xmlns="http://www.w3.org/2000/svg" xmlns:xlink="http://www.w3.org/1999/xlink">
<g id="graph0" class="graph" transform="scale(1 1) rotate(0) translate(4 400)">
<title>snakemake_dag</title>
<polygon fill="#ffffff" stroke="transparent" points="-4,4 -4,-400 489,-400 489,4 -4,4"/>
<!-- 0 -->
<g id="node1" class="node">
<title>0</title>
<path fill="none" stroke="#d87556" stroke-width="2" d="M244,-36C244,-36 214,-36 214,-36 208,-36 202,-30 202,-24 202,-24 202,-12 202,-12 202,-6 208,0 214,0 214,0 244,0 244,0 250,0 256,-6 256,-12 256,-12 256,-24 256,-24 256,-30 250,-36 244,-36"/>
<text text-anchor="middle" x="229" y="-15.5" font-family="sans" font-size="10.00" fill="#000000">all</text>
</g>
<!-- 1 -->
<g id="node2" class="node">
<title>1</title>
<path fill="none" stroke="#d89c56" stroke-width="2" stroke-dasharray="5,2" d="M42,-108C42,-108 12,-108 12,-108 6,-108 0,-102 0,-96 0,-96 0,-84 0,-84 0,-78 6,-72 12,-72 12,-72 42,-72 42,-72 48,-72 54,-78 54,-84 54,-84 54,-96 54,-96 54,-102 48,-108 42,-108"/>
<text text-anchor="middle" x="27" y="-87.5" font-family="sans" font-size="10.00" fill="#000000">Oxford</text>
</g>
<!-- 1&#45;&gt;0 -->
<g id="edge1" class="edge">
<title>1&#45;&gt;0</title>
<path fill="none" stroke="#c0c0c0" stroke-width="2" d="M54.3223,-75.8119C57.2248,-74.4634 60.1552,-73.1663 63,-72 106.3276,-54.2368 157.8267,-38.244 191.8486,-28.3557"/>
<polygon fill="#c0c0c0" stroke="#c0c0c0" stroke-width="2" points="193.1752,-31.6162 201.8177,-25.4878 191.2398,-24.889 193.1752,-31.6162"/>
</g>
<!-- 2 -->
<g id="node3" class="node">
<title>2</title>
<path fill="none" stroke="#569ad8" stroke-width="2" stroke-dasharray="5,2" d="M202,-108C202,-108 172,-108 172,-108 166,-108 160,-102 160,-96 160,-96 160,-84 160,-84 160,-78 166,-72 172,-72 172,-72 202,-72 202,-72 208,-72 214,-78 214,-84 214,-84 214,-96 214,-96 214,-102 208,-108 202,-108"/>
<text text-anchor="middle" x="187" y="-87.5" font-family="sans" font-size="10.00" fill="#000000">Plink</text>
</g>
<!-- 2&#45;&gt;0 -->
<g id="edge2" class="edge">
<title>2&#45;&gt;0</title>
<path fill="none" stroke="#c0c0c0" stroke-width="2" d="M197.5984,-71.8314C202.2877,-63.7925 207.9028,-54.1666 213.0798,-45.2918"/>
<polygon fill="#c0c0c0" stroke="#c0c0c0" stroke-width="2" points="216.2434,-46.8146 218.2589,-36.4133 210.1969,-43.2875 216.2434,-46.8146"/>
</g>
<!-- 3 -->
<g id="node4" class="node">
<title>3</title>
<path fill="none" stroke="#68d856" stroke-width="2" stroke-dasharray="5,2" d="M129.5,-108C129.5,-108 84.5,-108 84.5,-108 78.5,-108 72.5,-102 72.5,-96 72.5,-96 72.5,-84 72.5,-84 72.5,-78 78.5,-72 84.5,-72 84.5,-72 129.5,-72 129.5,-72 135.5,-72 141.5,-78 141.5,-84 141.5,-84 141.5,-96 141.5,-96 141.5,-102 135.5,-108 129.5,-108"/>
<text text-anchor="middle" x="107" y="-87.5" font-family="sans" font-size="10.00" fill="#000000">GenSample</text>
</g>
<!-- 3&#45;&gt;0 -->
<g id="edge3" class="edge">
<title>3&#45;&gt;0</title>
<path fill="none" stroke="#c0c0c0" stroke-width="2" d="M137.7858,-71.8314C154.6168,-61.8983 175.5535,-49.5422 193.1217,-39.1741"/>
<polygon fill="#c0c0c0" stroke="#c0c0c0" stroke-width="2" points="195.1289,-42.0536 201.9621,-33.9568 191.5711,-36.0251 195.1289,-42.0536"/>
</g>
<!-- 4 -->
<g id="node5" class="node">
<title>4</title>
<path fill="none" stroke="#56d88a" stroke-width="2" stroke-dasharray="5,2" d="M297.5,-108C297.5,-108 244.5,-108 244.5,-108 238.5,-108 232.5,-102 232.5,-96 232.5,-96 232.5,-84 232.5,-84 232.5,-78 238.5,-72 244.5,-72 244.5,-72 297.5,-72 297.5,-72 303.5,-72 309.5,-78 309.5,-84 309.5,-84 309.5,-96 309.5,-96 309.5,-102 303.5,-108 297.5,-108"/>
<text text-anchor="middle" x="271" y="-87.5" font-family="sans" font-size="10.00" fill="#000000">MakeMapFile</text>
</g>
<!-- 4&#45;&gt;0 -->
<g id="edge4" class="edge">
<title>4&#45;&gt;0</title>
<path fill="none" stroke="#c0c0c0" stroke-width="2" d="M260.4016,-71.8314C255.7123,-63.7925 250.0972,-54.1666 244.9202,-45.2918"/>
<polygon fill="#c0c0c0" stroke="#c0c0c0" stroke-width="2" points="247.8031,-43.2875 239.7411,-36.4133 241.7566,-46.8146 247.8031,-43.2875"/>
</g>
<!-- 5 -->
<g id="node6" class="node">
<title>5</title>
<path fill="none" stroke="#88d856" stroke-width="2" d="M372.5,-108C372.5,-108 339.5,-108 339.5,-108 333.5,-108 327.5,-102 327.5,-96 327.5,-96 327.5,-84 327.5,-84 327.5,-78 333.5,-72 339.5,-72 339.5,-72 372.5,-72 372.5,-72 378.5,-72 384.5,-78 384.5,-84 384.5,-84 384.5,-96 384.5,-96 384.5,-102 378.5,-108 372.5,-108"/>
<text text-anchor="middle" x="356" y="-87.5" font-family="sans" font-size="10.00" fill="#000000">vcf2Plink</text>
</g>
<!-- 5&#45;&gt;0 -->
<g id="edge5" class="edge">
<title>5&#45;&gt;0</title>
<path fill="none" stroke="#c0c0c0" stroke-width="2" d="M327.4987,-73.8418C308.9802,-63.3431 284.6865,-49.5703 264.8596,-38.3299"/>
<polygon fill="#c0c0c0" stroke="#c0c0c0" stroke-width="2" points="266.5265,-35.2516 256.1011,-33.3644 263.0742,-41.341 266.5265,-35.2516"/>
</g>
<!-- 6 -->
<g id="node7" class="node">
<title>6</title>
<path fill="none" stroke="#d85656" stroke-width="2" d="M453.5,-108C453.5,-108 414.5,-108 414.5,-108 408.5,-108 402.5,-102 402.5,-96 402.5,-96 402.5,-84 402.5,-84 402.5,-78 408.5,-72 414.5,-72 414.5,-72 453.5,-72 453.5,-72 459.5,-72 465.5,-78 465.5,-84 465.5,-84 465.5,-96 465.5,-96 465.5,-102 459.5,-108 453.5,-108"/>
<text text-anchor="middle" x="434" y="-87.5" font-family="sans" font-size="10.00" fill="#000000">vcf2BPlink</text>
</g>
<!-- 6&#45;&gt;0 -->
<g id="edge6" class="edge">
<title>6&#45;&gt;0</title>
<path fill="none" stroke="#c0c0c0" stroke-width="2" d="M402.2527,-75.346C399.477,-74.1768 396.6984,-73.0453 394,-72 350.6994,-55.2267 299.7577,-39.0847 266.0541,-28.889"/>
<polygon fill="#c0c0c0" stroke="#c0c0c0" stroke-width="2" points="266.7595,-25.4465 256.1753,-25.9216 264.7457,-32.1505 266.7595,-25.4465"/>
</g>
<!-- 7 -->
<g id="node8" class="node">
<title>7</title>
<path fill="none" stroke="#d8bc56" stroke-width="2" stroke-dasharray="5,2" d="M96.5,-180C96.5,-180 37.5,-180 37.5,-180 31.5,-180 25.5,-174 25.5,-168 25.5,-168 25.5,-156 25.5,-156 25.5,-150 31.5,-144 37.5,-144 37.5,-144 96.5,-144 96.5,-144 102.5,-144 108.5,-150 108.5,-156 108.5,-156 108.5,-168 108.5,-168 108.5,-174 102.5,-180 96.5,-180"/>
<text text-anchor="middle" x="67" y="-159.5" font-family="sans" font-size="10.00" fill="#000000">RefSampleSex</text>
</g>
<!-- 7&#45;&gt;1 -->
<g id="edge7" class="edge">
<title>7&#45;&gt;1</title>
<path fill="none" stroke="#c0c0c0" stroke-width="2" d="M56.9063,-143.8314C52.4403,-135.7925 47.0925,-126.1666 42.1621,-117.2918"/>
<polygon fill="#c0c0c0" stroke="#c0c0c0" stroke-width="2" points="45.1456,-115.4551 37.2296,-108.4133 39.0265,-118.8546 45.1456,-115.4551"/>
</g>
<!-- 7&#45;&gt;3 -->
<g id="edge8" class="edge">
<title>7&#45;&gt;3</title>
<path fill="none" stroke="#c0c0c0" stroke-width="2" d="M77.0937,-143.8314C81.5597,-135.7925 86.9075,-126.1666 91.8379,-117.2918"/>
<polygon fill="#c0c0c0" stroke="#c0c0c0" stroke-width="2" points="94.9735,-118.8546 96.7704,-108.4133 88.8544,-115.4551 94.9735,-118.8546"/>
</g>
<!-- 8 -->
<g id="node9" class="node">
<title>8</title>
<path fill="none" stroke="#56d8d0" stroke-width="2" d="M440.5,-180C440.5,-180 349.5,-180 349.5,-180 343.5,-180 337.5,-174 337.5,-168 337.5,-168 337.5,-156 337.5,-156 337.5,-150 343.5,-144 349.5,-144 349.5,-144 440.5,-144 440.5,-144 446.5,-144 452.5,-150 452.5,-156 452.5,-156 452.5,-168 452.5,-168 452.5,-174 446.5,-180 440.5,-180"/>
<text text-anchor="middle" x="395" y="-159.5" font-family="sans" font-size="10.00" fill="#000000">ExampleSamplePanel</text>
</g>
<!-- 8&#45;&gt;5 -->
<g id="edge9" class="edge">
<title>8&#45;&gt;5</title>
<path fill="none" stroke="#c0c0c0" stroke-width="2" d="M385.1587,-143.8314C380.8043,-135.7925 375.5902,-126.1666 370.7831,-117.2918"/>
<polygon fill="#c0c0c0" stroke="#c0c0c0" stroke-width="2" points="373.8143,-115.5392 365.9739,-108.4133 367.6592,-118.8732 373.8143,-115.5392"/>
</g>
<!-- 8&#45;&gt;6 -->
<g id="edge10" class="edge">
<title>8&#45;&gt;6</title>
<path fill="none" stroke="#c0c0c0" stroke-width="2" d="M404.8413,-143.8314C409.1957,-135.7925 414.4098,-126.1666 419.2169,-117.2918"/>
<polygon fill="#c0c0c0" stroke="#c0c0c0" stroke-width="2" points="422.3408,-118.8732 424.0261,-108.4133 416.1857,-115.5392 422.3408,-118.8732"/>
</g>
<!-- 9 -->
<g id="node10" class="node">
<title>9</title>
<path fill="none" stroke="#567bd8" stroke-width="2" d="M443,-252C443,-252 347,-252 347,-252 341,-252 335,-246 335,-240 335,-240 335,-228 335,-228 335,-222 341,-216 347,-216 347,-216 443,-216 443,-216 449,-216 455,-222 455,-228 455,-228 455,-240 455,-240 455,-246 449,-252 443,-252"/>
<text text-anchor="middle" x="395" y="-231.5" font-family="sans" font-size="10.00" fill="#000000">ExtractPlatformMTsnps</text>
</g>
<!-- 9&#45;&gt;8 -->
<g id="edge11" class="edge">
<title>9&#45;&gt;8</title>
<path fill="none" stroke="#c0c0c0" stroke-width="2" d="M395,-215.8314C395,-208.131 395,-198.9743 395,-190.4166"/>
<polygon fill="#c0c0c0" stroke="#c0c0c0" stroke-width="2" points="398.5001,-190.4132 395,-180.4133 391.5001,-190.4133 398.5001,-190.4132"/>
</g>
<!-- 10 -->
<g id="node11" class="node">
<title>10</title>
<path fill="none" stroke="#afd856" stroke-width="2" stroke-dasharray="5,2" d="M376,-324C376,-324 318,-324 318,-324 312,-324 306,-318 306,-312 306,-312 306,-300 306,-300 306,-294 312,-288 318,-288 318,-288 376,-288 376,-288 382,-288 388,-294 388,-300 388,-300 388,-312 388,-312 388,-318 382,-324 376,-324"/>
<text text-anchor="middle" x="347" y="-303.5" font-family="sans" font-size="10.00" fill="#000000">StrandFilesMT</text>
</g>
<!-- 10&#45;&gt;9 -->
<g id="edge12" class="edge">
<title>10&#45;&gt;9</title>
<path fill="none" stroke="#c0c0c0" stroke-width="2" d="M359.1124,-287.8314C364.5281,-279.7079 371.0242,-269.9637 376.9921,-261.0118"/>
<polygon fill="#c0c0c0" stroke="#c0c0c0" stroke-width="2" points="380.0896,-262.6753 382.7245,-252.4133 374.2653,-258.7923 380.0896,-262.6753"/>
</g>
<!-- 11 -->
<g id="node12" class="node">
<title>11</title>
<path fill="none" stroke="#ced856" stroke-width="2" stroke-dasharray="5,2" d="M470,-324C470,-324 418,-324 418,-324 412,-324 406,-318 406,-312 406,-312 406,-300 406,-300 406,-294 412,-288 418,-288 418,-288 470,-288 470,-288 476,-288 482,-294 482,-300 482,-300 482,-312 482,-312 482,-318 476,-324 470,-324"/>
<text text-anchor="middle" x="444" y="-303.5" font-family="sans" font-size="10.00" fill="#000000">NormaliseVcf</text>
</g>
<!-- 11&#45;&gt;9 -->
<g id="edge13" class="edge">
<title>11&#45;&gt;9</title>
<path fill="none" stroke="#c0c0c0" stroke-width="2" d="M431.6352,-287.8314C426.0491,-279.6232 419.337,-269.7606 413.1928,-260.7323"/>
<polygon fill="#c0c0c0" stroke="#c0c0c0" stroke-width="2" points="416.051,-258.7112 407.5313,-252.4133 410.264,-262.6496 416.051,-258.7112"/>
</g>
<!-- 12 -->
<g id="node13" class="node">
<title>12</title>
<path fill="none" stroke="#56d8a9" stroke-width="2" stroke-dasharray="5,2" d="M368.5,-396C368.5,-396 325.5,-396 325.5,-396 319.5,-396 313.5,-390 313.5,-384 313.5,-384 313.5,-372 313.5,-372 313.5,-366 319.5,-360 325.5,-360 325.5,-360 368.5,-360 368.5,-360 374.5,-360 380.5,-366 380.5,-372 380.5,-372 380.5,-384 380.5,-384 380.5,-390 374.5,-396 368.5,-396"/>
<text text-anchor="middle" x="347" y="-375.5" font-family="sans" font-size="10.00" fill="#000000">StrandFiles</text>
</g>
<!-- 12&#45;&gt;10 -->
<g id="edge14" class="edge">
<title>12&#45;&gt;10</title>
<path fill="none" stroke="#c0c0c0" stroke-width="2" d="M347,-359.8314C347,-352.131 347,-342.9743 347,-334.4166"/>
<polygon fill="#c0c0c0" stroke="#c0c0c0" stroke-width="2" points="350.5001,-334.4132 347,-324.4133 343.5001,-334.4133 350.5001,-334.4132"/>
</g>
<!-- 13 -->
<g id="node14" class="node">
<title>13</title>
<path fill="none" stroke="#56c1d8" stroke-width="2" stroke-dasharray="5,2" d="M473,-396C473,-396 415,-396 415,-396 409,-396 403,-390 403,-384 403,-384 403,-372 403,-372 403,-366 409,-360 415,-360 415,-360 473,-360 473,-360 479,-360 485,-366 485,-372 485,-372 485,-384 485,-384 485,-390 479,-396 473,-396"/>
<text text-anchor="middle" x="444" y="-375.5" font-family="sans" font-size="10.00" fill="#000000">Get1kgMT_vcf</text>
</g>
<!-- 13&#45;&gt;11 -->
<g id="edge15" class="edge">
<title>13&#45;&gt;11</title>
<path fill="none" stroke="#c0c0c0" stroke-width="2" d="M444,-359.8314C444,-352.131 444,-342.9743 444,-334.4166"/>
<polygon fill="#c0c0c0" stroke="#c0c0c0" stroke-width="2" points="447.5001,-334.4132 444,-324.4133 440.5001,-334.4133 447.5001,-334.4132"/>
</g>
</g>
</svg>
