<?xml version="1.0" encoding="UTF-8" standalone="no"?>
<!DOCTYPE svg PUBLIC "-//W3C//DTD SVG 1.1//EN"
 "http://www.w3.org/Graphics/SVG/1.1/DTD/svg11.dtd">
<!-- Generated by graphviz version 2.40.1 (20161225.0304)
 -->
<!-- Title: snakemake_dag Pages: 1 -->
<svg width="229pt" height="620pt"
 viewBox="0.00 0.00 229.14 620.00" xmlns="http://www.w3.org/2000/svg" xmlns:xlink="http://www.w3.org/1999/xlink">
<g id="graph0" class="graph" transform="scale(1 1) rotate(0) translate(4 616)">
<title>snakemake_dag</title>
<polygon fill="#ffffff" stroke="transparent" points="-4,4 -4,-616 225.1366,-616 225.1366,4 -4,4"/>
<!-- 0 -->
<g id="node1" class="node">
<title>0</title>
<path fill="none" stroke="#d85656" stroke-width="2" stroke-dasharray="5,2" d="M97,-36C97,-36 67,-36 67,-36 61,-36 55,-30 55,-24 55,-24 55,-12 55,-12 55,-6 61,0 67,0 67,0 97,0 97,0 103,0 109,-6 109,-12 109,-12 109,-24 109,-24 109,-30 103,-36 97,-36"/>
<text text-anchor="middle" x="82" y="-15" font-family="sans" font-size="10.00" fill="#000000">all</text>
</g>
<!-- 1 -->
<g id="node2" class="node">
<title>1</title>
<path fill="none" stroke="#80d856" stroke-width="2" stroke-dasharray="5,2" d="M97,-108C97,-108 67,-108 67,-108 61,-108 55,-102 55,-96 55,-96 55,-84 55,-84 55,-78 61,-72 67,-72 67,-72 97,-72 97,-72 103,-72 109,-78 109,-84 109,-84 109,-96 109,-96 109,-102 103,-108 97,-108"/>
<text text-anchor="middle" x="82" y="-87" font-family="sans" font-size="10.00" fill="#000000">Oxford</text>
</g>
<!-- 1&#45;&gt;0 -->
<g id="edge1" class="edge">
<title>1&#45;&gt;0</title>
<path fill="none" stroke="#c0c0c0" stroke-width="2" d="M82,-71.8314C82,-64.131 82,-54.9743 82,-46.4166"/>
<polygon fill="#c0c0c0" stroke="#c0c0c0" stroke-width="2" points="85.5001,-46.4132 82,-36.4133 78.5001,-46.4133 85.5001,-46.4132"/>
</g>
<!-- 2 -->
<g id="node3" class="node">
<title>2</title>
<path fill="none" stroke="#d8ac56" stroke-width="2" stroke-dasharray="5,2" d="M42,-180C42,-180 12,-180 12,-180 6,-180 0,-174 0,-168 0,-168 0,-156 0,-156 0,-150 6,-144 12,-144 12,-144 42,-144 42,-144 48,-144 54,-150 54,-156 54,-156 54,-168 54,-168 54,-174 48,-180 42,-180"/>
<text text-anchor="middle" x="27" y="-159" font-family="sans" font-size="10.00" fill="#000000">Plink</text>
</g>
<!-- 2&#45;&gt;0 -->
<g id="edge2" class="edge">
<title>2&#45;&gt;0</title>
<path fill="none" stroke="#c0c0c0" stroke-width="2" d="M28.7905,-143.8083C31.0888,-125.1875 36.0345,-95.7008 46,-72 49.9544,-62.5953 55.6152,-53.0879 61.2805,-44.727"/>
<polygon fill="#c0c0c0" stroke="#c0c0c0" stroke-width="2" points="64.1959,-46.6664 67.1147,-36.4815 58.4816,-42.6231 64.1959,-46.6664"/>
</g>
<!-- 3 -->
<g id="node4" class="node">
<title>3</title>
<path fill="none" stroke="#56d8d8" stroke-width="2" stroke-dasharray="5,2" d="M183.3079,-108C183.3079,-108 138.6921,-108 138.6921,-108 132.6921,-108 126.6921,-102 126.6921,-96 126.6921,-96 126.6921,-84 126.6921,-84 126.6921,-78 132.6921,-72 138.6921,-72 138.6921,-72 183.3079,-72 183.3079,-72 189.3079,-72 195.3079,-78 195.3079,-84 195.3079,-84 195.3079,-96 195.3079,-96 195.3079,-102 189.3079,-108 183.3079,-108"/>
<text text-anchor="middle" x="161" y="-87" font-family="sans" font-size="10.00" fill="#000000">GenSample</text>
</g>
<!-- 3&#45;&gt;0 -->
<g id="edge3" class="edge">
<title>3&#45;&gt;0</title>
<path fill="none" stroke="#c0c0c0" stroke-width="2" d="M141.065,-71.8314C131.5217,-63.1337 119.9401,-52.5783 109.5694,-43.1265"/>
<polygon fill="#c0c0c0" stroke="#c0c0c0" stroke-width="2" points="111.6772,-40.3121 101.9287,-36.1628 106.962,-45.4857 111.6772,-40.3121"/>
</g>
<!-- 4 -->
<g id="node5" class="node">
<title>4</title>
<path fill="none" stroke="#56d882" stroke-width="2" stroke-dasharray="5,2" d="M143.5774,-324C143.5774,-324 96.4226,-324 96.4226,-324 90.4226,-324 84.4226,-318 84.4226,-312 84.4226,-312 84.4226,-300 84.4226,-300 84.4226,-294 90.4226,-288 96.4226,-288 96.4226,-288 143.5774,-288 143.5774,-288 149.5774,-288 155.5774,-294 155.5774,-300 155.5774,-300 155.5774,-312 155.5774,-312 155.5774,-318 149.5774,-324 143.5774,-324"/>
<text text-anchor="middle" x="120" y="-303" font-family="sans" font-size="10.00" fill="#000000">SiteFiltration</text>
</g>
<!-- 4&#45;&gt;1 -->
<g id="edge4" class="edge">
<title>4&#45;&gt;1</title>
<path fill="none" stroke="#c0c0c0" stroke-width="2" d="M112.4627,-287.8051C108.4716,-277.4716 103.8248,-264.1996 101,-252 90.3252,-205.8981 85.4907,-150.9543 83.4204,-118.3566"/>
<polygon fill="#c0c0c0" stroke="#c0c0c0" stroke-width="2" points="86.9043,-117.9793 82.8198,-108.2035 79.9165,-118.3927 86.9043,-117.9793"/>
</g>
<!-- 4&#45;&gt;2 -->
<g id="edge6" class="edge">
<title>4&#45;&gt;2</title>
<path fill="none" stroke="#c0c0c0" stroke-width="2" d="M99.5102,-287.8968C89.1544,-278.0114 76.9262,-265.1318 68,-252 54.8065,-232.5904 44.0134,-208.2499 36.8187,-189.7775"/>
<polygon fill="#c0c0c0" stroke="#c0c0c0" stroke-width="2" points="40.0049,-188.3074 33.1994,-180.1873 33.4557,-190.7791 40.0049,-188.3074"/>
</g>
<!-- 4&#45;&gt;3 -->
<g id="edge7" class="edge">
<title>4&#45;&gt;3</title>
<path fill="none" stroke="#c0c0c0" stroke-width="2" d="M155.6883,-296.2465C177.5606,-288.2217 203.8144,-274.4315 217,-252 226.7437,-235.4239 216.1738,-160.1225 209,-144 204.4402,-133.7522 197.2093,-124.0749 189.7296,-115.8198"/>
<polygon fill="#c0c0c0" stroke="#c0c0c0" stroke-width="2" points="192.0167,-113.1487 182.5613,-108.3688 186.9721,-118.0019 192.0167,-113.1487"/>
</g>
<!-- 7 -->
<g id="node8" class="node">
<title>7</title>
<path fill="none" stroke="#56a9d8" stroke-width="2" stroke-dasharray="5,2" d="M195.6427,-252C195.6427,-252 122.3573,-252 122.3573,-252 116.3573,-252 110.3573,-246 110.3573,-240 110.3573,-240 110.3573,-228 110.3573,-228 110.3573,-222 116.3573,-216 122.3573,-216 122.3573,-216 195.6427,-216 195.6427,-216 201.6427,-216 207.6427,-222 207.6427,-228 207.6427,-228 207.6427,-240 207.6427,-240 207.6427,-246 201.6427,-252 195.6427,-252"/>
<text text-anchor="middle" x="159" y="-231" font-family="sans" font-size="10.00" fill="#000000">RefSampleNames</text>
</g>
<!-- 4&#45;&gt;7 -->
<g id="edge13" class="edge">
<title>4&#45;&gt;7</title>
<path fill="none" stroke="#c0c0c0" stroke-width="2" d="M129.8413,-287.8314C134.1957,-279.7925 139.4098,-270.1666 144.2169,-261.2918"/>
<polygon fill="#c0c0c0" stroke="#c0c0c0" stroke-width="2" points="147.3408,-262.8732 149.0261,-252.4133 141.1857,-259.5392 147.3408,-262.8732"/>
</g>
<!-- 5 -->
<g id="node6" class="node">
<title>5</title>
<path fill="none" stroke="#56d8a9" stroke-width="2" stroke-dasharray="5,2" d="M188.1998,-180C188.1998,-180 129.8002,-180 129.8002,-180 123.8002,-180 117.8002,-174 117.8002,-168 117.8002,-168 117.8002,-156 117.8002,-156 117.8002,-150 123.8002,-144 129.8002,-144 129.8002,-144 188.1998,-144 188.1998,-144 194.1998,-144 200.1998,-150 200.1998,-156 200.1998,-156 200.1998,-168 200.1998,-168 200.1998,-174 194.1998,-180 188.1998,-180"/>
<text text-anchor="middle" x="159" y="-159" font-family="sans" font-size="10.00" fill="#000000">RefSampleSex</text>
</g>
<!-- 5&#45;&gt;1 -->
<g id="edge5" class="edge">
<title>5&#45;&gt;1</title>
<path fill="none" stroke="#c0c0c0" stroke-width="2" d="M139.5696,-143.8314C130.268,-135.1337 118.9796,-124.5783 108.8714,-115.1265"/>
<polygon fill="#c0c0c0" stroke="#c0c0c0" stroke-width="2" points="111.1189,-112.4363 101.4241,-108.1628 106.3379,-117.5493 111.1189,-112.4363"/>
</g>
<!-- 5&#45;&gt;3 -->
<g id="edge8" class="edge">
<title>5&#45;&gt;3</title>
<path fill="none" stroke="#c0c0c0" stroke-width="2" d="M159.5047,-143.8314C159.7186,-136.131 159.9729,-126.9743 160.2106,-118.4166"/>
<polygon fill="#c0c0c0" stroke="#c0c0c0" stroke-width="2" points="163.7094,-118.5066 160.4885,-108.4133 156.7121,-118.3122 163.7094,-118.5066"/>
</g>
<!-- 6 -->
<g id="node7" class="node">
<title>6</title>
<path fill="none" stroke="#afd856" stroke-width="2" stroke-dasharray="5,2" d="M159.2045,-396C159.2045,-396 80.7955,-396 80.7955,-396 74.7955,-396 68.7955,-390 68.7955,-384 68.7955,-384 68.7955,-372 68.7955,-372 68.7955,-366 74.7955,-360 80.7955,-360 80.7955,-360 159.2045,-360 159.2045,-360 165.2045,-360 171.2045,-366 171.2045,-372 171.2045,-372 171.2045,-384 171.2045,-384 171.2045,-390 165.2045,-396 159.2045,-396"/>
<text text-anchor="middle" x="120" y="-375" font-family="sans" font-size="10.00" fill="#000000">RemoveLowQuality</text>
</g>
<!-- 6&#45;&gt;4 -->
<g id="edge9" class="edge">
<title>6&#45;&gt;4</title>
<path fill="none" stroke="#c0c0c0" stroke-width="2" d="M120,-359.8314C120,-352.131 120,-342.9743 120,-334.4166"/>
<polygon fill="#c0c0c0" stroke="#c0c0c0" stroke-width="2" points="123.5001,-334.4132 120,-324.4133 116.5001,-334.4133 123.5001,-334.4132"/>
</g>
<!-- 7&#45;&gt;5 -->
<g id="edge10" class="edge">
<title>7&#45;&gt;5</title>
<path fill="none" stroke="#c0c0c0" stroke-width="2" d="M159,-215.8314C159,-208.131 159,-198.9743 159,-190.4166"/>
<polygon fill="#c0c0c0" stroke="#c0c0c0" stroke-width="2" points="162.5001,-190.4132 159,-180.4133 155.5001,-190.4133 162.5001,-190.4132"/>
</g>
<!-- 8 -->
<g id="node9" class="node">
<title>8</title>
<path fill="none" stroke="#d6d856" stroke-width="2" stroke-dasharray="5,2" d="M187,-468C187,-468 157,-468 157,-468 151,-468 145,-462 145,-456 145,-456 145,-444 145,-444 145,-438 151,-432 157,-432 157,-432 187,-432 187,-432 193,-432 199,-438 199,-444 199,-444 199,-456 199,-456 199,-462 193,-468 187,-468"/>
<text text-anchor="middle" x="172" y="-447" font-family="sans" font-size="10.00" fill="#000000">bcf</text>
</g>
<!-- 8&#45;&gt;6 -->
<g id="edge11" class="edge">
<title>8&#45;&gt;6</title>
<path fill="none" stroke="#c0c0c0" stroke-width="2" d="M158.8782,-431.8314C152.9501,-423.6232 145.8271,-413.7606 139.3067,-404.7323"/>
<polygon fill="#c0c0c0" stroke="#c0c0c0" stroke-width="2" points="141.9908,-402.4708 133.2985,-396.4133 136.316,-406.5693 141.9908,-402.4708"/>
</g>
<!-- 9 -->
<g id="node10" class="node">
<title>9</title>
<path fill="none" stroke="#59d856" stroke-width="2" stroke-dasharray="5,2" d="M114.5079,-468C114.5079,-468 23.4921,-468 23.4921,-468 17.4921,-468 11.4921,-462 11.4921,-456 11.4921,-456 11.4921,-444 11.4921,-444 11.4921,-438 17.4921,-432 23.4921,-432 23.4921,-432 114.5079,-432 114.5079,-432 120.5079,-432 126.5079,-438 126.5079,-444 126.5079,-444 126.5079,-456 126.5079,-456 126.5079,-462 120.5079,-468 114.5079,-468"/>
<text text-anchor="middle" x="69" y="-447" font-family="sans" font-size="10.00" fill="#000000">LowQualitySequences</text>
</g>
<!-- 9&#45;&gt;6 -->
<g id="edge12" class="edge">
<title>9&#45;&gt;6</title>
<path fill="none" stroke="#c0c0c0" stroke-width="2" d="M81.8695,-431.8314C87.6835,-423.6232 94.6696,-413.7606 101.0646,-404.7323"/>
<polygon fill="#c0c0c0" stroke="#c0c0c0" stroke-width="2" points="104.0331,-406.5966 106.9573,-396.4133 98.321,-402.5505 104.0331,-406.5966"/>
</g>
<!-- 10 -->
<g id="node11" class="node">
<title>10</title>
<path fill="none" stroke="#d88556" stroke-width="2" stroke-dasharray="5,2" d="M176.0195,-540C176.0195,-540 143.9805,-540 143.9805,-540 137.9805,-540 131.9805,-534 131.9805,-528 131.9805,-528 131.9805,-516 131.9805,-516 131.9805,-510 137.9805,-504 143.9805,-504 143.9805,-504 176.0195,-504 176.0195,-504 182.0195,-504 188.0195,-510 188.0195,-516 188.0195,-516 188.0195,-528 188.0195,-528 188.0195,-534 182.0195,-540 176.0195,-540"/>
<text text-anchor="middle" x="160" y="-519" font-family="sans" font-size="10.00" fill="#000000">fasta2vcf</text>
</g>
<!-- 10&#45;&gt;8 -->
<g id="edge14" class="edge">
<title>10&#45;&gt;8</title>
<path fill="none" stroke="#c0c0c0" stroke-width="2" d="M163.0281,-503.8314C164.3115,-496.131 165.8376,-486.9743 167.2639,-478.4166"/>
<polygon fill="#c0c0c0" stroke="#c0c0c0" stroke-width="2" points="170.7394,-478.8526 168.9311,-468.4133 163.8347,-477.7018 170.7394,-478.8526"/>
</g>
<!-- 11 -->
<g id="node12" class="node">
<title>11</title>
<path fill="none" stroke="#5682d8" stroke-width="2" stroke-dasharray="5,2" d="M160.3796,-612C160.3796,-612 79.6204,-612 79.6204,-612 73.6204,-612 67.6204,-606 67.6204,-600 67.6204,-600 67.6204,-588 67.6204,-588 67.6204,-582 73.6204,-576 79.6204,-576 79.6204,-576 160.3796,-576 160.3796,-576 166.3796,-576 172.3796,-582 172.3796,-588 172.3796,-588 172.3796,-600 172.3796,-600 172.3796,-606 166.3796,-612 160.3796,-612"/>
<text text-anchor="middle" x="120" y="-591" font-family="sans" font-size="10.00" fill="#000000">ambiguous2missing</text>
</g>
<!-- 11&#45;&gt;9 -->
<g id="edge15" class="edge">
<title>11&#45;&gt;9</title>
<path fill="none" stroke="#c0c0c0" stroke-width="2" d="M113.5408,-575.7623C104.7654,-550.9846 89.0003,-506.4714 78.7728,-477.5939"/>
<polygon fill="#c0c0c0" stroke="#c0c0c0" stroke-width="2" points="82.0445,-476.3474 75.4067,-468.0896 75.4461,-478.6844 82.0445,-476.3474"/>
</g>
<!-- 11&#45;&gt;10 -->
<g id="edge16" class="edge">
<title>11&#45;&gt;10</title>
<path fill="none" stroke="#c0c0c0" stroke-width="2" d="M130.0937,-575.8314C134.5597,-567.7925 139.9075,-558.1666 144.8379,-549.2918"/>
<polygon fill="#c0c0c0" stroke="#c0c0c0" stroke-width="2" points="147.9735,-550.8546 149.7704,-540.4133 141.8544,-547.4551 147.9735,-550.8546"/>
</g>
</g>
</svg>
