<?xml version="1.0" encoding="UTF-8" standalone="no"?>
<!DOCTYPE svg PUBLIC "-//W3C//DTD SVG 1.1//EN"
 "http://www.w3.org/Graphics/SVG/1.1/DTD/svg11.dtd">
<!-- Generated by graphviz version 2.40.1 (20161225.0304)
 -->
<!-- Title: snakemake_dag Pages: 1 -->
<svg width="295pt" height="836pt"
 viewBox="0.00 0.00 294.55 836.00" xmlns="http://www.w3.org/2000/svg" xmlns:xlink="http://www.w3.org/1999/xlink">
<g id="graph0" class="graph" transform="scale(1 1) rotate(0) translate(4 832)">
<title>snakemake_dag</title>
<polygon fill="#ffffff" stroke="transparent" points="-4,4 -4,-832 290.5461,-832 290.5461,4 -4,4"/>
<!-- 0 -->
<g id="node1" class="node">
<title>0</title>
<path fill="none" stroke="#59d856" stroke-width="2" stroke-dasharray="5,2" d="M181.5363,-36C181.5363,-36 151.5363,-36 151.5363,-36 145.5363,-36 139.5363,-30 139.5363,-24 139.5363,-24 139.5363,-12 139.5363,-12 139.5363,-6 145.5363,0 151.5363,0 151.5363,0 181.5363,0 181.5363,0 187.5363,0 193.5363,-6 193.5363,-12 193.5363,-12 193.5363,-24 193.5363,-24 193.5363,-30 187.5363,-36 181.5363,-36"/>
<text text-anchor="middle" x="166.5363" y="-15" font-family="sans" font-size="10.00" fill="#000000">all</text>
</g>
<!-- 1 -->
<g id="node2" class="node">
<title>1</title>
<path fill="none" stroke="#d8b456" stroke-width="2" stroke-dasharray="5,2" d="M71.5363,-108C71.5363,-108 41.5363,-108 41.5363,-108 35.5363,-108 29.5363,-102 29.5363,-96 29.5363,-96 29.5363,-84 29.5363,-84 29.5363,-78 35.5363,-72 41.5363,-72 41.5363,-72 71.5363,-72 71.5363,-72 77.5363,-72 83.5363,-78 83.5363,-84 83.5363,-84 83.5363,-96 83.5363,-96 83.5363,-102 77.5363,-108 71.5363,-108"/>
<text text-anchor="middle" x="56.5363" y="-87" font-family="sans" font-size="10.00" fill="#000000">Oxford</text>
</g>
<!-- 1&#45;&gt;0 -->
<g id="edge1" class="edge">
<title>1&#45;&gt;0</title>
<path fill="none" stroke="#c0c0c0" stroke-width="2" d="M83.7273,-72.2022C97.8741,-62.9425 115.352,-51.5025 130.5993,-41.5224"/>
<polygon fill="#c0c0c0" stroke="#c0c0c0" stroke-width="2" points="132.8267,-44.2476 139.2769,-35.8425 128.993,-38.3907 132.8267,-44.2476"/>
</g>
<!-- 2 -->
<g id="node3" class="node">
<title>2</title>
<path fill="none" stroke="#97d856" stroke-width="2" stroke-dasharray="5,2" d="M157.8442,-108C157.8442,-108 113.2284,-108 113.2284,-108 107.2284,-108 101.2284,-102 101.2284,-96 101.2284,-96 101.2284,-84 101.2284,-84 101.2284,-78 107.2284,-72 113.2284,-72 113.2284,-72 157.8442,-72 157.8442,-72 163.8442,-72 169.8442,-78 169.8442,-84 169.8442,-84 169.8442,-96 169.8442,-96 169.8442,-102 163.8442,-108 157.8442,-108"/>
<text text-anchor="middle" x="135.5363" y="-87" font-family="sans" font-size="10.00" fill="#000000">GenSample</text>
</g>
<!-- 2&#45;&gt;0 -->
<g id="edge2" class="edge">
<title>2&#45;&gt;0</title>
<path fill="none" stroke="#c0c0c0" stroke-width="2" d="M143.3589,-71.8314C146.7472,-63.9617 150.7904,-54.5712 154.5439,-45.8533"/>
<polygon fill="#c0c0c0" stroke="#c0c0c0" stroke-width="2" points="157.8684,-46.9822 158.6084,-36.4133 151.439,-44.214 157.8684,-46.9822"/>
</g>
<!-- 3 -->
<g id="node4" class="node">
<title>3</title>
<path fill="none" stroke="#d89556" stroke-width="2" stroke-dasharray="5,2" d="M209.5363,-180C209.5363,-180 179.5363,-180 179.5363,-180 173.5363,-180 167.5363,-174 167.5363,-168 167.5363,-168 167.5363,-156 167.5363,-156 167.5363,-150 173.5363,-144 179.5363,-144 179.5363,-144 209.5363,-144 209.5363,-144 215.5363,-144 221.5363,-150 221.5363,-156 221.5363,-156 221.5363,-168 221.5363,-168 221.5363,-174 215.5363,-180 209.5363,-180"/>
<text text-anchor="middle" x="194.5363" y="-159" font-family="sans" font-size="10.00" fill="#000000">Plink</text>
</g>
<!-- 3&#45;&gt;0 -->
<g id="edge3" class="edge">
<title>3&#45;&gt;0</title>
<path fill="none" stroke="#c0c0c0" stroke-width="2" d="M191.5162,-143.6854C188.4569,-125.4693 183.4827,-96.7437 178.5363,-72 176.8685,-63.6568 174.9178,-54.621 173.0799,-46.3712"/>
<polygon fill="#c0c0c0" stroke="#c0c0c0" stroke-width="2" points="176.4572,-45.4374 170.8419,-36.4531 169.6289,-46.9782 176.4572,-45.4374"/>
</g>
<!-- 4 -->
<g id="node5" class="node">
<title>4</title>
<path fill="none" stroke="#78d856" stroke-width="2" stroke-dasharray="5,2" d="M274.5558,-252C274.5558,-252 222.5168,-252 222.5168,-252 216.5168,-252 210.5168,-246 210.5168,-240 210.5168,-240 210.5168,-228 210.5168,-228 210.5168,-222 216.5168,-216 222.5168,-216 222.5168,-216 274.5558,-216 274.5558,-216 280.5558,-216 286.5558,-222 286.5558,-228 286.5558,-228 286.5558,-240 286.5558,-240 286.5558,-246 280.5558,-252 274.5558,-252"/>
<text text-anchor="middle" x="248.5363" y="-231" font-family="sans" font-size="10.00" fill="#000000">MakeMapFile</text>
</g>
<!-- 4&#45;&gt;0 -->
<g id="edge4" class="edge">
<title>4&#45;&gt;0</title>
<path fill="none" stroke="#c0c0c0" stroke-width="2" d="M246.2747,-215.7163C243.672,-197.277 238.6755,-168.161 230.5363,-144 219.1773,-110.2813 211.7344,-103.6796 195.5363,-72 191.0536,-63.233 186.0227,-53.7487 181.4256,-45.2111"/>
<polygon fill="#c0c0c0" stroke="#c0c0c0" stroke-width="2" points="184.4927,-43.5248 176.6539,-36.3972 178.3369,-46.8575 184.4927,-43.5248"/>
</g>
<!-- 5 -->
<g id="node6" class="node">
<title>5</title>
<path fill="none" stroke="#d87556" stroke-width="2" stroke-dasharray="5,2" d="M163.1137,-324C163.1137,-324 115.9589,-324 115.9589,-324 109.9589,-324 103.9589,-318 103.9589,-312 103.9589,-312 103.9589,-300 103.9589,-300 103.9589,-294 109.9589,-288 115.9589,-288 115.9589,-288 163.1137,-288 163.1137,-288 169.1137,-288 175.1137,-294 175.1137,-300 175.1137,-300 175.1137,-312 175.1137,-312 175.1137,-318 169.1137,-324 163.1137,-324"/>
<text text-anchor="middle" x="139.5363" y="-303" font-family="sans" font-size="10.00" fill="#000000">SiteFiltration</text>
</g>
<!-- 5&#45;&gt;1 -->
<g id="edge5" class="edge">
<title>5&#45;&gt;1</title>
<path fill="none" stroke="#c0c0c0" stroke-width="2" d="M103.9375,-302.645C71.9146,-297.5276 26.6133,-284.6085 4.5363,-252 -5.6471,-236.9587 4.4777,-163.2111 12.5363,-144 16.7903,-133.8589 23.5741,-124.1086 30.5537,-115.7511"/>
<polygon fill="#c0c0c0" stroke="#c0c0c0" stroke-width="2" points="33.2296,-118.0085 37.2293,-108.1976 27.9844,-113.3729 33.2296,-118.0085"/>
</g>
<!-- 5&#45;&gt;2 -->
<g id="edge7" class="edge">
<title>5&#45;&gt;2</title>
<path fill="none" stroke="#c0c0c0" stroke-width="2" d="M139.2021,-287.9555C138.5066,-250.3938 136.8984,-163.5541 136.0624,-118.4103"/>
<polygon fill="#c0c0c0" stroke="#c0c0c0" stroke-width="2" points="139.557,-118.0785 135.8723,-108.1451 132.5582,-118.2082 139.557,-118.0785"/>
</g>
<!-- 5&#45;&gt;3 -->
<g id="edge9" class="edge">
<title>5&#45;&gt;3</title>
<path fill="none" stroke="#c0c0c0" stroke-width="2" d="M146.5021,-287.7623C155.9658,-262.9846 172.9674,-218.4714 183.997,-189.5939"/>
<polygon fill="#c0c0c0" stroke="#c0c0c0" stroke-width="2" points="187.3286,-190.6803 187.6271,-180.0896 180.7893,-188.1826 187.3286,-190.6803"/>
</g>
<!-- 5&#45;&gt;4 -->
<g id="edge10" class="edge">
<title>5&#45;&gt;4</title>
<path fill="none" stroke="#c0c0c0" stroke-width="2" d="M167.0416,-287.8314C180.8543,-278.7074 197.7619,-267.539 212.5892,-257.7449"/>
<polygon fill="#c0c0c0" stroke="#c0c0c0" stroke-width="2" points="214.6249,-260.5949 221.0398,-252.1628 210.7667,-254.7541 214.6249,-260.5949"/>
</g>
<!-- 8 -->
<g id="node9" class="node">
<title>8</title>
<path fill="none" stroke="#569ad8" stroke-width="2" stroke-dasharray="5,2" d="M99.179,-252C99.179,-252 25.8936,-252 25.8936,-252 19.8936,-252 13.8936,-246 13.8936,-240 13.8936,-240 13.8936,-228 13.8936,-228 13.8936,-222 19.8936,-216 25.8936,-216 25.8936,-216 99.179,-216 99.179,-216 105.179,-216 111.179,-222 111.179,-228 111.179,-228 111.179,-240 111.179,-240 111.179,-246 105.179,-252 99.179,-252"/>
<text text-anchor="middle" x="62.5363" y="-231" font-family="sans" font-size="10.00" fill="#000000">RefSampleNames</text>
</g>
<!-- 5&#45;&gt;8 -->
<g id="edge15" class="edge">
<title>5&#45;&gt;8</title>
<path fill="none" stroke="#c0c0c0" stroke-width="2" d="M120.106,-287.8314C110.8043,-279.1337 99.5159,-268.5783 89.4077,-259.1265"/>
<polygon fill="#c0c0c0" stroke="#c0c0c0" stroke-width="2" points="91.6552,-256.4363 81.9604,-252.1628 86.8742,-261.5493 91.6552,-256.4363"/>
</g>
<!-- 6 -->
<g id="node7" class="node">
<title>6</title>
<path fill="none" stroke="#d85656" stroke-width="2" stroke-dasharray="5,2" d="M91.7361,-180C91.7361,-180 33.3365,-180 33.3365,-180 27.3365,-180 21.3365,-174 21.3365,-168 21.3365,-168 21.3365,-156 21.3365,-156 21.3365,-150 27.3365,-144 33.3365,-144 33.3365,-144 91.7361,-144 91.7361,-144 97.7361,-144 103.7361,-150 103.7361,-156 103.7361,-156 103.7361,-168 103.7361,-168 103.7361,-174 97.7361,-180 91.7361,-180"/>
<text text-anchor="middle" x="62.5363" y="-159" font-family="sans" font-size="10.00" fill="#000000">RefSampleSex</text>
</g>
<!-- 6&#45;&gt;1 -->
<g id="edge6" class="edge">
<title>6&#45;&gt;1</title>
<path fill="none" stroke="#c0c0c0" stroke-width="2" d="M61.0223,-143.8314C60.3806,-136.131 59.6175,-126.9743 58.9044,-118.4166"/>
<polygon fill="#c0c0c0" stroke="#c0c0c0" stroke-width="2" points="62.3892,-118.088 58.0707,-108.4133 55.4134,-118.6694 62.3892,-118.088"/>
</g>
<!-- 6&#45;&gt;2 -->
<g id="edge8" class="edge">
<title>6&#45;&gt;2</title>
<path fill="none" stroke="#c0c0c0" stroke-width="2" d="M80.9573,-143.8314C89.6893,-135.219 100.268,-124.7851 109.7786,-115.4048"/>
<polygon fill="#c0c0c0" stroke="#c0c0c0" stroke-width="2" points="112.4593,-117.6769 117.1212,-108.1628 107.5438,-112.6931 112.4593,-117.6769"/>
</g>
<!-- 7 -->
<g id="node8" class="node">
<title>7</title>
<path fill="none" stroke="#56b9d8" stroke-width="2" stroke-dasharray="5,2" d="M178.7408,-396C178.7408,-396 100.3318,-396 100.3318,-396 94.3318,-396 88.3318,-390 88.3318,-384 88.3318,-384 88.3318,-372 88.3318,-372 88.3318,-366 94.3318,-360 100.3318,-360 100.3318,-360 178.7408,-360 178.7408,-360 184.7408,-360 190.7408,-366 190.7408,-372 190.7408,-372 190.7408,-384 190.7408,-384 190.7408,-390 184.7408,-396 178.7408,-396"/>
<text text-anchor="middle" x="139.5363" y="-375" font-family="sans" font-size="10.00" fill="#000000">RemoveLowQuality</text>
</g>
<!-- 7&#45;&gt;5 -->
<g id="edge11" class="edge">
<title>7&#45;&gt;5</title>
<path fill="none" stroke="#c0c0c0" stroke-width="2" d="M139.5363,-359.8314C139.5363,-352.131 139.5363,-342.9743 139.5363,-334.4166"/>
<polygon fill="#c0c0c0" stroke="#c0c0c0" stroke-width="2" points="143.0364,-334.4132 139.5363,-324.4133 136.0364,-334.4133 143.0364,-334.4132"/>
</g>
<!-- 8&#45;&gt;6 -->
<g id="edge12" class="edge">
<title>8&#45;&gt;6</title>
<path fill="none" stroke="#c0c0c0" stroke-width="2" d="M62.5363,-215.8314C62.5363,-208.131 62.5363,-198.9743 62.5363,-190.4166"/>
<polygon fill="#c0c0c0" stroke="#c0c0c0" stroke-width="2" points="66.0364,-190.4132 62.5363,-180.4133 59.0364,-190.4133 66.0364,-190.4132"/>
</g>
<!-- 9 -->
<g id="node10" class="node">
<title>9</title>
<path fill="none" stroke="#56d8b9" stroke-width="2" stroke-dasharray="5,2" d="M207.1184,-468C207.1184,-468 149.9542,-468 149.9542,-468 143.9542,-468 137.9542,-462 137.9542,-456 137.9542,-456 137.9542,-444 137.9542,-444 137.9542,-438 143.9542,-432 149.9542,-432 149.9542,-432 207.1184,-432 207.1184,-432 213.1184,-432 219.1184,-438 219.1184,-444 219.1184,-444 219.1184,-456 219.1184,-456 219.1184,-462 213.1184,-468 207.1184,-468"/>
<text text-anchor="middle" x="178.5363" y="-447" font-family="sans" font-size="10.00" fill="#000000">RemovePartial</text>
</g>
<!-- 9&#45;&gt;7 -->
<g id="edge13" class="edge">
<title>9&#45;&gt;7</title>
<path fill="none" stroke="#c0c0c0" stroke-width="2" d="M168.695,-431.8314C164.3406,-423.7925 159.1265,-414.1666 154.3194,-405.2918"/>
<polygon fill="#c0c0c0" stroke="#c0c0c0" stroke-width="2" points="157.3506,-403.5392 149.5102,-396.4133 151.1955,-406.8732 157.3506,-403.5392"/>
</g>
<!-- 10 -->
<g id="node11" class="node">
<title>10</title>
<path fill="none" stroke="#56d89a" stroke-width="2" stroke-dasharray="5,2" d="M135.0442,-684C135.0442,-684 44.0284,-684 44.0284,-684 38.0284,-684 32.0284,-678 32.0284,-672 32.0284,-672 32.0284,-660 32.0284,-660 32.0284,-654 38.0284,-648 44.0284,-648 44.0284,-648 135.0442,-648 135.0442,-648 141.0442,-648 147.0442,-654 147.0442,-660 147.0442,-660 147.0442,-672 147.0442,-672 147.0442,-678 141.0442,-684 135.0442,-684"/>
<text text-anchor="middle" x="89.5363" y="-663" font-family="sans" font-size="10.00" fill="#000000">LowQualitySequences</text>
</g>
<!-- 10&#45;&gt;7 -->
<g id="edge14" class="edge">
<title>10&#45;&gt;7</title>
<path fill="none" stroke="#c0c0c0" stroke-width="2" d="M92.349,-647.7564C98.4801,-608.3138 113.6922,-512.1846 128.5363,-432 130.0792,-423.6654 131.8717,-414.6322 133.5561,-406.3822"/>
<polygon fill="#c0c0c0" stroke="#c0c0c0" stroke-width="2" points="137.0098,-406.9638 135.605,-396.4625 130.1545,-405.5478 137.0098,-406.9638"/>
</g>
<!-- 11 -->
<g id="node12" class="node">
<title>11</title>
<path fill="none" stroke="#56d87b" stroke-width="2" stroke-dasharray="5,2" d="M230.2554,-540C230.2554,-540 146.8172,-540 146.8172,-540 140.8172,-540 134.8172,-534 134.8172,-528 134.8172,-528 134.8172,-516 134.8172,-516 134.8172,-510 140.8172,-504 146.8172,-504 146.8172,-504 230.2554,-504 230.2554,-504 236.2554,-504 242.2554,-510 242.2554,-516 242.2554,-516 242.2554,-528 242.2554,-528 242.2554,-534 236.2554,-540 230.2554,-540"/>
<text text-anchor="middle" x="188.5363" y="-519" font-family="sans" font-size="10.00" fill="#000000">RemoveNonSapiens</text>
</g>
<!-- 11&#45;&gt;9 -->
<g id="edge16" class="edge">
<title>11&#45;&gt;9</title>
<path fill="none" stroke="#c0c0c0" stroke-width="2" d="M186.0129,-503.8314C184.9434,-496.131 183.6716,-486.9743 182.4831,-478.4166"/>
<polygon fill="#c0c0c0" stroke="#c0c0c0" stroke-width="2" points="185.9362,-477.8367 181.0937,-468.4133 179.0027,-478.7997 185.9362,-477.8367"/>
</g>
<!-- 12 -->
<g id="node13" class="node">
<title>12</title>
<path fill="none" stroke="#d6d856" stroke-width="2" stroke-dasharray="5,2" d="M181.9159,-828C181.9159,-828 101.1567,-828 101.1567,-828 95.1567,-828 89.1567,-822 89.1567,-816 89.1567,-816 89.1567,-804 89.1567,-804 89.1567,-798 95.1567,-792 101.1567,-792 101.1567,-792 181.9159,-792 181.9159,-792 187.9159,-792 193.9159,-798 193.9159,-804 193.9159,-804 193.9159,-816 193.9159,-816 193.9159,-822 187.9159,-828 181.9159,-828"/>
<text text-anchor="middle" x="141.5363" y="-807" font-family="sans" font-size="10.00" fill="#000000">ambiguous2missing</text>
</g>
<!-- 12&#45;&gt;10 -->
<g id="edge17" class="edge">
<title>12&#45;&gt;10</title>
<path fill="none" stroke="#c0c0c0" stroke-width="2" d="M134.9505,-791.7623C126.003,-766.9846 109.9287,-722.4714 99.5008,-693.5939"/>
<polygon fill="#c0c0c0" stroke="#c0c0c0" stroke-width="2" points="102.7571,-692.3064 96.0687,-684.0896 96.1732,-694.6839 102.7571,-692.3064"/>
</g>
<!-- 15 -->
<g id="node16" class="node">
<title>15</title>
<path fill="none" stroke="#b6d856" stroke-width="2" stroke-dasharray="5,2" d="M197.5558,-756C197.5558,-756 165.5168,-756 165.5168,-756 159.5168,-756 153.5168,-750 153.5168,-744 153.5168,-744 153.5168,-732 153.5168,-732 153.5168,-726 159.5168,-720 165.5168,-720 165.5168,-720 197.5558,-720 197.5558,-720 203.5558,-720 209.5558,-726 209.5558,-732 209.5558,-732 209.5558,-744 209.5558,-744 209.5558,-750 203.5558,-756 197.5558,-756"/>
<text text-anchor="middle" x="181.5363" y="-735" font-family="sans" font-size="10.00" fill="#000000">fasta2vcf</text>
</g>
<!-- 12&#45;&gt;15 -->
<g id="edge21" class="edge">
<title>12&#45;&gt;15</title>
<path fill="none" stroke="#c0c0c0" stroke-width="2" d="M151.63,-791.8314C156.096,-783.7925 161.4438,-774.1666 166.3742,-765.2918"/>
<polygon fill="#c0c0c0" stroke="#c0c0c0" stroke-width="2" points="169.5098,-766.8546 171.3067,-756.4133 163.3907,-763.4551 169.5098,-766.8546"/>
</g>
<!-- 13 -->
<g id="node14" class="node">
<title>13</title>
<path fill="none" stroke="#56d8d8" stroke-width="2" stroke-dasharray="5,2" d="M225.128,-612C225.128,-612 157.9446,-612 157.9446,-612 151.9446,-612 145.9446,-606 145.9446,-600 145.9446,-600 145.9446,-588 145.9446,-588 145.9446,-582 151.9446,-576 157.9446,-576 157.9446,-576 225.128,-576 225.128,-576 231.128,-576 237.128,-582 237.128,-588 237.128,-588 237.128,-600 237.128,-600 237.128,-606 231.128,-612 225.128,-612"/>
<text text-anchor="middle" x="191.5363" y="-591" font-family="sans" font-size="10.00" fill="#000000">RemoveAncients</text>
</g>
<!-- 13&#45;&gt;11 -->
<g id="edge18" class="edge">
<title>13&#45;&gt;11</title>
<path fill="none" stroke="#c0c0c0" stroke-width="2" d="M190.7793,-575.8314C190.4584,-568.131 190.0769,-558.9743 189.7203,-550.4166"/>
<polygon fill="#c0c0c0" stroke="#c0c0c0" stroke-width="2" points="193.2169,-550.2589 189.3035,-540.4133 186.223,-550.5503 193.2169,-550.2589"/>
</g>
<!-- 14 -->
<g id="node15" class="node">
<title>14</title>
<path fill="none" stroke="#567bd8" stroke-width="2" stroke-dasharray="5,2" d="M211.8296,-684C211.8296,-684 177.243,-684 177.243,-684 171.243,-684 165.243,-678 165.243,-672 165.243,-672 165.243,-660 165.243,-660 165.243,-654 171.243,-648 177.243,-648 177.243,-648 211.8296,-648 211.8296,-648 217.8296,-648 223.8296,-654 223.8296,-660 223.8296,-660 223.8296,-672 223.8296,-672 223.8296,-678 217.8296,-684 211.8296,-684"/>
<text text-anchor="middle" x="194.5363" y="-663" font-family="sans" font-size="10.00" fill="#000000">VcfCheck</text>
</g>
<!-- 14&#45;&gt;13 -->
<g id="edge19" class="edge">
<title>14&#45;&gt;13</title>
<path fill="none" stroke="#c0c0c0" stroke-width="2" d="M193.7793,-647.8314C193.4584,-640.131 193.0769,-630.9743 192.7203,-622.4166"/>
<polygon fill="#c0c0c0" stroke="#c0c0c0" stroke-width="2" points="196.2169,-622.2589 192.3035,-612.4133 189.223,-622.5503 196.2169,-622.2589"/>
</g>
<!-- 15&#45;&gt;14 -->
<g id="edge20" class="edge">
<title>15&#45;&gt;14</title>
<path fill="none" stroke="#c0c0c0" stroke-width="2" d="M184.8168,-719.8314C186.2071,-712.131 187.8604,-702.9743 189.4055,-694.4166"/>
<polygon fill="#c0c0c0" stroke="#c0c0c0" stroke-width="2" points="192.8791,-694.8761 191.2117,-684.4133 185.9905,-693.6322 192.8791,-694.8761"/>
</g>
</g>
</svg>
