<?xml version="1.0" encoding="UTF-8" standalone="no"?>
<!DOCTYPE svg PUBLIC "-//W3C//DTD SVG 1.1//EN"
 "http://www.w3.org/Graphics/SVG/1.1/DTD/svg11.dtd">
<!-- Generated by graphviz version 2.40.1 (20161225.0304)
 -->
<!-- Title: snakemake_dag Pages: 1 -->
<svg width="348pt" height="620pt"
 viewBox="0.00 0.00 348.01 620.00" xmlns="http://www.w3.org/2000/svg" xmlns:xlink="http://www.w3.org/1999/xlink">
<g id="graph0" class="graph" transform="scale(1 1) rotate(0) translate(4 616)">
<title>snakemake_dag</title>
<polygon fill="#ffffff" stroke="transparent" points="-4,4 -4,-616 344.0098,-616 344.0098,4 -4,4"/>
<!-- 0 -->
<g id="node1" class="node">
<title>0</title>
<path fill="none" stroke="#567bd8" stroke-width="2" stroke-dasharray="5,2" d="M195,-36C195,-36 165,-36 165,-36 159,-36 153,-30 153,-24 153,-24 153,-12 153,-12 153,-6 159,0 165,0 165,0 195,0 195,0 201,0 207,-6 207,-12 207,-12 207,-24 207,-24 207,-30 201,-36 195,-36"/>
<text text-anchor="middle" x="180" y="-15" font-family="sans" font-size="10.00" fill="#000000">all</text>
</g>
<!-- 1 -->
<g id="node2" class="node">
<title>1</title>
<path fill="none" stroke="#d8cb56" stroke-width="2" stroke-dasharray="5,2" d="M42,-180C42,-180 12,-180 12,-180 6,-180 0,-174 0,-168 0,-168 0,-156 0,-156 0,-150 6,-144 12,-144 12,-144 42,-144 42,-144 48,-144 54,-150 54,-156 54,-156 54,-168 54,-168 54,-174 48,-180 42,-180"/>
<text text-anchor="middle" x="27" y="-159" font-family="sans" font-size="10.00" fill="#000000">Plink</text>
</g>
<!-- 1&#45;&gt;0 -->
<g id="edge1" class="edge">
<title>1&#45;&gt;0</title>
<path fill="none" stroke="#c0c0c0" stroke-width="2" d="M38.8404,-143.682C51.852,-124.425 74.1013,-93.9363 98,-72 111.9616,-59.1848 129.2625,-47.3157 144.3689,-37.988"/>
<polygon fill="#c0c0c0" stroke="#c0c0c0" stroke-width="2" points="146.2124,-40.9635 152.9679,-32.8017 142.5972,-34.9693 146.2124,-40.9635"/>
</g>
<!-- 2 -->
<g id="node3" class="node">
<title>2</title>
<path fill="none" stroke="#68d856" stroke-width="2" stroke-dasharray="5,2" d="M163.3079,-108C163.3079,-108 118.6921,-108 118.6921,-108 112.6921,-108 106.6921,-102 106.6921,-96 106.6921,-96 106.6921,-84 106.6921,-84 106.6921,-78 112.6921,-72 118.6921,-72 118.6921,-72 163.3079,-72 163.3079,-72 169.3079,-72 175.3079,-78 175.3079,-84 175.3079,-84 175.3079,-96 175.3079,-96 175.3079,-102 169.3079,-108 163.3079,-108"/>
<text text-anchor="middle" x="141" y="-87" font-family="sans" font-size="10.00" fill="#000000">GenSample</text>
</g>
<!-- 2&#45;&gt;0 -->
<g id="edge2" class="edge">
<title>2&#45;&gt;0</title>
<path fill="none" stroke="#c0c0c0" stroke-width="2" d="M150.8413,-71.8314C155.1957,-63.7925 160.4098,-54.1666 165.2169,-45.2918"/>
<polygon fill="#c0c0c0" stroke="#c0c0c0" stroke-width="2" points="168.3408,-46.8732 170.0261,-36.4133 162.1857,-43.5392 168.3408,-46.8732"/>
</g>
<!-- 3 -->
<g id="node4" class="node">
<title>3</title>
<path fill="none" stroke="#56d8b9" stroke-width="2" stroke-dasharray="5,2" d="M235,-108C235,-108 205,-108 205,-108 199,-108 193,-102 193,-96 193,-96 193,-84 193,-84 193,-78 199,-72 205,-72 205,-72 235,-72 235,-72 241,-72 247,-78 247,-84 247,-84 247,-96 247,-96 247,-102 241,-108 235,-108"/>
<text text-anchor="middle" x="220" y="-87" font-family="sans" font-size="10.00" fill="#000000">Oxford</text>
</g>
<!-- 3&#45;&gt;0 -->
<g id="edge3" class="edge">
<title>3&#45;&gt;0</title>
<path fill="none" stroke="#c0c0c0" stroke-width="2" d="M209.9063,-71.8314C205.4403,-63.7925 200.0925,-54.1666 195.1621,-45.2918"/>
<polygon fill="#c0c0c0" stroke="#c0c0c0" stroke-width="2" points="198.1456,-43.4551 190.2296,-36.4133 192.0265,-46.8546 198.1456,-43.4551"/>
</g>
<!-- 4 -->
<g id="node5" class="node">
<title>4</title>
<path fill="none" stroke="#b6d856" stroke-width="2" stroke-dasharray="5,2" d="M328.0195,-252C328.0195,-252 275.9805,-252 275.9805,-252 269.9805,-252 263.9805,-246 263.9805,-240 263.9805,-240 263.9805,-228 263.9805,-228 263.9805,-222 269.9805,-216 275.9805,-216 275.9805,-216 328.0195,-216 328.0195,-216 334.0195,-216 340.0195,-222 340.0195,-228 340.0195,-228 340.0195,-240 340.0195,-240 340.0195,-246 334.0195,-252 328.0195,-252"/>
<text text-anchor="middle" x="302" y="-231" font-family="sans" font-size="10.00" fill="#000000">MakeMapFile</text>
</g>
<!-- 4&#45;&gt;0 -->
<g id="edge4" class="edge">
<title>4&#45;&gt;0</title>
<path fill="none" stroke="#c0c0c0" stroke-width="2" d="M300.7467,-215.7942C297.7572,-183.9263 287.8748,-117.1376 256,-72 245.7165,-57.4377 230.2138,-45.4102 215.8864,-36.432"/>
<polygon fill="#c0c0c0" stroke="#c0c0c0" stroke-width="2" points="217.5567,-33.3531 207.1746,-31.2405 213.9732,-39.3663 217.5567,-33.3531"/>
</g>
<!-- 5 -->
<g id="node6" class="node">
<title>5</title>
<path fill="none" stroke="#8fd856" stroke-width="2" stroke-dasharray="5,2" d="M182.5774,-324C182.5774,-324 135.4226,-324 135.4226,-324 129.4226,-324 123.4226,-318 123.4226,-312 123.4226,-312 123.4226,-300 123.4226,-300 123.4226,-294 129.4226,-288 135.4226,-288 135.4226,-288 182.5774,-288 182.5774,-288 188.5774,-288 194.5774,-294 194.5774,-300 194.5774,-300 194.5774,-312 194.5774,-312 194.5774,-318 188.5774,-324 182.5774,-324"/>
<text text-anchor="middle" x="159" y="-303" font-family="sans" font-size="10.00" fill="#000000">SiteFiltration</text>
</g>
<!-- 5&#45;&gt;1 -->
<g id="edge5" class="edge">
<title>5&#45;&gt;1</title>
<path fill="none" stroke="#c0c0c0" stroke-width="2" d="M123.0554,-291.0367C104.6883,-281.9405 83.0914,-268.8177 68,-252 51.9613,-234.1267 41.2098,-208.9193 34.7556,-189.7266"/>
<polygon fill="#c0c0c0" stroke="#c0c0c0" stroke-width="2" points="38.0432,-188.5147 31.6864,-180.0387 31.3701,-190.6289 38.0432,-188.5147"/>
</g>
<!-- 5&#45;&gt;2 -->
<g id="edge7" class="edge">
<title>5&#45;&gt;2</title>
<path fill="none" stroke="#c0c0c0" stroke-width="2" d="M131.0391,-287.862C119.446,-278.6621 107.2598,-266.3809 101,-252 92.8554,-233.2889 105.044,-155.8262 109,-144 112.148,-134.5891 117.1055,-125.0406 122.1868,-116.6432"/>
<polygon fill="#c0c0c0" stroke="#c0c0c0" stroke-width="2" points="125.2446,-118.3576 127.6693,-108.0439 119.3421,-114.5944 125.2446,-118.3576"/>
</g>
<!-- 5&#45;&gt;3 -->
<g id="edge9" class="edge">
<title>5&#45;&gt;3</title>
<path fill="none" stroke="#c0c0c0" stroke-width="2" d="M186.8382,-287.808C198.4066,-278.5972 210.6074,-266.3223 217,-252 236.398,-208.5399 231.4662,-151.766 225.8909,-118.2591"/>
<polygon fill="#c0c0c0" stroke="#c0c0c0" stroke-width="2" points="229.3044,-117.4659 224.0881,-108.2442 222.4151,-118.7061 229.3044,-117.4659"/>
</g>
<!-- 5&#45;&gt;4 -->
<g id="edge10" class="edge">
<title>5&#45;&gt;4</title>
<path fill="none" stroke="#c0c0c0" stroke-width="2" d="M194.7161,-288.0171C213.6551,-278.4814 237.1073,-266.6733 257.2499,-256.5315"/>
<polygon fill="#c0c0c0" stroke="#c0c0c0" stroke-width="2" points="258.8859,-259.6265 266.2436,-252.0032 255.7379,-253.3742 258.8859,-259.6265"/>
</g>
<!-- 8 -->
<g id="node9" class="node">
<title>8</title>
<path fill="none" stroke="#d8a456" stroke-width="2" stroke-dasharray="5,2" d="M195.6427,-252C195.6427,-252 122.3573,-252 122.3573,-252 116.3573,-252 110.3573,-246 110.3573,-240 110.3573,-240 110.3573,-228 110.3573,-228 110.3573,-222 116.3573,-216 122.3573,-216 122.3573,-216 195.6427,-216 195.6427,-216 201.6427,-216 207.6427,-222 207.6427,-228 207.6427,-228 207.6427,-240 207.6427,-240 207.6427,-246 201.6427,-252 195.6427,-252"/>
<text text-anchor="middle" x="159" y="-231" font-family="sans" font-size="10.00" fill="#000000">RefSampleNames</text>
</g>
<!-- 5&#45;&gt;8 -->
<g id="edge15" class="edge">
<title>5&#45;&gt;8</title>
<path fill="none" stroke="#c0c0c0" stroke-width="2" d="M159,-287.8314C159,-280.131 159,-270.9743 159,-262.4166"/>
<polygon fill="#c0c0c0" stroke="#c0c0c0" stroke-width="2" points="162.5001,-262.4132 159,-252.4133 155.5001,-262.4133 162.5001,-262.4132"/>
</g>
<!-- 6 -->
<g id="node7" class="node">
<title>6</title>
<path fill="none" stroke="#56d86b" stroke-width="2" stroke-dasharray="5,2" d="M188.1998,-180C188.1998,-180 129.8002,-180 129.8002,-180 123.8002,-180 117.8002,-174 117.8002,-168 117.8002,-168 117.8002,-156 117.8002,-156 117.8002,-150 123.8002,-144 129.8002,-144 129.8002,-144 188.1998,-144 188.1998,-144 194.1998,-144 200.1998,-150 200.1998,-156 200.1998,-156 200.1998,-168 200.1998,-168 200.1998,-174 194.1998,-180 188.1998,-180"/>
<text text-anchor="middle" x="159" y="-159" font-family="sans" font-size="10.00" fill="#000000">RefSampleSex</text>
</g>
<!-- 6&#45;&gt;2 -->
<g id="edge6" class="edge">
<title>6&#45;&gt;2</title>
<path fill="none" stroke="#c0c0c0" stroke-width="2" d="M154.4578,-143.8314C152.5116,-136.0463 150.1932,-126.7729 148.0337,-118.1347"/>
<polygon fill="#c0c0c0" stroke="#c0c0c0" stroke-width="2" points="151.4242,-117.2658 145.6033,-108.4133 144.6332,-118.9636 151.4242,-117.2658"/>
</g>
<!-- 6&#45;&gt;3 -->
<g id="edge8" class="edge">
<title>6&#45;&gt;3</title>
<path fill="none" stroke="#c0c0c0" stroke-width="2" d="M174.3929,-143.8314C181.4904,-135.454 190.048,-125.3531 197.824,-116.1749"/>
<polygon fill="#c0c0c0" stroke="#c0c0c0" stroke-width="2" points="200.6061,-118.3056 204.3999,-108.4133 195.2652,-113.7807 200.6061,-118.3056"/>
</g>
<!-- 7 -->
<g id="node8" class="node">
<title>7</title>
<path fill="none" stroke="#56d892" stroke-width="2" stroke-dasharray="5,2" d="M198.2045,-396C198.2045,-396 119.7955,-396 119.7955,-396 113.7955,-396 107.7955,-390 107.7955,-384 107.7955,-384 107.7955,-372 107.7955,-372 107.7955,-366 113.7955,-360 119.7955,-360 119.7955,-360 198.2045,-360 198.2045,-360 204.2045,-360 210.2045,-366 210.2045,-372 210.2045,-372 210.2045,-384 210.2045,-384 210.2045,-390 204.2045,-396 198.2045,-396"/>
<text text-anchor="middle" x="159" y="-375" font-family="sans" font-size="10.00" fill="#000000">RemoveLowQuality</text>
</g>
<!-- 7&#45;&gt;5 -->
<g id="edge11" class="edge">
<title>7&#45;&gt;5</title>
<path fill="none" stroke="#c0c0c0" stroke-width="2" d="M159,-359.8314C159,-352.131 159,-342.9743 159,-334.4166"/>
<polygon fill="#c0c0c0" stroke="#c0c0c0" stroke-width="2" points="162.5001,-334.4132 159,-324.4133 155.5001,-334.4133 162.5001,-334.4132"/>
</g>
<!-- 8&#45;&gt;6 -->
<g id="edge12" class="edge">
<title>8&#45;&gt;6</title>
<path fill="none" stroke="#c0c0c0" stroke-width="2" d="M159,-215.8314C159,-208.131 159,-198.9743 159,-190.4166"/>
<polygon fill="#c0c0c0" stroke="#c0c0c0" stroke-width="2" points="162.5001,-190.4132 159,-180.4133 155.5001,-190.4133 162.5001,-190.4132"/>
</g>
<!-- 9 -->
<g id="node10" class="node">
<title>9</title>
<path fill="none" stroke="#56d0d8" stroke-width="2" stroke-dasharray="5,2" d="M226,-468C226,-468 196,-468 196,-468 190,-468 184,-462 184,-456 184,-456 184,-444 184,-444 184,-438 190,-432 196,-432 196,-432 226,-432 226,-432 232,-432 238,-438 238,-444 238,-444 238,-456 238,-456 238,-462 232,-468 226,-468"/>
<text text-anchor="middle" x="211" y="-447" font-family="sans" font-size="10.00" fill="#000000">bcf</text>
</g>
<!-- 9&#45;&gt;7 -->
<g id="edge13" class="edge">
<title>9&#45;&gt;7</title>
<path fill="none" stroke="#c0c0c0" stroke-width="2" d="M197.8782,-431.8314C191.9501,-423.6232 184.8271,-413.7606 178.3067,-404.7323"/>
<polygon fill="#c0c0c0" stroke="#c0c0c0" stroke-width="2" points="180.9908,-402.4708 172.2985,-396.4133 175.316,-406.5693 180.9908,-402.4708"/>
</g>
<!-- 10 -->
<g id="node11" class="node">
<title>10</title>
<path fill="none" stroke="#d85656" stroke-width="2" stroke-dasharray="5,2" d="M153.5079,-468C153.5079,-468 62.4921,-468 62.4921,-468 56.4921,-468 50.4921,-462 50.4921,-456 50.4921,-456 50.4921,-444 50.4921,-444 50.4921,-438 56.4921,-432 62.4921,-432 62.4921,-432 153.5079,-432 153.5079,-432 159.5079,-432 165.5079,-438 165.5079,-444 165.5079,-444 165.5079,-456 165.5079,-456 165.5079,-462 159.5079,-468 153.5079,-468"/>
<text text-anchor="middle" x="108" y="-447" font-family="sans" font-size="10.00" fill="#000000">LowQualitySequences</text>
</g>
<!-- 10&#45;&gt;7 -->
<g id="edge14" class="edge">
<title>10&#45;&gt;7</title>
<path fill="none" stroke="#c0c0c0" stroke-width="2" d="M120.8695,-431.8314C126.6835,-423.6232 133.6696,-413.7606 140.0646,-404.7323"/>
<polygon fill="#c0c0c0" stroke="#c0c0c0" stroke-width="2" points="143.0331,-406.5966 145.9573,-396.4133 137.321,-402.5505 143.0331,-406.5966"/>
</g>
<!-- 11 -->
<g id="node12" class="node">
<title>11</title>
<path fill="none" stroke="#56a9d8" stroke-width="2" stroke-dasharray="5,2" d="M215.0195,-540C215.0195,-540 182.9805,-540 182.9805,-540 176.9805,-540 170.9805,-534 170.9805,-528 170.9805,-528 170.9805,-516 170.9805,-516 170.9805,-510 176.9805,-504 182.9805,-504 182.9805,-504 215.0195,-504 215.0195,-504 221.0195,-504 227.0195,-510 227.0195,-516 227.0195,-516 227.0195,-528 227.0195,-528 227.0195,-534 221.0195,-540 215.0195,-540"/>
<text text-anchor="middle" x="199" y="-519" font-family="sans" font-size="10.00" fill="#000000">fasta2vcf</text>
</g>
<!-- 11&#45;&gt;9 -->
<g id="edge16" class="edge">
<title>11&#45;&gt;9</title>
<path fill="none" stroke="#c0c0c0" stroke-width="2" d="M202.0281,-503.8314C203.3115,-496.131 204.8376,-486.9743 206.2639,-478.4166"/>
<polygon fill="#c0c0c0" stroke="#c0c0c0" stroke-width="2" points="209.7394,-478.8526 207.9311,-468.4133 202.8347,-477.7018 209.7394,-478.8526"/>
</g>
<!-- 12 -->
<g id="node13" class="node">
<title>12</title>
<path fill="none" stroke="#d87d56" stroke-width="2" stroke-dasharray="5,2" d="M199.3796,-612C199.3796,-612 118.6204,-612 118.6204,-612 112.6204,-612 106.6204,-606 106.6204,-600 106.6204,-600 106.6204,-588 106.6204,-588 106.6204,-582 112.6204,-576 118.6204,-576 118.6204,-576 199.3796,-576 199.3796,-576 205.3796,-576 211.3796,-582 211.3796,-588 211.3796,-588 211.3796,-600 211.3796,-600 211.3796,-606 205.3796,-612 199.3796,-612"/>
<text text-anchor="middle" x="159" y="-591" font-family="sans" font-size="10.00" fill="#000000">ambiguous2missing</text>
</g>
<!-- 12&#45;&gt;10 -->
<g id="edge17" class="edge">
<title>12&#45;&gt;10</title>
<path fill="none" stroke="#c0c0c0" stroke-width="2" d="M152.5408,-575.7623C143.7654,-550.9846 128.0003,-506.4714 117.7728,-477.5939"/>
<polygon fill="#c0c0c0" stroke="#c0c0c0" stroke-width="2" points="121.0445,-476.3474 114.4067,-468.0896 114.4461,-478.6844 121.0445,-476.3474"/>
</g>
<!-- 12&#45;&gt;11 -->
<g id="edge18" class="edge">
<title>12&#45;&gt;11</title>
<path fill="none" stroke="#c0c0c0" stroke-width="2" d="M169.0937,-575.8314C173.5597,-567.7925 178.9075,-558.1666 183.8379,-549.2918"/>
<polygon fill="#c0c0c0" stroke="#c0c0c0" stroke-width="2" points="186.9735,-550.8546 188.7704,-540.4133 180.8544,-547.4551 186.9735,-550.8546"/>
</g>
</g>
</svg>
