<?xml version="1.0" encoding="UTF-8" standalone="no"?>
<!DOCTYPE svg PUBLIC "-//W3C//DTD SVG 1.1//EN"
 "http://www.w3.org/Graphics/SVG/1.1/DTD/svg11.dtd">
<!-- Generated by graphviz version 2.40.1 (20161225.0304)
 -->
<!-- Title: snakemake_dag Pages: 1 -->
<svg width="348pt" height="836pt"
 viewBox="0.00 0.00 348.01 836.00" xmlns="http://www.w3.org/2000/svg" xmlns:xlink="http://www.w3.org/1999/xlink">
<g id="graph0" class="graph" transform="scale(1 1) rotate(0) translate(4 832)">
<title>snakemake_dag</title>
<polygon fill="#ffffff" stroke="transparent" points="-4,4 -4,-832 344.0098,-832 344.0098,4 -4,4"/>
<!-- 0 -->
<g id="node1" class="node">
<title>0</title>
<path fill="none" stroke="#78d856" stroke-width="2" d="M195,-36C195,-36 165,-36 165,-36 159,-36 153,-30 153,-24 153,-24 153,-12 153,-12 153,-6 159,0 165,0 165,0 195,0 195,0 201,0 207,-6 207,-12 207,-12 207,-24 207,-24 207,-30 201,-36 195,-36"/>
<text text-anchor="middle" x="180" y="-15" font-family="sans" font-size="10.00" fill="#000000">all</text>
</g>
<!-- 1 -->
<g id="node2" class="node">
<title>1</title>
<path fill="none" stroke="#56d89a" stroke-width="2" d="M163.3079,-108C163.3079,-108 118.6921,-108 118.6921,-108 112.6921,-108 106.6921,-102 106.6921,-96 106.6921,-96 106.6921,-84 106.6921,-84 106.6921,-78 112.6921,-72 118.6921,-72 118.6921,-72 163.3079,-72 163.3079,-72 169.3079,-72 175.3079,-78 175.3079,-84 175.3079,-84 175.3079,-96 175.3079,-96 175.3079,-102 169.3079,-108 163.3079,-108"/>
<text text-anchor="middle" x="141" y="-87" font-family="sans" font-size="10.00" fill="#000000">GenSample</text>
</g>
<!-- 1&#45;&gt;0 -->
<g id="edge1" class="edge">
<title>1&#45;&gt;0</title>
<path fill="none" stroke="#c0c0c0" stroke-width="2" d="M150.8413,-71.8314C155.1957,-63.7925 160.4098,-54.1666 165.2169,-45.2918"/>
<polygon fill="#c0c0c0" stroke="#c0c0c0" stroke-width="2" points="168.3408,-46.8732 170.0261,-36.4133 162.1857,-43.5392 168.3408,-46.8732"/>
</g>
<!-- 2 -->
<g id="node3" class="node">
<title>2</title>
<path fill="none" stroke="#b6d856" stroke-width="2" d="M42,-180C42,-180 12,-180 12,-180 6,-180 0,-174 0,-168 0,-168 0,-156 0,-156 0,-150 6,-144 12,-144 12,-144 42,-144 42,-144 48,-144 54,-150 54,-156 54,-156 54,-168 54,-168 54,-174 48,-180 42,-180"/>
<text text-anchor="middle" x="27" y="-159" font-family="sans" font-size="10.00" fill="#000000">Plink</text>
</g>
<!-- 2&#45;&gt;0 -->
<g id="edge2" class="edge">
<title>2&#45;&gt;0</title>
<path fill="none" stroke="#c0c0c0" stroke-width="2" d="M38.8404,-143.682C51.852,-124.425 74.1013,-93.9363 98,-72 111.9616,-59.1848 129.2625,-47.3157 144.3689,-37.988"/>
<polygon fill="#c0c0c0" stroke="#c0c0c0" stroke-width="2" points="146.2124,-40.9635 152.9679,-32.8017 142.5972,-34.9693 146.2124,-40.9635"/>
</g>
<!-- 3 -->
<g id="node4" class="node">
<title>3</title>
<path fill="none" stroke="#567bd8" stroke-width="2" d="M235,-108C235,-108 205,-108 205,-108 199,-108 193,-102 193,-96 193,-96 193,-84 193,-84 193,-78 199,-72 205,-72 205,-72 235,-72 235,-72 241,-72 247,-78 247,-84 247,-84 247,-96 247,-96 247,-102 241,-108 235,-108"/>
<text text-anchor="middle" x="220" y="-87" font-family="sans" font-size="10.00" fill="#000000">Oxford</text>
</g>
<!-- 3&#45;&gt;0 -->
<g id="edge3" class="edge">
<title>3&#45;&gt;0</title>
<path fill="none" stroke="#c0c0c0" stroke-width="2" d="M209.9063,-71.8314C205.4403,-63.7925 200.0925,-54.1666 195.1621,-45.2918"/>
<polygon fill="#c0c0c0" stroke="#c0c0c0" stroke-width="2" points="198.1456,-43.4551 190.2296,-36.4133 192.0265,-46.8546 198.1456,-43.4551"/>
</g>
<!-- 4 -->
<g id="node5" class="node">
<title>4</title>
<path fill="none" stroke="#56d8b9" stroke-width="2" d="M328.0195,-252C328.0195,-252 275.9805,-252 275.9805,-252 269.9805,-252 263.9805,-246 263.9805,-240 263.9805,-240 263.9805,-228 263.9805,-228 263.9805,-222 269.9805,-216 275.9805,-216 275.9805,-216 328.0195,-216 328.0195,-216 334.0195,-216 340.0195,-222 340.0195,-228 340.0195,-228 340.0195,-240 340.0195,-240 340.0195,-246 334.0195,-252 328.0195,-252"/>
<text text-anchor="middle" x="302" y="-231" font-family="sans" font-size="10.00" fill="#000000">MakeMapFile</text>
</g>
<!-- 4&#45;&gt;0 -->
<g id="edge4" class="edge">
<title>4&#45;&gt;0</title>
<path fill="none" stroke="#c0c0c0" stroke-width="2" d="M300.7467,-215.7942C297.7572,-183.9263 287.8748,-117.1376 256,-72 245.7165,-57.4377 230.2138,-45.4102 215.8864,-36.432"/>
<polygon fill="#c0c0c0" stroke="#c0c0c0" stroke-width="2" points="217.5567,-33.3531 207.1746,-31.2405 213.9732,-39.3663 217.5567,-33.3531"/>
</g>
<!-- 5 -->
<g id="node6" class="node">
<title>5</title>
<path fill="none" stroke="#d6d856" stroke-width="2" d="M188.1998,-180C188.1998,-180 129.8002,-180 129.8002,-180 123.8002,-180 117.8002,-174 117.8002,-168 117.8002,-168 117.8002,-156 117.8002,-156 117.8002,-150 123.8002,-144 129.8002,-144 129.8002,-144 188.1998,-144 188.1998,-144 194.1998,-144 200.1998,-150 200.1998,-156 200.1998,-156 200.1998,-168 200.1998,-168 200.1998,-174 194.1998,-180 188.1998,-180"/>
<text text-anchor="middle" x="159" y="-159" font-family="sans" font-size="10.00" fill="#000000">RefSampleSex</text>
</g>
<!-- 5&#45;&gt;1 -->
<g id="edge5" class="edge">
<title>5&#45;&gt;1</title>
<path fill="none" stroke="#c0c0c0" stroke-width="2" d="M154.4578,-143.8314C152.5116,-136.0463 150.1932,-126.7729 148.0337,-118.1347"/>
<polygon fill="#c0c0c0" stroke="#c0c0c0" stroke-width="2" points="151.4242,-117.2658 145.6033,-108.4133 144.6332,-118.9636 151.4242,-117.2658"/>
</g>
<!-- 5&#45;&gt;3 -->
<g id="edge8" class="edge">
<title>5&#45;&gt;3</title>
<path fill="none" stroke="#c0c0c0" stroke-width="2" d="M174.3929,-143.8314C181.4904,-135.454 190.048,-125.3531 197.824,-116.1749"/>
<polygon fill="#c0c0c0" stroke="#c0c0c0" stroke-width="2" points="200.6061,-118.3056 204.3999,-108.4133 195.2652,-113.7807 200.6061,-118.3056"/>
</g>
<!-- 6 -->
<g id="node7" class="node">
<title>6</title>
<path fill="none" stroke="#d89556" stroke-width="2" d="M182.5774,-324C182.5774,-324 135.4226,-324 135.4226,-324 129.4226,-324 123.4226,-318 123.4226,-312 123.4226,-312 123.4226,-300 123.4226,-300 123.4226,-294 129.4226,-288 135.4226,-288 135.4226,-288 182.5774,-288 182.5774,-288 188.5774,-288 194.5774,-294 194.5774,-300 194.5774,-300 194.5774,-312 194.5774,-312 194.5774,-318 188.5774,-324 182.5774,-324"/>
<text text-anchor="middle" x="159" y="-303" font-family="sans" font-size="10.00" fill="#000000">SiteFiltration</text>
</g>
<!-- 6&#45;&gt;1 -->
<g id="edge6" class="edge">
<title>6&#45;&gt;1</title>
<path fill="none" stroke="#c0c0c0" stroke-width="2" d="M131.0391,-287.862C119.446,-278.6621 107.2598,-266.3809 101,-252 92.8554,-233.2889 105.044,-155.8262 109,-144 112.148,-134.5891 117.1055,-125.0406 122.1868,-116.6432"/>
<polygon fill="#c0c0c0" stroke="#c0c0c0" stroke-width="2" points="125.2446,-118.3576 127.6693,-108.0439 119.3421,-114.5944 125.2446,-118.3576"/>
</g>
<!-- 6&#45;&gt;2 -->
<g id="edge7" class="edge">
<title>6&#45;&gt;2</title>
<path fill="none" stroke="#c0c0c0" stroke-width="2" d="M123.0554,-291.0367C104.6883,-281.9405 83.0914,-268.8177 68,-252 51.9613,-234.1267 41.2098,-208.9193 34.7556,-189.7266"/>
<polygon fill="#c0c0c0" stroke="#c0c0c0" stroke-width="2" points="38.0432,-188.5147 31.6864,-180.0387 31.3701,-190.6289 38.0432,-188.5147"/>
</g>
<!-- 6&#45;&gt;3 -->
<g id="edge9" class="edge">
<title>6&#45;&gt;3</title>
<path fill="none" stroke="#c0c0c0" stroke-width="2" d="M186.8382,-287.808C198.4066,-278.5972 210.6074,-266.3223 217,-252 236.398,-208.5399 231.4662,-151.766 225.8909,-118.2591"/>
<polygon fill="#c0c0c0" stroke="#c0c0c0" stroke-width="2" points="229.3044,-117.4659 224.0881,-108.2442 222.4151,-118.7061 229.3044,-117.4659"/>
</g>
<!-- 6&#45;&gt;4 -->
<g id="edge10" class="edge">
<title>6&#45;&gt;4</title>
<path fill="none" stroke="#c0c0c0" stroke-width="2" d="M194.7161,-288.0171C213.6551,-278.4814 237.1073,-266.6733 257.2499,-256.5315"/>
<polygon fill="#c0c0c0" stroke="#c0c0c0" stroke-width="2" points="258.8859,-259.6265 266.2436,-252.0032 255.7379,-253.3742 258.8859,-259.6265"/>
</g>
<!-- 7 -->
<g id="node8" class="node">
<title>7</title>
<path fill="none" stroke="#d8b456" stroke-width="2" d="M195.6427,-252C195.6427,-252 122.3573,-252 122.3573,-252 116.3573,-252 110.3573,-246 110.3573,-240 110.3573,-240 110.3573,-228 110.3573,-228 110.3573,-222 116.3573,-216 122.3573,-216 122.3573,-216 195.6427,-216 195.6427,-216 201.6427,-216 207.6427,-222 207.6427,-228 207.6427,-228 207.6427,-240 207.6427,-240 207.6427,-246 201.6427,-252 195.6427,-252"/>
<text text-anchor="middle" x="159" y="-231" font-family="sans" font-size="10.00" fill="#000000">RefSampleNames</text>
</g>
<!-- 6&#45;&gt;7 -->
<g id="edge13" class="edge">
<title>6&#45;&gt;7</title>
<path fill="none" stroke="#c0c0c0" stroke-width="2" d="M159,-287.8314C159,-280.131 159,-270.9743 159,-262.4166"/>
<polygon fill="#c0c0c0" stroke="#c0c0c0" stroke-width="2" points="162.5001,-262.4132 159,-252.4133 155.5001,-262.4133 162.5001,-262.4132"/>
</g>
<!-- 7&#45;&gt;5 -->
<g id="edge11" class="edge">
<title>7&#45;&gt;5</title>
<path fill="none" stroke="#c0c0c0" stroke-width="2" d="M159,-215.8314C159,-208.131 159,-198.9743 159,-190.4166"/>
<polygon fill="#c0c0c0" stroke="#c0c0c0" stroke-width="2" points="162.5001,-190.4132 159,-180.4133 155.5001,-190.4133 162.5001,-190.4132"/>
</g>
<!-- 8 -->
<g id="node9" class="node">
<title>8</title>
<path fill="none" stroke="#d87556" stroke-width="2" d="M198.2045,-396C198.2045,-396 119.7955,-396 119.7955,-396 113.7955,-396 107.7955,-390 107.7955,-384 107.7955,-384 107.7955,-372 107.7955,-372 107.7955,-366 113.7955,-360 119.7955,-360 119.7955,-360 198.2045,-360 198.2045,-360 204.2045,-360 210.2045,-366 210.2045,-372 210.2045,-372 210.2045,-384 210.2045,-384 210.2045,-390 204.2045,-396 198.2045,-396"/>
<text text-anchor="middle" x="159" y="-375" font-family="sans" font-size="10.00" fill="#000000">RemoveLowQuality</text>
</g>
<!-- 8&#45;&gt;6 -->
<g id="edge12" class="edge">
<title>8&#45;&gt;6</title>
<path fill="none" stroke="#c0c0c0" stroke-width="2" d="M159,-359.8314C159,-352.131 159,-342.9743 159,-334.4166"/>
<polygon fill="#c0c0c0" stroke="#c0c0c0" stroke-width="2" points="162.5001,-334.4132 159,-324.4133 155.5001,-334.4133 162.5001,-334.4132"/>
</g>
<!-- 9 -->
<g id="node10" class="node">
<title>9</title>
<path fill="none" stroke="#56d87b" stroke-width="2" stroke-dasharray="5,2" d="M159.5079,-684C159.5079,-684 68.4921,-684 68.4921,-684 62.4921,-684 56.4921,-678 56.4921,-672 56.4921,-672 56.4921,-660 56.4921,-660 56.4921,-654 62.4921,-648 68.4921,-648 68.4921,-648 159.5079,-648 159.5079,-648 165.5079,-648 171.5079,-654 171.5079,-660 171.5079,-660 171.5079,-672 171.5079,-672 171.5079,-678 165.5079,-684 159.5079,-684"/>
<text text-anchor="middle" x="114" y="-663" font-family="sans" font-size="10.00" fill="#000000">LowQualitySequences</text>
</g>
<!-- 9&#45;&gt;8 -->
<g id="edge14" class="edge">
<title>9&#45;&gt;8</title>
<path fill="none" stroke="#c0c0c0" stroke-width="2" d="M116.815,-647.9843C124.4228,-599.2939 145.4381,-464.7961 154.616,-406.0573"/>
<polygon fill="#c0c0c0" stroke="#c0c0c0" stroke-width="2" points="158.1003,-406.4294 156.1861,-396.0089 151.1842,-405.3487 158.1003,-406.4294"/>
</g>
<!-- 10 -->
<g id="node11" class="node">
<title>10</title>
<path fill="none" stroke="#56b9d8" stroke-width="2" d="M231.5821,-468C231.5821,-468 174.4179,-468 174.4179,-468 168.4179,-468 162.4179,-462 162.4179,-456 162.4179,-456 162.4179,-444 162.4179,-444 162.4179,-438 168.4179,-432 174.4179,-432 174.4179,-432 231.5821,-432 231.5821,-432 237.5821,-432 243.5821,-438 243.5821,-444 243.5821,-444 243.5821,-456 243.5821,-456 243.5821,-462 237.5821,-468 231.5821,-468"/>
<text text-anchor="middle" x="203" y="-447" font-family="sans" font-size="10.00" fill="#000000">RemovePartial</text>
</g>
<!-- 10&#45;&gt;8 -->
<g id="edge15" class="edge">
<title>10&#45;&gt;8</title>
<path fill="none" stroke="#c0c0c0" stroke-width="2" d="M191.8969,-431.8314C186.9326,-423.7079 180.9778,-413.9637 175.5072,-405.0118"/>
<polygon fill="#c0c0c0" stroke="#c0c0c0" stroke-width="2" points="178.4536,-403.121 170.2526,-396.4133 172.4806,-406.7712 178.4536,-403.121"/>
</g>
<!-- 11 -->
<g id="node12" class="node">
<title>11</title>
<path fill="none" stroke="#59d856" stroke-width="2" stroke-dasharray="5,2" d="M206.3796,-828C206.3796,-828 125.6204,-828 125.6204,-828 119.6204,-828 113.6204,-822 113.6204,-816 113.6204,-816 113.6204,-804 113.6204,-804 113.6204,-798 119.6204,-792 125.6204,-792 125.6204,-792 206.3796,-792 206.3796,-792 212.3796,-792 218.3796,-798 218.3796,-804 218.3796,-804 218.3796,-816 218.3796,-816 218.3796,-822 212.3796,-828 206.3796,-828"/>
<text text-anchor="middle" x="166" y="-807" font-family="sans" font-size="10.00" fill="#000000">ambiguous2missing</text>
</g>
<!-- 11&#45;&gt;9 -->
<g id="edge16" class="edge">
<title>11&#45;&gt;9</title>
<path fill="none" stroke="#c0c0c0" stroke-width="2" d="M159.4142,-791.7623C150.4667,-766.9846 134.3924,-722.4714 123.9645,-693.5939"/>
<polygon fill="#c0c0c0" stroke="#c0c0c0" stroke-width="2" points="127.2208,-692.3064 120.5324,-684.0896 120.6369,-694.6839 127.2208,-692.3064"/>
</g>
<!-- 15 -->
<g id="node16" class="node">
<title>15</title>
<path fill="none" stroke="#97d856" stroke-width="2" stroke-dasharray="5,2" d="M222.0195,-756C222.0195,-756 189.9805,-756 189.9805,-756 183.9805,-756 177.9805,-750 177.9805,-744 177.9805,-744 177.9805,-732 177.9805,-732 177.9805,-726 183.9805,-720 189.9805,-720 189.9805,-720 222.0195,-720 222.0195,-720 228.0195,-720 234.0195,-726 234.0195,-732 234.0195,-732 234.0195,-744 234.0195,-744 234.0195,-750 228.0195,-756 222.0195,-756"/>
<text text-anchor="middle" x="206" y="-735" font-family="sans" font-size="10.00" fill="#000000">fasta2vcf</text>
</g>
<!-- 11&#45;&gt;15 -->
<g id="edge21" class="edge">
<title>11&#45;&gt;15</title>
<path fill="none" stroke="#c0c0c0" stroke-width="2" d="M176.0937,-791.8314C180.5597,-783.7925 185.9075,-774.1666 190.8379,-765.2918"/>
<polygon fill="#c0c0c0" stroke="#c0c0c0" stroke-width="2" points="193.9735,-766.8546 195.7704,-756.4133 187.8544,-763.4551 193.9735,-766.8546"/>
</g>
<!-- 12 -->
<g id="node13" class="node">
<title>12</title>
<path fill="none" stroke="#d85656" stroke-width="2" d="M254.7191,-540C254.7191,-540 171.2809,-540 171.2809,-540 165.2809,-540 159.2809,-534 159.2809,-528 159.2809,-528 159.2809,-516 159.2809,-516 159.2809,-510 165.2809,-504 171.2809,-504 171.2809,-504 254.7191,-504 254.7191,-504 260.7191,-504 266.7191,-510 266.7191,-516 266.7191,-516 266.7191,-528 266.7191,-528 266.7191,-534 260.7191,-540 254.7191,-540"/>
<text text-anchor="middle" x="213" y="-519" font-family="sans" font-size="10.00" fill="#000000">RemoveNonSapiens</text>
</g>
<!-- 12&#45;&gt;10 -->
<g id="edge17" class="edge">
<title>12&#45;&gt;10</title>
<path fill="none" stroke="#c0c0c0" stroke-width="2" d="M210.4766,-503.8314C209.4071,-496.131 208.1353,-486.9743 206.9468,-478.4166"/>
<polygon fill="#c0c0c0" stroke="#c0c0c0" stroke-width="2" points="210.3999,-477.8367 205.5574,-468.4133 203.4664,-478.7997 210.3999,-477.8367"/>
</g>
<!-- 13 -->
<g id="node14" class="node">
<title>13</title>
<path fill="none" stroke="#56d8d8" stroke-width="2" d="M249.5917,-612C249.5917,-612 182.4083,-612 182.4083,-612 176.4083,-612 170.4083,-606 170.4083,-600 170.4083,-600 170.4083,-588 170.4083,-588 170.4083,-582 176.4083,-576 182.4083,-576 182.4083,-576 249.5917,-576 249.5917,-576 255.5917,-576 261.5917,-582 261.5917,-588 261.5917,-588 261.5917,-600 261.5917,-600 261.5917,-606 255.5917,-612 249.5917,-612"/>
<text text-anchor="middle" x="216" y="-591" font-family="sans" font-size="10.00" fill="#000000">RemoveAncients</text>
</g>
<!-- 13&#45;&gt;12 -->
<g id="edge18" class="edge">
<title>13&#45;&gt;12</title>
<path fill="none" stroke="#c0c0c0" stroke-width="2" d="M215.243,-575.8314C214.9221,-568.131 214.5406,-558.9743 214.184,-550.4166"/>
<polygon fill="#c0c0c0" stroke="#c0c0c0" stroke-width="2" points="217.6806,-550.2589 213.7672,-540.4133 210.6867,-550.5503 217.6806,-550.2589"/>
</g>
<!-- 14 -->
<g id="node15" class="node">
<title>14</title>
<path fill="none" stroke="#569ad8" stroke-width="2" d="M236.2933,-684C236.2933,-684 201.7067,-684 201.7067,-684 195.7067,-684 189.7067,-678 189.7067,-672 189.7067,-672 189.7067,-660 189.7067,-660 189.7067,-654 195.7067,-648 201.7067,-648 201.7067,-648 236.2933,-648 236.2933,-648 242.2933,-648 248.2933,-654 248.2933,-660 248.2933,-660 248.2933,-672 248.2933,-672 248.2933,-678 242.2933,-684 236.2933,-684"/>
<text text-anchor="middle" x="219" y="-663" font-family="sans" font-size="10.00" fill="#000000">VcfCheck</text>
</g>
<!-- 14&#45;&gt;13 -->
<g id="edge19" class="edge">
<title>14&#45;&gt;13</title>
<path fill="none" stroke="#c0c0c0" stroke-width="2" d="M218.243,-647.8314C217.9221,-640.131 217.5406,-630.9743 217.184,-622.4166"/>
<polygon fill="#c0c0c0" stroke="#c0c0c0" stroke-width="2" points="220.6806,-622.2589 216.7672,-612.4133 213.6867,-622.5503 220.6806,-622.2589"/>
</g>
<!-- 15&#45;&gt;14 -->
<g id="edge20" class="edge">
<title>15&#45;&gt;14</title>
<path fill="none" stroke="#c0c0c0" stroke-width="2" d="M209.2804,-719.8314C210.6708,-712.131 212.3241,-702.9743 213.8692,-694.4166"/>
<polygon fill="#c0c0c0" stroke="#c0c0c0" stroke-width="2" points="217.3428,-694.8761 215.6754,-684.4133 210.4542,-693.6322 217.3428,-694.8761"/>
</g>
</g>
</svg>
