<?xml version="1.0" encoding="UTF-8" standalone="no"?>
<!DOCTYPE svg PUBLIC "-//W3C//DTD SVG 1.1//EN"
 "http://www.w3.org/Graphics/SVG/1.1/DTD/svg11.dtd">
<!-- Generated by graphviz version 2.40.1 (20161225.0304)
 -->
<!-- Title: snakemake_dag Pages: 1 -->
<svg width="242pt" height="620pt"
 viewBox="0.00 0.00 242.32 620.00" xmlns="http://www.w3.org/2000/svg" xmlns:xlink="http://www.w3.org/1999/xlink">
<g id="graph0" class="graph" transform="scale(1 1) rotate(0) translate(4 616)">
<title>snakemake_dag</title>
<polygon fill="#ffffff" stroke="transparent" points="-4,4 -4,-616 238.3247,-616 238.3247,4 -4,4"/>
<!-- 0 -->
<g id="node1" class="node">
<title>0</title>
<path fill="none" stroke="#56d8c9" stroke-width="2" d="M95.7534,-36C95.7534,-36 65.7534,-36 65.7534,-36 59.7534,-36 53.7534,-30 53.7534,-24 53.7534,-24 53.7534,-12 53.7534,-12 53.7534,-6 59.7534,0 65.7534,0 65.7534,0 95.7534,0 95.7534,0 101.7534,0 107.7534,-6 107.7534,-12 107.7534,-12 107.7534,-24 107.7534,-24 107.7534,-30 101.7534,-36 95.7534,-36"/>
<text text-anchor="middle" x="80.7534" y="-15" font-family="sans" font-size="10.00" fill="#000000">all</text>
</g>
<!-- 1 -->
<g id="node2" class="node">
<title>1</title>
<path fill="none" stroke="#d8b456" stroke-width="2" d="M68.7534,-180C68.7534,-180 38.7534,-180 38.7534,-180 32.7534,-180 26.7534,-174 26.7534,-168 26.7534,-168 26.7534,-156 26.7534,-156 26.7534,-150 32.7534,-144 38.7534,-144 38.7534,-144 68.7534,-144 68.7534,-144 74.7534,-144 80.7534,-150 80.7534,-156 80.7534,-156 80.7534,-168 80.7534,-168 80.7534,-174 74.7534,-180 68.7534,-180"/>
<text text-anchor="middle" x="53.7534" y="-159" font-family="sans" font-size="10.00" fill="#000000">Plink</text>
</g>
<!-- 1&#45;&gt;0 -->
<g id="edge1" class="edge">
<title>1&#45;&gt;0</title>
<path fill="none" stroke="#c0c0c0" stroke-width="2" d="M57.173,-143.7623C61.7985,-119.0928 70.0922,-74.8598 75.5085,-45.9731"/>
<polygon fill="#c0c0c0" stroke="#c0c0c0" stroke-width="2" points="78.9587,-46.5634 77.3616,-36.0896 72.0786,-45.2733 78.9587,-46.5634"/>
</g>
<!-- 2 -->
<g id="node3" class="node">
<title>2</title>
<path fill="none" stroke="#70d856" stroke-width="2" stroke-dasharray="5,2" d="M123.7534,-108C123.7534,-108 93.7534,-108 93.7534,-108 87.7534,-108 81.7534,-102 81.7534,-96 81.7534,-96 81.7534,-84 81.7534,-84 81.7534,-78 87.7534,-72 93.7534,-72 93.7534,-72 123.7534,-72 123.7534,-72 129.7534,-72 135.7534,-78 135.7534,-84 135.7534,-84 135.7534,-96 135.7534,-96 135.7534,-102 129.7534,-108 123.7534,-108"/>
<text text-anchor="middle" x="108.7534" y="-87" font-family="sans" font-size="10.00" fill="#000000">Oxford</text>
</g>
<!-- 2&#45;&gt;0 -->
<g id="edge2" class="edge">
<title>2&#45;&gt;0</title>
<path fill="none" stroke="#c0c0c0" stroke-width="2" d="M101.6878,-71.8314C98.6274,-63.9617 94.9755,-54.5712 91.5852,-45.8533"/>
<polygon fill="#c0c0c0" stroke="#c0c0c0" stroke-width="2" points="94.8007,-44.4647 87.9141,-36.4133 88.2766,-47.0019 94.8007,-44.4647"/>
</g>
<!-- 3 -->
<g id="node4" class="node">
<title>3</title>
<path fill="none" stroke="#56d89a" stroke-width="2" stroke-dasharray="5,2" d="M132.3308,-324C132.3308,-324 85.176,-324 85.176,-324 79.176,-324 73.176,-318 73.176,-312 73.176,-312 73.176,-300 73.176,-300 73.176,-294 79.176,-288 85.176,-288 85.176,-288 132.3308,-288 132.3308,-288 138.3308,-288 144.3308,-294 144.3308,-300 144.3308,-300 144.3308,-312 144.3308,-312 144.3308,-318 138.3308,-324 132.3308,-324"/>
<text text-anchor="middle" x="108.7534" y="-303" font-family="sans" font-size="10.00" fill="#000000">SiteFiltration</text>
</g>
<!-- 3&#45;&gt;1 -->
<g id="edge3" class="edge">
<title>3&#45;&gt;1</title>
<path fill="none" stroke="#c0c0c0" stroke-width="2" d="M101.7876,-287.7623C92.3239,-262.9846 75.3223,-218.4714 64.2927,-189.5939"/>
<polygon fill="#c0c0c0" stroke="#c0c0c0" stroke-width="2" points="67.5004,-188.1826 60.6626,-180.0896 60.9611,-190.6803 67.5004,-188.1826"/>
</g>
<!-- 3&#45;&gt;2 -->
<g id="edge5" class="edge">
<title>3&#45;&gt;2</title>
<path fill="none" stroke="#c0c0c0" stroke-width="2" d="M108.7534,-287.9555C108.7534,-250.3938 108.7534,-163.5541 108.7534,-118.4103"/>
<polygon fill="#c0c0c0" stroke="#c0c0c0" stroke-width="2" points="112.2535,-118.145 108.7534,-108.1451 105.2535,-118.1451 112.2535,-118.145"/>
</g>
<!-- 6 -->
<g id="node7" class="node">
<title>6</title>
<path fill="none" stroke="#9fd856" stroke-width="2" stroke-dasharray="5,2" d="M222.3961,-252C222.3961,-252 149.1107,-252 149.1107,-252 143.1107,-252 137.1107,-246 137.1107,-240 137.1107,-240 137.1107,-228 137.1107,-228 137.1107,-222 143.1107,-216 149.1107,-216 149.1107,-216 222.3961,-216 222.3961,-216 228.3961,-216 234.3961,-222 234.3961,-228 234.3961,-228 234.3961,-240 234.3961,-240 234.3961,-246 228.3961,-252 222.3961,-252"/>
<text text-anchor="middle" x="185.7534" y="-231" font-family="sans" font-size="10.00" fill="#000000">RefSampleNames</text>
</g>
<!-- 3&#45;&gt;6 -->
<g id="edge10" class="edge">
<title>3&#45;&gt;6</title>
<path fill="none" stroke="#c0c0c0" stroke-width="2" d="M128.1838,-287.8314C137.4854,-279.1337 148.7738,-268.5783 158.882,-259.1265"/>
<polygon fill="#c0c0c0" stroke="#c0c0c0" stroke-width="2" points="161.4155,-261.5493 166.3293,-252.1628 156.6345,-256.4363 161.4155,-261.5493"/>
</g>
<!-- 4 -->
<g id="node5" class="node">
<title>4</title>
<path fill="none" stroke="#d85656" stroke-width="2" stroke-dasharray="5,2" d="M210.9532,-180C210.9532,-180 152.5537,-180 152.5537,-180 146.5537,-180 140.5537,-174 140.5537,-168 140.5537,-168 140.5537,-156 140.5537,-156 140.5537,-150 146.5537,-144 152.5537,-144 152.5537,-144 210.9532,-144 210.9532,-144 216.9532,-144 222.9532,-150 222.9532,-156 222.9532,-156 222.9532,-168 222.9532,-168 222.9532,-174 216.9532,-180 210.9532,-180"/>
<text text-anchor="middle" x="181.7534" y="-159" font-family="sans" font-size="10.00" fill="#000000">RefSampleSex</text>
</g>
<!-- 4&#45;&gt;2 -->
<g id="edge4" class="edge">
<title>4&#45;&gt;2</title>
<path fill="none" stroke="#c0c0c0" stroke-width="2" d="M163.3324,-143.8314C154.6005,-135.219 144.0217,-124.7851 134.5111,-115.4048"/>
<polygon fill="#c0c0c0" stroke="#c0c0c0" stroke-width="2" points="136.746,-112.6931 127.1685,-108.1628 131.8304,-117.6769 136.746,-112.6931"/>
</g>
<!-- 5 -->
<g id="node6" class="node">
<title>5</title>
<path fill="none" stroke="#5682d8" stroke-width="2" stroke-dasharray="5,2" d="M147.9579,-396C147.9579,-396 69.5489,-396 69.5489,-396 63.5489,-396 57.5489,-390 57.5489,-384 57.5489,-384 57.5489,-372 57.5489,-372 57.5489,-366 63.5489,-360 69.5489,-360 69.5489,-360 147.9579,-360 147.9579,-360 153.9579,-360 159.9579,-366 159.9579,-372 159.9579,-372 159.9579,-384 159.9579,-384 159.9579,-390 153.9579,-396 147.9579,-396"/>
<text text-anchor="middle" x="108.7534" y="-375" font-family="sans" font-size="10.00" fill="#000000">RemoveLowQuality</text>
</g>
<!-- 5&#45;&gt;3 -->
<g id="edge6" class="edge">
<title>5&#45;&gt;3</title>
<path fill="none" stroke="#c0c0c0" stroke-width="2" d="M108.7534,-359.8314C108.7534,-352.131 108.7534,-342.9743 108.7534,-334.4166"/>
<polygon fill="#c0c0c0" stroke="#c0c0c0" stroke-width="2" points="112.2535,-334.4132 108.7534,-324.4133 105.2535,-334.4133 112.2535,-334.4132"/>
</g>
<!-- 6&#45;&gt;4 -->
<g id="edge7" class="edge">
<title>6&#45;&gt;4</title>
<path fill="none" stroke="#c0c0c0" stroke-width="2" d="M184.744,-215.8314C184.3162,-208.131 183.8075,-198.9743 183.3321,-190.4166"/>
<polygon fill="#c0c0c0" stroke="#c0c0c0" stroke-width="2" points="186.8258,-190.2037 182.7764,-180.4133 179.8366,-190.592 186.8258,-190.2037"/>
</g>
<!-- 7 -->
<g id="node8" class="node">
<title>7</title>
<path fill="none" stroke="#d88556" stroke-width="2" stroke-dasharray="5,2" d="M175.7534,-468C175.7534,-468 145.7534,-468 145.7534,-468 139.7534,-468 133.7534,-462 133.7534,-456 133.7534,-456 133.7534,-444 133.7534,-444 133.7534,-438 139.7534,-432 145.7534,-432 145.7534,-432 175.7534,-432 175.7534,-432 181.7534,-432 187.7534,-438 187.7534,-444 187.7534,-444 187.7534,-456 187.7534,-456 187.7534,-462 181.7534,-468 175.7534,-468"/>
<text text-anchor="middle" x="160.7534" y="-447" font-family="sans" font-size="10.00" fill="#000000">bcf</text>
</g>
<!-- 7&#45;&gt;5 -->
<g id="edge8" class="edge">
<title>7&#45;&gt;5</title>
<path fill="none" stroke="#c0c0c0" stroke-width="2" d="M147.6316,-431.8314C141.7035,-423.6232 134.5805,-413.7606 128.0601,-404.7323"/>
<polygon fill="#c0c0c0" stroke="#c0c0c0" stroke-width="2" points="130.7442,-402.4708 122.0519,-396.4133 125.0695,-406.5693 130.7442,-402.4708"/>
</g>
<!-- 8 -->
<g id="node9" class="node">
<title>8</title>
<path fill="none" stroke="#56d86b" stroke-width="2" stroke-dasharray="5,2" d="M103.2613,-468C103.2613,-468 12.2455,-468 12.2455,-468 6.2455,-468 .2455,-462 .2455,-456 .2455,-456 .2455,-444 .2455,-444 .2455,-438 6.2455,-432 12.2455,-432 12.2455,-432 103.2613,-432 103.2613,-432 109.2613,-432 115.2613,-438 115.2613,-444 115.2613,-444 115.2613,-456 115.2613,-456 115.2613,-462 109.2613,-468 103.2613,-468"/>
<text text-anchor="middle" x="57.7534" y="-447" font-family="sans" font-size="10.00" fill="#000000">LowQualitySequences</text>
</g>
<!-- 8&#45;&gt;5 -->
<g id="edge9" class="edge">
<title>8&#45;&gt;5</title>
<path fill="none" stroke="#c0c0c0" stroke-width="2" d="M70.6229,-431.8314C76.437,-423.6232 83.423,-413.7606 89.818,-404.7323"/>
<polygon fill="#c0c0c0" stroke="#c0c0c0" stroke-width="2" points="92.7866,-406.5966 95.7107,-396.4133 87.0744,-402.5505 92.7866,-406.5966"/>
</g>
<!-- 9 -->
<g id="node10" class="node">
<title>9</title>
<path fill="none" stroke="#ced856" stroke-width="2" stroke-dasharray="5,2" d="M164.773,-540C164.773,-540 132.7339,-540 132.7339,-540 126.7339,-540 120.7339,-534 120.7339,-528 120.7339,-528 120.7339,-516 120.7339,-516 120.7339,-510 126.7339,-504 132.7339,-504 132.7339,-504 164.773,-504 164.773,-504 170.773,-504 176.773,-510 176.773,-516 176.773,-516 176.773,-528 176.773,-528 176.773,-534 170.773,-540 164.773,-540"/>
<text text-anchor="middle" x="148.7534" y="-519" font-family="sans" font-size="10.00" fill="#000000">fasta2vcf</text>
</g>
<!-- 9&#45;&gt;7 -->
<g id="edge11" class="edge">
<title>9&#45;&gt;7</title>
<path fill="none" stroke="#c0c0c0" stroke-width="2" d="M151.7815,-503.8314C153.0649,-496.131 154.591,-486.9743 156.0173,-478.4166"/>
<polygon fill="#c0c0c0" stroke="#c0c0c0" stroke-width="2" points="159.4928,-478.8526 157.6845,-468.4133 152.5881,-477.7018 159.4928,-478.8526"/>
</g>
<!-- 10 -->
<g id="node11" class="node">
<title>10</title>
<path fill="none" stroke="#56b1d8" stroke-width="2" stroke-dasharray="5,2" d="M149.133,-612C149.133,-612 68.3738,-612 68.3738,-612 62.3738,-612 56.3738,-606 56.3738,-600 56.3738,-600 56.3738,-588 56.3738,-588 56.3738,-582 62.3738,-576 68.3738,-576 68.3738,-576 149.133,-576 149.133,-576 155.133,-576 161.133,-582 161.133,-588 161.133,-588 161.133,-600 161.133,-600 161.133,-606 155.133,-612 149.133,-612"/>
<text text-anchor="middle" x="108.7534" y="-591" font-family="sans" font-size="10.00" fill="#000000">ambiguous2missing</text>
</g>
<!-- 10&#45;&gt;8 -->
<g id="edge12" class="edge">
<title>10&#45;&gt;8</title>
<path fill="none" stroke="#c0c0c0" stroke-width="2" d="M102.2942,-575.7623C93.5188,-550.9846 77.7537,-506.4714 67.5263,-477.5939"/>
<polygon fill="#c0c0c0" stroke="#c0c0c0" stroke-width="2" points="70.7979,-476.3474 64.1602,-468.0896 64.1995,-478.6844 70.7979,-476.3474"/>
</g>
<!-- 10&#45;&gt;9 -->
<g id="edge13" class="edge">
<title>10&#45;&gt;9</title>
<path fill="none" stroke="#c0c0c0" stroke-width="2" d="M118.8471,-575.8314C123.3132,-567.7925 128.6609,-558.1666 133.5913,-549.2918"/>
<polygon fill="#c0c0c0" stroke="#c0c0c0" stroke-width="2" points="136.7269,-550.8546 138.5238,-540.4133 130.6078,-547.4551 136.7269,-550.8546"/>
</g>
</g>
</svg>
