<?xml version="1.0" encoding="UTF-8" standalone="no"?>
<!DOCTYPE svg PUBLIC "-//W3C//DTD SVG 1.1//EN"
 "http://www.w3.org/Graphics/SVG/1.1/DTD/svg11.dtd">
<!-- Generated by graphviz version 2.40.1 (20161225.0304)
 -->
<!-- Title: snakemake_dag Pages: 1 -->
<svg width="952pt" height="764pt"
 viewBox="0.00 0.00 951.78 764.00" xmlns="http://www.w3.org/2000/svg" xmlns:xlink="http://www.w3.org/1999/xlink">
<g id="graph0" class="graph" transform="scale(1 1) rotate(0) translate(4 760)">
<title>snakemake_dag</title>
<polygon fill="#ffffff" stroke="transparent" points="-4,4 -4,-760 947.7819,-760 947.7819,4 -4,4"/>
<!-- 0 -->
<g id="node1" class="node">
<title>0</title>
<path fill="none" stroke="#d89c56" stroke-width="2" d="M459,-36C459,-36 429,-36 429,-36 423,-36 417,-30 417,-24 417,-24 417,-12 417,-12 417,-6 423,0 429,0 429,0 459,0 459,0 465,0 471,-6 471,-12 471,-12 471,-24 471,-24 471,-30 465,-36 459,-36"/>
<text text-anchor="middle" x="444" y="-15" font-family="sans" font-size="10.00" fill="#000000">all</text>
</g>
<!-- 1 -->
<g id="node2" class="node">
<title>1</title>
<path fill="none" stroke="#56d8d0" stroke-width="2" stroke-dasharray="5,2" d="M269.3917,-540C269.3917,-540 228.6083,-540 228.6083,-540 222.6083,-540 216.6083,-534 216.6083,-528 216.6083,-528 216.6083,-516 216.6083,-516 216.6083,-510 222.6083,-504 228.6083,-504 228.6083,-504 269.3917,-504 269.3917,-504 275.3917,-504 281.3917,-510 281.3917,-516 281.3917,-516 281.3917,-528 281.3917,-528 281.3917,-534 275.3917,-540 269.3917,-540"/>
<text text-anchor="middle" x="249" y="-519" font-family="sans" font-size="10.00" fill="#000000">pickFirstAlt</text>
</g>
<!-- 1&#45;&gt;0 -->
<g id="edge1" class="edge">
<title>1&#45;&gt;0</title>
<path fill="none" stroke="#c0c0c0" stroke-width="2" d="M216.4476,-518.4007C148.9532,-508.945 0,-476.8764 0,-378 0,-378 0,-378 0,-162 0,-115.8034 13.6619,-97.7743 52,-72 109.6026,-33.2744 320.5092,-22.039 406.8109,-19.0239"/>
<polygon fill="#c0c0c0" stroke="#c0c0c0" stroke-width="2" points="407.0606,-22.5176 416.9391,-18.6881 406.8286,-15.5214 407.0606,-22.5176"/>
</g>
<!-- 11 -->
<g id="node12" class="node">
<title>11</title>
<path fill="none" stroke="#d87556" stroke-width="2" stroke-dasharray="5,2" d="M142.8602,-468C142.8602,-468 87.1398,-468 87.1398,-468 81.1398,-468 75.1398,-462 75.1398,-456 75.1398,-456 75.1398,-444 75.1398,-444 75.1398,-438 81.1398,-432 87.1398,-432 87.1398,-432 142.8602,-432 142.8602,-432 148.8602,-432 154.8602,-438 154.8602,-444 154.8602,-444 154.8602,-456 154.8602,-456 154.8602,-462 148.8602,-468 142.8602,-468"/>
<text text-anchor="middle" x="115" y="-447" font-family="sans" font-size="10.00" fill="#000000">wgs_vcf2Plink</text>
</g>
<!-- 1&#45;&gt;11 -->
<g id="edge34" class="edge">
<title>1&#45;&gt;11</title>
<path fill="none" stroke="#c0c0c0" stroke-width="2" d="M216.5623,-504.5708C198.7758,-495.0139 176.5142,-483.0524 157.3695,-472.7657"/>
<polygon fill="#c0c0c0" stroke="#c0c0c0" stroke-width="2" points="159.0039,-469.6707 148.5383,-468.0206 155.6906,-475.8369 159.0039,-469.6707"/>
</g>
<!-- 20 -->
<g id="node21" class="node">
<title>20</title>
<path fill="none" stroke="#56d86b" stroke-width="2" d="M221.7287,-396C221.7287,-396 78.2713,-396 78.2713,-396 72.2713,-396 66.2713,-390 66.2713,-384 66.2713,-384 66.2713,-372 66.2713,-372 66.2713,-366 72.2713,-360 78.2713,-360 78.2713,-360 221.7287,-360 221.7287,-360 227.7287,-360 233.7287,-366 233.7287,-372 233.7287,-372 233.7287,-384 233.7287,-384 233.7287,-390 227.7287,-396 221.7287,-396"/>
<text text-anchor="middle" x="150" y="-380" font-family="sans" font-size="10.00" fill="#000000">ExtractPlatformMTsnps</text>
<text text-anchor="middle" x="150" y="-370" font-family="sans" font-size="10.00" fill="#000000">MtPlatforms: GSA&#45;24v1&#45;0_A2&#45;b37</text>
</g>
<!-- 1&#45;&gt;20 -->
<g id="edge46" class="edge">
<title>1&#45;&gt;20</title>
<path fill="none" stroke="#c0c0c0" stroke-width="2" d="M236.4616,-503.7623C219.2038,-478.66 188.0199,-433.3017 168.1961,-404.4671"/>
<polygon fill="#c0c0c0" stroke="#c0c0c0" stroke-width="2" points="170.9861,-402.3472 162.4366,-396.0896 165.2178,-406.3129 170.9861,-402.3472"/>
</g>
<!-- 22 -->
<g id="node23" class="node">
<title>22</title>
<path fill="none" stroke="#56d86b" stroke-width="2" d="M434.4184,-396C434.4184,-396 263.5816,-396 263.5816,-396 257.5816,-396 251.5816,-390 251.5816,-384 251.5816,-384 251.5816,-372 251.5816,-372 251.5816,-366 257.5816,-360 263.5816,-360 263.5816,-360 434.4184,-360 434.4184,-360 440.4184,-360 446.4184,-366 446.4184,-372 446.4184,-372 446.4184,-384 446.4184,-384 446.4184,-390 440.4184,-396 434.4184,-396"/>
<text text-anchor="middle" x="349" y="-380" font-family="sans" font-size="10.00" fill="#000000">ExtractPlatformMTsnps</text>
<text text-anchor="middle" x="349" y="-370" font-family="sans" font-size="10.00" fill="#000000">MtPlatforms: Human610&#45;Quadv1_B&#45;b37</text>
</g>
<!-- 1&#45;&gt;22 -->
<g id="edge48" class="edge">
<title>1&#45;&gt;22</title>
<path fill="none" stroke="#c0c0c0" stroke-width="2" d="M261.6651,-503.7623C279.0972,-478.66 310.596,-433.3017 330.6201,-404.4671"/>
<polygon fill="#c0c0c0" stroke="#c0c0c0" stroke-width="2" points="333.6086,-406.2997 336.4378,-396.0896 327.859,-402.3069 333.6086,-406.2997"/>
</g>
<!-- 25 -->
<g id="node26" class="node">
<title>25</title>
<path fill="none" stroke="#56d86b" stroke-width="2" d="M783.6026,-396C783.6026,-396 616.3974,-396 616.3974,-396 610.3974,-396 604.3974,-390 604.3974,-384 604.3974,-384 604.3974,-372 604.3974,-372 604.3974,-366 610.3974,-360 616.3974,-360 616.3974,-360 783.6026,-360 783.6026,-360 789.6026,-360 795.6026,-366 795.6026,-372 795.6026,-372 795.6026,-384 795.6026,-384 795.6026,-390 789.6026,-396 783.6026,-396"/>
<text text-anchor="middle" x="700" y="-380" font-family="sans" font-size="10.00" fill="#000000">ExtractPlatformMTsnps</text>
<text text-anchor="middle" x="700" y="-370" font-family="sans" font-size="10.00" fill="#000000">MtPlatforms: NeuroX_15036164_A&#45;b37</text>
</g>
<!-- 1&#45;&gt;25 -->
<g id="edge51" class="edge">
<title>1&#45;&gt;25</title>
<path fill="none" stroke="#c0c0c0" stroke-width="2" d="M281.3948,-518.5488C333.4492,-512.3581 438.4455,-497.198 523,-468 573.1033,-450.6986 626.8727,-421.713 661.8296,-401.3203"/>
<polygon fill="#c0c0c0" stroke="#c0c0c0" stroke-width="2" points="663.8953,-404.1656 670.7343,-396.0737 660.3418,-398.1346 663.8953,-404.1656"/>
</g>
<!-- 27 -->
<g id="node28" class="node">
<title>27</title>
<path fill="none" stroke="#68d856" stroke-width="2" stroke-dasharray="5,2" d="M501.7045,-468C501.7045,-468 428.2955,-468 428.2955,-468 422.2955,-468 416.2955,-462 416.2955,-456 416.2955,-456 416.2955,-444 416.2955,-444 416.2955,-438 422.2955,-432 428.2955,-432 428.2955,-432 501.7045,-432 501.7045,-432 507.7045,-432 513.7045,-438 513.7045,-444 513.7045,-444 513.7045,-456 513.7045,-456 513.7045,-462 507.7045,-468 501.7045,-468"/>
<text text-anchor="middle" x="465" y="-447" font-family="sans" font-size="10.00" fill="#000000">SampleNames1kg</text>
</g>
<!-- 1&#45;&gt;27 -->
<g id="edge53" class="edge">
<title>1&#45;&gt;27</title>
<path fill="none" stroke="#c0c0c0" stroke-width="2" d="M281.8058,-511.0647C314.8414,-500.0529 366.5116,-482.8295 406.5663,-469.4779"/>
<polygon fill="#c0c0c0" stroke="#c0c0c0" stroke-width="2" points="407.8402,-472.7427 416.2203,-466.2599 405.6266,-466.1019 407.8402,-472.7427"/>
</g>
<!-- 2 -->
<g id="node3" class="node">
<title>2</title>
<path fill="none" stroke="#56d88a" stroke-width="2" d="M521,-252C521,-252 491,-252 491,-252 485,-252 479,-246 479,-240 479,-240 479,-228 479,-228 479,-222 485,-216 491,-216 491,-216 521,-216 521,-216 527,-216 533,-222 533,-228 533,-228 533,-240 533,-240 533,-246 527,-252 521,-252"/>
<text text-anchor="middle" x="506" y="-231" font-family="sans" font-size="10.00" fill="#000000">Impute2</text>
</g>
<!-- 2&#45;&gt;0 -->
<g id="edge2" class="edge">
<title>2&#45;&gt;0</title>
<path fill="none" stroke="#c0c0c0" stroke-width="2" d="M499.032,-215.853C489.8835,-191.5596 473.7292,-147.0002 463,-108 457.3609,-87.5023 452.4487,-63.9852 449.0323,-46.1319"/>
<polygon fill="#c0c0c0" stroke="#c0c0c0" stroke-width="2" points="452.4317,-45.2692 447.1525,-36.0834 445.5511,-46.5565 452.4317,-45.2692"/>
</g>
<!-- 7 -->
<g id="node8" class="node">
<title>7</title>
<path fill="none" stroke="#569ad8" stroke-width="2" d="M526.0391,-108C526.0391,-108 483.9609,-108 483.9609,-108 477.9609,-108 471.9609,-102 471.9609,-96 471.9609,-96 471.9609,-84 471.9609,-84 471.9609,-78 477.9609,-72 483.9609,-72 483.9609,-72 526.0391,-72 526.0391,-72 532.0391,-72 538.0391,-78 538.0391,-84 538.0391,-84 538.0391,-96 538.0391,-96 538.0391,-102 532.0391,-108 526.0391,-108"/>
<text text-anchor="middle" x="505" y="-87" font-family="sans" font-size="10.00" fill="#000000">oxford2ped</text>
</g>
<!-- 2&#45;&gt;7 -->
<g id="edge27" class="edge">
<title>2&#45;&gt;7</title>
<path fill="none" stroke="#c0c0c0" stroke-width="2" d="M503.8649,-215.5349C502.7673,-205.117 501.5475,-191.8504 501,-180 500.2616,-164.017 500.4086,-159.9891 501,-144 501.3044,-135.7697 501.8689,-126.8483 502.4799,-118.6727"/>
<polygon fill="#c0c0c0" stroke="#c0c0c0" stroke-width="2" points="505.987,-118.7219 503.2918,-108.4756 499.009,-118.1662 505.987,-118.7219"/>
</g>
<!-- 12 -->
<g id="node13" class="node">
<title>12</title>
<path fill="none" stroke="#ced856" stroke-width="2" d="M606.133,-108C606.133,-108 567.867,-108 567.867,-108 561.867,-108 555.867,-102 555.867,-96 555.867,-96 555.867,-84 555.867,-84 555.867,-78 561.867,-72 567.867,-72 567.867,-72 606.133,-72 606.133,-72 612.133,-72 618.133,-78 618.133,-84 618.133,-84 618.133,-96 618.133,-96 618.133,-102 612.133,-108 606.133,-108"/>
<text text-anchor="middle" x="587" y="-87" font-family="sans" font-size="10.00" fill="#000000">oxford2vcf</text>
</g>
<!-- 2&#45;&gt;12 -->
<g id="edge36" class="edge">
<title>2&#45;&gt;12</title>
<path fill="none" stroke="#c0c0c0" stroke-width="2" d="M533.2955,-227.4609C556.9097,-220.2013 589.6094,-205.9261 605,-180 616.2903,-160.981 610.0455,-136.1276 601.9617,-117.358"/>
<polygon fill="#c0c0c0" stroke="#c0c0c0" stroke-width="2" points="605.0637,-115.7291 597.6498,-108.1604 598.7256,-118.7005 605.0637,-115.7291"/>
</g>
<!-- 23 -->
<g id="node24" class="node">
<title>23</title>
<path fill="none" stroke="#567bd8" stroke-width="2" d="M584.0098,-180C584.0098,-180 521.9902,-180 521.9902,-180 515.9902,-180 509.9902,-174 509.9902,-168 509.9902,-168 509.9902,-156 509.9902,-156 509.9902,-150 515.9902,-144 521.9902,-144 521.9902,-144 584.0098,-144 584.0098,-144 590.0098,-144 596.0098,-150 596.0098,-156 596.0098,-156 596.0098,-168 596.0098,-168 596.0098,-174 590.0098,-180 584.0098,-180"/>
<text text-anchor="middle" x="553" y="-159" font-family="sans" font-size="10.00" fill="#000000">FixChromName</text>
</g>
<!-- 2&#45;&gt;23 -->
<g id="edge49" class="edge">
<title>2&#45;&gt;23</title>
<path fill="none" stroke="#c0c0c0" stroke-width="2" d="M517.8601,-215.8314C523.1629,-207.7079 529.5237,-197.9637 535.3673,-189.0118"/>
<polygon fill="#c0c0c0" stroke="#c0c0c0" stroke-width="2" points="538.4448,-190.7003 540.9802,-180.4133 532.5831,-186.8739 538.4448,-190.7003"/>
</g>
<!-- 3 -->
<g id="node4" class="node">
<title>3</title>
<path fill="none" stroke="#56d88a" stroke-width="2" d="M791,-252C791,-252 761,-252 761,-252 755,-252 749,-246 749,-240 749,-240 749,-228 749,-228 749,-222 755,-216 761,-216 761,-216 791,-216 791,-216 797,-216 803,-222 803,-228 803,-228 803,-240 803,-240 803,-246 797,-252 791,-252"/>
<text text-anchor="middle" x="776" y="-231" font-family="sans" font-size="10.00" fill="#000000">Impute2</text>
</g>
<!-- 3&#45;&gt;0 -->
<g id="edge3" class="edge">
<title>3&#45;&gt;0</title>
<path fill="none" stroke="#c0c0c0" stroke-width="2" d="M774.6232,-215.9467C771.0279,-182.1565 758.2881,-109.4047 714,-72 679.3186,-42.7089 547.4848,-27.1575 481.7428,-21.0811"/>
<polygon fill="#c0c0c0" stroke="#c0c0c0" stroke-width="2" points="481.6787,-17.5614 471.4059,-20.1536 481.0531,-24.5333 481.6787,-17.5614"/>
</g>
<!-- 4 -->
<g id="node5" class="node">
<title>4</title>
<path fill="none" stroke="#ced856" stroke-width="2" d="M816.133,-108C816.133,-108 777.867,-108 777.867,-108 771.867,-108 765.867,-102 765.867,-96 765.867,-96 765.867,-84 765.867,-84 765.867,-78 771.867,-72 777.867,-72 777.867,-72 816.133,-72 816.133,-72 822.133,-72 828.133,-78 828.133,-84 828.133,-84 828.133,-96 828.133,-96 828.133,-102 822.133,-108 816.133,-108"/>
<text text-anchor="middle" x="797" y="-87" font-family="sans" font-size="10.00" fill="#000000">oxford2vcf</text>
</g>
<!-- 3&#45;&gt;4 -->
<g id="edge22" class="edge">
<title>3&#45;&gt;4</title>
<path fill="none" stroke="#c0c0c0" stroke-width="2" d="M778.6597,-215.7623C782.2415,-191.201 788.6514,-147.2474 792.865,-118.3541"/>
<polygon fill="#c0c0c0" stroke="#c0c0c0" stroke-width="2" points="796.3821,-118.4901 794.3619,-108.0896 789.4554,-117.4798 796.3821,-118.4901"/>
</g>
<!-- 8 -->
<g id="node9" class="node">
<title>8</title>
<path fill="none" stroke="#569ad8" stroke-width="2" d="M900.0391,-108C900.0391,-108 857.9609,-108 857.9609,-108 851.9609,-108 845.9609,-102 845.9609,-96 845.9609,-96 845.9609,-84 845.9609,-84 845.9609,-78 851.9609,-72 857.9609,-72 857.9609,-72 900.0391,-72 900.0391,-72 906.0391,-72 912.0391,-78 912.0391,-84 912.0391,-84 912.0391,-96 912.0391,-96 912.0391,-102 906.0391,-108 900.0391,-108"/>
<text text-anchor="middle" x="879" y="-87" font-family="sans" font-size="10.00" fill="#000000">oxford2ped</text>
</g>
<!-- 3&#45;&gt;8 -->
<g id="edge29" class="edge">
<title>3&#45;&gt;8</title>
<path fill="none" stroke="#c0c0c0" stroke-width="2" d="M803.0686,-230.6886C832.3975,-225.496 877.8309,-212.4132 899,-180 911.2793,-161.1985 904.0928,-135.974 895.0884,-117.0134"/>
<polygon fill="#c0c0c0" stroke="#c0c0c0" stroke-width="2" points="898.1396,-115.2933 890.4539,-108.0008 891.9144,-118.4945 898.1396,-115.2933"/>
</g>
<!-- 19 -->
<g id="node20" class="node">
<title>19</title>
<path fill="none" stroke="#567bd8" stroke-width="2" d="M878.0098,-180C878.0098,-180 815.9902,-180 815.9902,-180 809.9902,-180 803.9902,-174 803.9902,-168 803.9902,-168 803.9902,-156 803.9902,-156 803.9902,-150 809.9902,-144 815.9902,-144 815.9902,-144 878.0098,-144 878.0098,-144 884.0098,-144 890.0098,-150 890.0098,-156 890.0098,-156 890.0098,-168 890.0098,-168 890.0098,-174 884.0098,-180 878.0098,-180"/>
<text text-anchor="middle" x="847" y="-159" font-family="sans" font-size="10.00" fill="#000000">FixChromName</text>
</g>
<!-- 3&#45;&gt;19 -->
<g id="edge45" class="edge">
<title>3&#45;&gt;19</title>
<path fill="none" stroke="#c0c0c0" stroke-width="2" d="M793.9163,-215.8314C802.3442,-207.2848 812.541,-196.9443 821.736,-187.6198"/>
<polygon fill="#c0c0c0" stroke="#c0c0c0" stroke-width="2" points="824.3131,-189.9912 828.8425,-180.4133 819.3289,-185.0761 824.3131,-189.9912"/>
</g>
<!-- 4&#45;&gt;0 -->
<g id="edge4" class="edge">
<title>4&#45;&gt;0</title>
<path fill="none" stroke="#c0c0c0" stroke-width="2" d="M765.8169,-76.5669C761.2351,-74.875 756.5324,-73.2888 752,-72 656.3872,-44.8129 539.9816,-28.8916 481.4407,-22.0287"/>
<polygon fill="#c0c0c0" stroke="#c0c0c0" stroke-width="2" points="481.5356,-18.5166 471.2013,-20.852 480.7363,-25.4709 481.5356,-18.5166"/>
</g>
<!-- 5 -->
<g id="node6" class="node">
<title>5</title>
<path fill="none" stroke="#d8bc56" stroke-width="2" d="M138.0147,-252C138.0147,-252 105.9853,-252 105.9853,-252 99.9853,-252 93.9853,-246 93.9853,-240 93.9853,-240 93.9853,-228 93.9853,-228 93.9853,-222 99.9853,-216 105.9853,-216 105.9853,-216 138.0147,-216 138.0147,-216 144.0147,-216 150.0147,-222 150.0147,-228 150.0147,-228 150.0147,-240 150.0147,-240 150.0147,-246 144.0147,-252 138.0147,-252"/>
<text text-anchor="middle" x="122" y="-231" font-family="sans" font-size="10.00" fill="#000000">vcf2Plink</text>
</g>
<!-- 5&#45;&gt;0 -->
<g id="edge5" class="edge">
<title>5&#45;&gt;0</title>
<path fill="none" stroke="#c0c0c0" stroke-width="2" d="M110.2492,-215.8241C104.4142,-205.7142 97.9861,-192.6495 95,-180 91.324,-164.428 90.2183,-159.2688 95,-144 106.6432,-106.8212 112.2263,-93.0644 145,-72 187.8409,-44.4652 336.1551,-27.7464 406.4645,-21.1921"/>
<polygon fill="#c0c0c0" stroke="#c0c0c0" stroke-width="2" points="407.0102,-24.6569 416.6509,-20.2629 406.3742,-17.6858 407.0102,-24.6569"/>
</g>
<!-- 6 -->
<g id="node7" class="node">
<title>6</title>
<path fill="none" stroke="#d85656" stroke-width="2" d="M535.7612,-324C535.7612,-324 476.2388,-324 476.2388,-324 470.2388,-324 464.2388,-318 464.2388,-312 464.2388,-312 464.2388,-300 464.2388,-300 464.2388,-294 470.2388,-288 476.2388,-288 476.2388,-288 535.7612,-288 535.7612,-288 541.7612,-288 547.7612,-294 547.7612,-300 547.7612,-300 547.7612,-312 547.7612,-312 547.7612,-318 541.7612,-324 535.7612,-324"/>
<text text-anchor="middle" x="506" y="-303" font-family="sans" font-size="10.00" fill="#000000">vcf2gensample</text>
</g>
<!-- 6&#45;&gt;0 -->
<g id="edge6" class="edge">
<title>6&#45;&gt;0</title>
<path fill="none" stroke="#c0c0c0" stroke-width="2" d="M528.699,-287.8241C577.1079,-246.8744 681.7668,-145.2621 627,-72 609.5387,-48.6418 529.5228,-31.8691 481.2647,-23.6731"/>
<polygon fill="#c0c0c0" stroke="#c0c0c0" stroke-width="2" points="481.629,-20.1859 471.192,-22.0083 480.4874,-27.0922 481.629,-20.1859"/>
</g>
<!-- 6&#45;&gt;2 -->
<g id="edge19" class="edge">
<title>6&#45;&gt;2</title>
<path fill="none" stroke="#c0c0c0" stroke-width="2" d="M506,-287.8314C506,-280.131 506,-270.9743 506,-262.4166"/>
<polygon fill="#c0c0c0" stroke="#c0c0c0" stroke-width="2" points="509.5001,-262.4132 506,-252.4133 502.5001,-262.4133 509.5001,-262.4132"/>
</g>
<!-- 7&#45;&gt;0 -->
<g id="edge7" class="edge">
<title>7&#45;&gt;0</title>
<path fill="none" stroke="#c0c0c0" stroke-width="2" d="M489.6071,-71.8314C482.5096,-63.454 473.952,-53.3531 466.176,-44.1749"/>
<polygon fill="#c0c0c0" stroke="#c0c0c0" stroke-width="2" points="468.7348,-41.7807 459.6001,-36.4133 463.3939,-46.3056 468.7348,-41.7807"/>
</g>
<!-- 8&#45;&gt;0 -->
<g id="edge8" class="edge">
<title>8&#45;&gt;0</title>
<path fill="none" stroke="#c0c0c0" stroke-width="2" d="M845.8208,-74.8259C842.8726,-73.7696 839.9048,-72.8062 837,-72 709.4945,-36.6129 552.006,-23.926 481.365,-19.7983"/>
<polygon fill="#c0c0c0" stroke="#c0c0c0" stroke-width="2" points="481.3685,-16.2931 471.1884,-19.2284 480.9771,-23.2822 481.3685,-16.2931"/>
</g>
<!-- 9 -->
<g id="node10" class="node">
<title>9</title>
<path fill="none" stroke="#ced856" stroke-width="2" d="M282.133,-108C282.133,-108 243.867,-108 243.867,-108 237.867,-108 231.867,-102 231.867,-96 231.867,-96 231.867,-84 231.867,-84 231.867,-78 237.867,-72 243.867,-72 243.867,-72 282.133,-72 282.133,-72 288.133,-72 294.133,-78 294.133,-84 294.133,-84 294.133,-96 294.133,-96 294.133,-102 288.133,-108 282.133,-108"/>
<text text-anchor="middle" x="263" y="-87" font-family="sans" font-size="10.00" fill="#000000">oxford2vcf</text>
</g>
<!-- 9&#45;&gt;0 -->
<g id="edge9" class="edge">
<title>9&#45;&gt;0</title>
<path fill="none" stroke="#c0c0c0" stroke-width="2" d="M294.3691,-75.6802C297.2776,-74.4141 300.1877,-73.1702 303,-72 338.0714,-57.4071 378.6185,-42.0319 407.2039,-31.4361"/>
<polygon fill="#c0c0c0" stroke="#c0c0c0" stroke-width="2" points="408.6193,-34.6445 416.7874,-27.8967 406.1942,-28.078 408.6193,-34.6445"/>
</g>
<!-- 10 -->
<g id="node11" class="node">
<title>10</title>
<path fill="none" stroke="#569ad8" stroke-width="2" d="M366.0391,-108C366.0391,-108 323.9609,-108 323.9609,-108 317.9609,-108 311.9609,-102 311.9609,-96 311.9609,-96 311.9609,-84 311.9609,-84 311.9609,-78 317.9609,-72 323.9609,-72 323.9609,-72 366.0391,-72 366.0391,-72 372.0391,-72 378.0391,-78 378.0391,-84 378.0391,-84 378.0391,-96 378.0391,-96 378.0391,-102 372.0391,-108 366.0391,-108"/>
<text text-anchor="middle" x="345" y="-87" font-family="sans" font-size="10.00" fill="#000000">oxford2ped</text>
</g>
<!-- 10&#45;&gt;0 -->
<g id="edge10" class="edge">
<title>10&#45;&gt;0</title>
<path fill="none" stroke="#c0c0c0" stroke-width="2" d="M369.9819,-71.8314C382.2928,-62.8779 397.3107,-51.9558 410.5937,-42.2955"/>
<polygon fill="#c0c0c0" stroke="#c0c0c0" stroke-width="2" points="412.9973,-44.8752 419.0261,-36.1628 408.8801,-39.214 412.9973,-44.8752"/>
</g>
<!-- 11&#45;&gt;0 -->
<g id="edge11" class="edge">
<title>11&#45;&gt;0</title>
<path fill="none" stroke="#c0c0c0" stroke-width="2" d="M89.2778,-431.9213C77.7181,-422.496 64.9224,-410.0124 57,-396 36.8794,-360.4125 38,-346.8816 38,-306 38,-306 38,-306 38,-162 38,-112.133 62.3422,-97.8269 105,-72 155.2727,-41.5627 329.2893,-25.9732 406.5459,-20.4191"/>
<polygon fill="#c0c0c0" stroke="#c0c0c0" stroke-width="2" points="407.0513,-23.8924 416.782,-19.7015 406.5617,-16.9095 407.0513,-23.8924"/>
</g>
<!-- 12&#45;&gt;0 -->
<g id="edge12" class="edge">
<title>12&#45;&gt;0</title>
<path fill="none" stroke="#c0c0c0" stroke-width="2" d="M555.618,-74.1993C533.5065,-63.0662 503.8267,-48.1225 480.6306,-36.4434"/>
<polygon fill="#c0c0c0" stroke="#c0c0c0" stroke-width="2" points="481.9546,-33.1915 471.4489,-31.8204 478.8066,-39.4437 481.9546,-33.1915"/>
</g>
<!-- 13 -->
<g id="node14" class="node">
<title>13</title>
<path fill="none" stroke="#d8bc56" stroke-width="2" d="M888.0147,-324C888.0147,-324 855.9853,-324 855.9853,-324 849.9853,-324 843.9853,-318 843.9853,-312 843.9853,-312 843.9853,-300 843.9853,-300 843.9853,-294 849.9853,-288 855.9853,-288 855.9853,-288 888.0147,-288 888.0147,-288 894.0147,-288 900.0147,-294 900.0147,-300 900.0147,-300 900.0147,-312 900.0147,-312 900.0147,-318 894.0147,-324 888.0147,-324"/>
<text text-anchor="middle" x="872" y="-303" font-family="sans" font-size="10.00" fill="#000000">vcf2Plink</text>
</g>
<!-- 13&#45;&gt;0 -->
<g id="edge13" class="edge">
<title>13&#45;&gt;0</title>
<path fill="none" stroke="#c0c0c0" stroke-width="2" d="M884.8617,-287.8254C913.7424,-244.6159 976.9898,-134.6859 921,-72 891.785,-39.291 588.1317,-23.8633 481.0937,-19.4118"/>
<polygon fill="#c0c0c0" stroke="#c0c0c0" stroke-width="2" points="481.2064,-15.9136 471.0721,-19.0034 480.9213,-22.9078 481.2064,-15.9136"/>
</g>
<!-- 14 -->
<g id="node15" class="node">
<title>14</title>
<path fill="none" stroke="#d8bc56" stroke-width="2" d="M148.0147,-180C148.0147,-180 115.9853,-180 115.9853,-180 109.9853,-180 103.9853,-174 103.9853,-168 103.9853,-168 103.9853,-156 103.9853,-156 103.9853,-150 109.9853,-144 115.9853,-144 115.9853,-144 148.0147,-144 148.0147,-144 154.0147,-144 160.0147,-150 160.0147,-156 160.0147,-156 160.0147,-168 160.0147,-168 160.0147,-174 154.0147,-180 148.0147,-180"/>
<text text-anchor="middle" x="132" y="-159" font-family="sans" font-size="10.00" fill="#000000">vcf2Plink</text>
</g>
<!-- 14&#45;&gt;0 -->
<g id="edge14" class="edge">
<title>14&#45;&gt;0</title>
<path fill="none" stroke="#c0c0c0" stroke-width="2" d="M135.4009,-143.7499C140.2501,-123.0609 151.2189,-89.8926 174,-72 209.7007,-43.9603 341.0414,-27.8034 406.4609,-21.3312"/>
<polygon fill="#c0c0c0" stroke="#c0c0c0" stroke-width="2" points="407.1277,-24.7832 416.7458,-20.3399 406.4561,-17.8155 407.1277,-24.7832"/>
</g>
<!-- 15 -->
<g id="node16" class="node">
<title>15</title>
<path fill="none" stroke="#56d88a" stroke-width="2" d="M312,-252C312,-252 282,-252 282,-252 276,-252 270,-246 270,-240 270,-240 270,-228 270,-228 270,-222 276,-216 282,-216 282,-216 312,-216 312,-216 318,-216 324,-222 324,-228 324,-228 324,-240 324,-240 324,-246 318,-252 312,-252"/>
<text text-anchor="middle" x="297" y="-231" font-family="sans" font-size="10.00" fill="#000000">Impute2</text>
</g>
<!-- 15&#45;&gt;0 -->
<g id="edge15" class="edge">
<title>15&#45;&gt;0</title>
<path fill="none" stroke="#c0c0c0" stroke-width="2" d="M270.5132,-215.7736C258.8296,-206.3979 245.9685,-193.9982 238,-180 214.0258,-137.8849 193.075,-110.1174 223,-72 245.444,-43.4116 349.8416,-28.019 406.7554,-21.6246"/>
<polygon fill="#c0c0c0" stroke="#c0c0c0" stroke-width="2" points="407.2356,-25.0931 416.7994,-20.5342 406.4801,-18.134 407.2356,-25.0931"/>
</g>
<!-- 15&#45;&gt;9 -->
<g id="edge30" class="edge">
<title>15&#45;&gt;9</title>
<path fill="none" stroke="#c0c0c0" stroke-width="2" d="M272.4199,-215.7772C261.8518,-206.4022 250.6457,-194.0021 245,-180 236.9055,-159.9245 242.4699,-135.8127 249.4766,-117.601"/>
<polygon fill="#c0c0c0" stroke="#c0c0c0" stroke-width="2" points="252.7989,-118.7289 253.44,-108.1535 246.3439,-116.0209 252.7989,-118.7289"/>
</g>
<!-- 15&#45;&gt;10 -->
<g id="edge32" class="edge">
<title>15&#45;&gt;10</title>
<path fill="none" stroke="#c0c0c0" stroke-width="2" d="M321.5801,-215.7772C332.1482,-206.4022 343.3543,-194.0021 349,-180 356.8716,-160.4774 355.361,-136.6069 352.1576,-118.356"/>
<polygon fill="#c0c0c0" stroke="#c0c0c0" stroke-width="2" points="355.5442,-117.4442 350.134,-108.3349 348.6827,-118.8298 355.5442,-117.4442"/>
</g>
<!-- 24 -->
<g id="node25" class="node">
<title>24</title>
<path fill="none" stroke="#567bd8" stroke-width="2" d="M328.0098,-180C328.0098,-180 265.9902,-180 265.9902,-180 259.9902,-180 253.9902,-174 253.9902,-168 253.9902,-168 253.9902,-156 253.9902,-156 253.9902,-150 259.9902,-144 265.9902,-144 265.9902,-144 328.0098,-144 328.0098,-144 334.0098,-144 340.0098,-150 340.0098,-156 340.0098,-156 340.0098,-168 340.0098,-168 340.0098,-174 334.0098,-180 328.0098,-180"/>
<text text-anchor="middle" x="297" y="-159" font-family="sans" font-size="10.00" fill="#000000">FixChromName</text>
</g>
<!-- 15&#45;&gt;24 -->
<g id="edge50" class="edge">
<title>15&#45;&gt;24</title>
<path fill="none" stroke="#c0c0c0" stroke-width="2" d="M297,-215.8314C297,-208.131 297,-198.9743 297,-190.4166"/>
<polygon fill="#c0c0c0" stroke="#c0c0c0" stroke-width="2" points="300.5001,-190.4132 297,-180.4133 293.5001,-190.4133 300.5001,-190.4132"/>
</g>
<!-- 16 -->
<g id="node17" class="node">
<title>16</title>
<path fill="none" stroke="#d85656" stroke-width="2" d="M380.7612,-324C380.7612,-324 321.2388,-324 321.2388,-324 315.2388,-324 309.2388,-318 309.2388,-312 309.2388,-312 309.2388,-300 309.2388,-300 309.2388,-294 315.2388,-288 321.2388,-288 321.2388,-288 380.7612,-288 380.7612,-288 386.7612,-288 392.7612,-294 392.7612,-300 392.7612,-300 392.7612,-312 392.7612,-312 392.7612,-318 386.7612,-324 380.7612,-324"/>
<text text-anchor="middle" x="351" y="-303" font-family="sans" font-size="10.00" fill="#000000">vcf2gensample</text>
</g>
<!-- 16&#45;&gt;0 -->
<g id="edge16" class="edge">
<title>16&#45;&gt;0</title>
<path fill="none" stroke="#c0c0c0" stroke-width="2" d="M356.8176,-287.9843C372.5731,-239.1929 416.1524,-104.2377 435.0576,-45.6927"/>
<polygon fill="#c0c0c0" stroke="#c0c0c0" stroke-width="2" points="438.4423,-46.6006 438.1846,-36.0089 431.781,-44.4495 438.4423,-46.6006"/>
</g>
<!-- 16&#45;&gt;15 -->
<g id="edge39" class="edge">
<title>16&#45;&gt;15</title>
<path fill="none" stroke="#c0c0c0" stroke-width="2" d="M337.3735,-287.8314C331.154,-279.5386 323.6678,-269.557 316.84,-260.4533"/>
<polygon fill="#c0c0c0" stroke="#c0c0c0" stroke-width="2" points="319.61,-258.3133 310.81,-252.4133 314.01,-262.5133 319.61,-258.3133"/>
</g>
<!-- 17 -->
<g id="node18" class="node">
<title>17</title>
<path fill="none" stroke="#d85656" stroke-width="2" d="M729.7612,-324C729.7612,-324 670.2388,-324 670.2388,-324 664.2388,-324 658.2388,-318 658.2388,-312 658.2388,-312 658.2388,-300 658.2388,-300 658.2388,-294 664.2388,-288 670.2388,-288 670.2388,-288 729.7612,-288 729.7612,-288 735.7612,-288 741.7612,-294 741.7612,-300 741.7612,-300 741.7612,-312 741.7612,-312 741.7612,-318 735.7612,-324 729.7612,-324"/>
<text text-anchor="middle" x="700" y="-303" font-family="sans" font-size="10.00" fill="#000000">vcf2gensample</text>
</g>
<!-- 17&#45;&gt;0 -->
<g id="edge17" class="edge">
<title>17&#45;&gt;0</title>
<path fill="none" stroke="#c0c0c0" stroke-width="2" d="M701.7622,-287.8976C704.9314,-244.3648 706.527,-132.9224 648,-72 625.1568,-48.2219 533.5824,-31.185 481.2233,-23.165"/>
<polygon fill="#c0c0c0" stroke="#c0c0c0" stroke-width="2" points="481.7141,-19.6995 471.3064,-21.6819 480.6787,-26.6225 481.7141,-19.6995"/>
</g>
<!-- 17&#45;&gt;3 -->
<g id="edge20" class="edge">
<title>17&#45;&gt;3</title>
<path fill="none" stroke="#c0c0c0" stroke-width="2" d="M719.178,-287.8314C728.3588,-279.1337 739.5006,-268.5783 749.4776,-259.1265"/>
<polygon fill="#c0c0c0" stroke="#c0c0c0" stroke-width="2" points="751.9757,-261.5811 756.8281,-252.1628 747.1615,-256.4995 751.9757,-261.5811"/>
</g>
<!-- 18 -->
<g id="node19" class="node">
<title>18</title>
<path fill="none" stroke="#88d856" stroke-width="2" stroke-dasharray="5,2" d="M278.8078,-612C278.8078,-612 219.1922,-612 219.1922,-612 213.1922,-612 207.1922,-606 207.1922,-600 207.1922,-600 207.1922,-588 207.1922,-588 207.1922,-582 213.1922,-576 219.1922,-576 219.1922,-576 278.8078,-576 278.8078,-576 284.8078,-576 290.8078,-582 290.8078,-588 290.8078,-588 290.8078,-600 290.8078,-600 290.8078,-606 284.8078,-612 278.8078,-612"/>
<text text-anchor="middle" x="249" y="-591" font-family="sans" font-size="10.00" fill="#000000">DecomposeVcf</text>
</g>
<!-- 18&#45;&gt;1 -->
<g id="edge18" class="edge">
<title>18&#45;&gt;1</title>
<path fill="none" stroke="#c0c0c0" stroke-width="2" d="M249,-575.8314C249,-568.131 249,-558.9743 249,-550.4166"/>
<polygon fill="#c0c0c0" stroke="#c0c0c0" stroke-width="2" points="252.5001,-550.4132 249,-540.4133 245.5001,-550.4133 252.5001,-550.4132"/>
</g>
<!-- 19&#45;&gt;4 -->
<g id="edge21" class="edge">
<title>19&#45;&gt;4</title>
<path fill="none" stroke="#c0c0c0" stroke-width="2" d="M834.3829,-143.8314C828.6828,-135.6232 821.8337,-125.7606 815.5641,-116.7323"/>
<polygon fill="#c0c0c0" stroke="#c0c0c0" stroke-width="2" points="818.3658,-114.6306 809.787,-108.4133 812.6162,-118.6234 818.3658,-114.6306"/>
</g>
<!-- 19&#45;&gt;8 -->
<g id="edge28" class="edge">
<title>19&#45;&gt;8</title>
<path fill="none" stroke="#c0c0c0" stroke-width="2" d="M855.075,-143.8314C858.6102,-135.8771 862.836,-126.369 866.7456,-117.5723"/>
<polygon fill="#c0c0c0" stroke="#c0c0c0" stroke-width="2" points="869.9532,-118.9729 870.8163,-108.4133 863.5565,-116.1299 869.9532,-118.9729"/>
</g>
<!-- 20&#45;&gt;5 -->
<g id="edge23" class="edge">
<title>20&#45;&gt;5</title>
<path fill="none" stroke="#c0c0c0" stroke-width="2" d="M146.4538,-359.7623C141.6569,-335.0928 133.0561,-290.8598 127.4392,-261.9731"/>
<polygon fill="#c0c0c0" stroke="#c0c0c0" stroke-width="2" points="130.8619,-261.2377 125.5174,-252.0896 123.9905,-262.5738 130.8619,-261.2377"/>
</g>
<!-- 20&#45;&gt;16 -->
<g id="edge40" class="edge">
<title>20&#45;&gt;16</title>
<path fill="none" stroke="#c0c0c0" stroke-width="2" d="M200.4613,-359.9243C230.7869,-349.0614 269.2734,-335.2752 299.7406,-324.3616"/>
<polygon fill="#c0c0c0" stroke="#c0c0c0" stroke-width="2" points="301.0963,-327.5938 309.3303,-320.9265 298.7357,-321.0038 301.0963,-327.5938"/>
</g>
<!-- 21 -->
<g id="node22" class="node">
<title>21</title>
<path fill="none" stroke="#56d8a9" stroke-width="2" stroke-dasharray="5,2" d="M535.7612,-396C535.7612,-396 476.2388,-396 476.2388,-396 470.2388,-396 464.2388,-390 464.2388,-384 464.2388,-384 464.2388,-372 464.2388,-372 464.2388,-366 470.2388,-360 476.2388,-360 476.2388,-360 535.7612,-360 535.7612,-360 541.7612,-360 547.7612,-366 547.7612,-372 547.7612,-372 547.7612,-384 547.7612,-384 547.7612,-390 541.7612,-396 535.7612,-396"/>
<text text-anchor="middle" x="506" y="-375" font-family="sans" font-size="10.00" fill="#000000">SampleSex1kg</text>
</g>
<!-- 21&#45;&gt;6 -->
<g id="edge24" class="edge">
<title>21&#45;&gt;6</title>
<path fill="none" stroke="#c0c0c0" stroke-width="2" d="M506,-359.8314C506,-352.131 506,-342.9743 506,-334.4166"/>
<polygon fill="#c0c0c0" stroke="#c0c0c0" stroke-width="2" points="509.5001,-334.4132 506,-324.4133 502.5001,-334.4133 509.5001,-334.4132"/>
</g>
<!-- 21&#45;&gt;16 -->
<g id="edge41" class="edge">
<title>21&#45;&gt;16</title>
<path fill="none" stroke="#c0c0c0" stroke-width="2" d="M466.887,-359.8314C446.2488,-350.2446 420.7516,-338.4008 398.9327,-328.2655"/>
<polygon fill="#c0c0c0" stroke="#c0c0c0" stroke-width="2" points="400.3756,-325.0766 389.8318,-324.038 397.4266,-331.4251 400.3756,-325.0766"/>
</g>
<!-- 21&#45;&gt;17 -->
<g id="edge42" class="edge">
<title>21&#45;&gt;17</title>
<path fill="none" stroke="#c0c0c0" stroke-width="2" d="M548.0951,-362.3771C577.6857,-351.395 617.4407,-336.6406 648.8585,-324.9803"/>
<polygon fill="#c0c0c0" stroke="#c0c0c0" stroke-width="2" points="650.1634,-328.2294 658.3207,-321.4686 647.7277,-321.6668 650.1634,-328.2294"/>
</g>
<!-- 22&#45;&gt;6 -->
<g id="edge25" class="edge">
<title>22&#45;&gt;6</title>
<path fill="none" stroke="#c0c0c0" stroke-width="2" d="M388.6177,-359.8314C409.5222,-350.2446 435.3483,-338.4008 457.4488,-328.2655"/>
<polygon fill="#c0c0c0" stroke="#c0c0c0" stroke-width="2" points="459.0364,-331.388 466.6672,-324.038 456.1184,-325.0252 459.0364,-331.388"/>
</g>
<!-- 22&#45;&gt;14 -->
<g id="edge38" class="edge">
<title>22&#45;&gt;14</title>
<path fill="none" stroke="#c0c0c0" stroke-width="2" d="M330.8719,-359.9555C292.2588,-321.5203 201.8101,-231.4884 157.4468,-187.3295"/>
<polygon fill="#c0c0c0" stroke="#c0c0c0" stroke-width="2" points="159.7856,-184.7192 150.2291,-180.1451 154.8473,-189.6804 159.7856,-184.7192"/>
</g>
<!-- 23&#45;&gt;7 -->
<g id="edge26" class="edge">
<title>23&#45;&gt;7</title>
<path fill="none" stroke="#c0c0c0" stroke-width="2" d="M540.8876,-143.8314C535.4719,-135.7079 528.9758,-125.9637 523.0079,-117.0118"/>
<polygon fill="#c0c0c0" stroke="#c0c0c0" stroke-width="2" points="525.7347,-114.7923 517.2755,-108.4133 519.9104,-118.6753 525.7347,-114.7923"/>
</g>
<!-- 23&#45;&gt;12 -->
<g id="edge35" class="edge">
<title>23&#45;&gt;12</title>
<path fill="none" stroke="#c0c0c0" stroke-width="2" d="M561.5796,-143.8314C565.3358,-135.8771 569.8257,-126.369 573.9798,-117.5723"/>
<polygon fill="#c0c0c0" stroke="#c0c0c0" stroke-width="2" points="577.1996,-118.9503 578.3048,-108.4133 570.8699,-115.9612 577.1996,-118.9503"/>
</g>
<!-- 24&#45;&gt;9 -->
<g id="edge31" class="edge">
<title>24&#45;&gt;9</title>
<path fill="none" stroke="#c0c0c0" stroke-width="2" d="M288.4204,-143.8314C284.6642,-135.8771 280.1743,-126.369 276.0202,-117.5723"/>
<polygon fill="#c0c0c0" stroke="#c0c0c0" stroke-width="2" points="279.1301,-115.9612 271.6952,-108.4133 272.8004,-118.9503 279.1301,-115.9612"/>
</g>
<!-- 24&#45;&gt;10 -->
<g id="edge33" class="edge">
<title>24&#45;&gt;10</title>
<path fill="none" stroke="#c0c0c0" stroke-width="2" d="M309.1124,-143.8314C314.5281,-135.7079 321.0242,-125.9637 326.9921,-117.0118"/>
<polygon fill="#c0c0c0" stroke="#c0c0c0" stroke-width="2" points="330.0896,-118.6753 332.7245,-108.4133 324.2653,-114.7923 330.0896,-118.6753"/>
</g>
<!-- 25&#45;&gt;13 -->
<g id="edge37" class="edge">
<title>25&#45;&gt;13</title>
<path fill="none" stroke="#c0c0c0" stroke-width="2" d="M743.4029,-359.8314C771.4998,-348.0699 807.7123,-332.9112 834.5467,-321.6781"/>
<polygon fill="#c0c0c0" stroke="#c0c0c0" stroke-width="2" points="836.1035,-324.8208 843.9764,-317.7308 833.4005,-318.3637 836.1035,-324.8208"/>
</g>
<!-- 25&#45;&gt;17 -->
<g id="edge43" class="edge">
<title>25&#45;&gt;17</title>
<path fill="none" stroke="#c0c0c0" stroke-width="2" d="M700,-359.8314C700,-352.131 700,-342.9743 700,-334.4166"/>
<polygon fill="#c0c0c0" stroke="#c0c0c0" stroke-width="2" points="703.5001,-334.4132 700,-324.4133 696.5001,-334.4133 703.5001,-334.4132"/>
</g>
<!-- 26 -->
<g id="node27" class="node">
<title>26</title>
<path fill="none" stroke="#afd856" stroke-width="2" stroke-dasharray="5,2" d="M274.9594,-684C274.9594,-684 223.0406,-684 223.0406,-684 217.0406,-684 211.0406,-678 211.0406,-672 211.0406,-672 211.0406,-660 211.0406,-660 211.0406,-654 217.0406,-648 223.0406,-648 223.0406,-648 274.9594,-648 274.9594,-648 280.9594,-648 286.9594,-654 286.9594,-660 286.9594,-660 286.9594,-672 286.9594,-672 286.9594,-678 280.9594,-684 274.9594,-684"/>
<text text-anchor="middle" x="249" y="-663" font-family="sans" font-size="10.00" fill="#000000">NormaliseVcf</text>
</g>
<!-- 26&#45;&gt;18 -->
<g id="edge44" class="edge">
<title>26&#45;&gt;18</title>
<path fill="none" stroke="#c0c0c0" stroke-width="2" d="M249,-647.8314C249,-640.131 249,-630.9743 249,-622.4166"/>
<polygon fill="#c0c0c0" stroke="#c0c0c0" stroke-width="2" points="252.5001,-622.4132 249,-612.4133 245.5001,-622.4133 252.5001,-622.4132"/>
</g>
<!-- 27&#45;&gt;21 -->
<g id="edge47" class="edge">
<title>27&#45;&gt;21</title>
<path fill="none" stroke="#c0c0c0" stroke-width="2" d="M475.346,-431.8314C479.9237,-423.7925 485.4052,-414.1666 490.4588,-405.2918"/>
<polygon fill="#c0c0c0" stroke="#c0c0c0" stroke-width="2" points="493.6077,-406.8351 495.5147,-396.4133 487.5248,-403.3712 493.6077,-406.8351"/>
</g>
<!-- 28 -->
<g id="node29" class="node">
<title>28</title>
<path fill="none" stroke="#56c1d8" stroke-width="2" stroke-dasharray="5,2" d="M277.5195,-756C277.5195,-756 220.4805,-756 220.4805,-756 214.4805,-756 208.4805,-750 208.4805,-744 208.4805,-744 208.4805,-732 208.4805,-732 208.4805,-726 214.4805,-720 220.4805,-720 220.4805,-720 277.5195,-720 277.5195,-720 283.5195,-720 289.5195,-726 289.5195,-732 289.5195,-732 289.5195,-744 289.5195,-744 289.5195,-750 283.5195,-756 277.5195,-756"/>
<text text-anchor="middle" x="249" y="-735" font-family="sans" font-size="10.00" fill="#000000">Get1kgMT_vcf</text>
</g>
<!-- 28&#45;&gt;26 -->
<g id="edge52" class="edge">
<title>28&#45;&gt;26</title>
<path fill="none" stroke="#c0c0c0" stroke-width="2" d="M249,-719.8314C249,-712.131 249,-702.9743 249,-694.4166"/>
<polygon fill="#c0c0c0" stroke="#c0c0c0" stroke-width="2" points="252.5001,-694.4132 249,-684.4133 245.5001,-694.4133 252.5001,-694.4132"/>
</g>
</g>
</svg>
