<?xml version="1.0" encoding="UTF-8" standalone="no"?>
<!DOCTYPE svg PUBLIC "-//W3C//DTD SVG 1.1//EN"
 "http://www.w3.org/Graphics/SVG/1.1/DTD/svg11.dtd">
<!-- Generated by graphviz version 2.40.1 (20161225.0304)
 -->
<!-- Title: snakemake_dag Pages: 1 -->
<svg width="471pt" height="188pt"
 viewBox="0.00 0.00 471.20 188.00" xmlns="http://www.w3.org/2000/svg" xmlns:xlink="http://www.w3.org/1999/xlink">
<g id="graph0" class="graph" transform="scale(1 1) rotate(0) translate(4 184)">
<title>snakemake_dag</title>
<polygon fill="#ffffff" stroke="transparent" points="-4,4 -4,-184 467.2041,-184 467.2041,4 -4,4"/>
<!-- 0 -->
<g id="node1" class="node">
<title>0</title>
<path fill="none" stroke="#d85656" stroke-width="2" stroke-dasharray="5,2" d="M247.0098,-36C247.0098,-36 217.0098,-36 217.0098,-36 211.0098,-36 205.0098,-30 205.0098,-24 205.0098,-24 205.0098,-12 205.0098,-12 205.0098,-6 211.0098,0 217.0098,0 217.0098,0 247.0098,0 247.0098,0 253.0098,0 259.0098,-6 259.0098,-12 259.0098,-12 259.0098,-24 259.0098,-24 259.0098,-30 253.0098,-36 247.0098,-36"/>
<text text-anchor="middle" x="232.0098" y="-15" font-family="sans" font-size="10.00" fill="#000000">all</text>
</g>
<!-- 1 -->
<g id="node2" class="node">
<title>1</title>
<path fill="none" stroke="#56d8c1" stroke-width="2" stroke-dasharray="5,2" d="M64.0293,-108C64.0293,-108 11.9902,-108 11.9902,-108 5.9902,-108 -.0098,-102 -.0098,-96 -.0098,-96 -.0098,-84 -.0098,-84 -.0098,-78 5.9902,-72 11.9902,-72 11.9902,-72 64.0293,-72 64.0293,-72 70.0293,-72 76.0293,-78 76.0293,-84 76.0293,-84 76.0293,-96 76.0293,-96 76.0293,-102 70.0293,-108 64.0293,-108"/>
<text text-anchor="middle" x="38.0098" y="-87" font-family="sans" font-size="10.00" fill="#000000">MakeMapFile</text>
</g>
<!-- 1&#45;&gt;0 -->
<g id="edge1" class="edge">
<title>1&#45;&gt;0</title>
<path fill="none" stroke="#c0c0c0" stroke-width="2" d="M76.2127,-75.3189C79.1875,-74.1911 82.1464,-73.0742 85.0098,-72 122.5176,-57.9292 165.5461,-42.167 195.3151,-31.3216"/>
<polygon fill="#c0c0c0" stroke="#c0c0c0" stroke-width="2" points="196.6756,-34.5511 204.8752,-27.8417 194.2812,-27.9734 196.6756,-34.5511"/>
</g>
<!-- 2 -->
<g id="node3" class="node">
<title>2</title>
<path fill="none" stroke="#d88d56" stroke-width="2" stroke-dasharray="5,2" d="M136.0098,-108C136.0098,-108 106.0098,-108 106.0098,-108 100.0098,-108 94.0098,-102 94.0098,-96 94.0098,-96 94.0098,-84 94.0098,-84 94.0098,-78 100.0098,-72 106.0098,-72 106.0098,-72 136.0098,-72 136.0098,-72 142.0098,-72 148.0098,-78 148.0098,-84 148.0098,-84 148.0098,-96 148.0098,-96 148.0098,-102 142.0098,-108 136.0098,-108"/>
<text text-anchor="middle" x="121.0098" y="-87" font-family="sans" font-size="10.00" fill="#000000">Plink</text>
</g>
<!-- 2&#45;&gt;0 -->
<g id="edge2" class="edge">
<title>2&#45;&gt;0</title>
<path fill="none" stroke="#c0c0c0" stroke-width="2" d="M148.1634,-72.3868C162.6767,-62.9728 180.725,-51.2658 196.355,-41.1274"/>
<polygon fill="#c0c0c0" stroke="#c0c0c0" stroke-width="2" points="198.2668,-44.0592 204.7517,-35.6809 194.4574,-38.1865 198.2668,-44.0592"/>
</g>
<!-- 3 -->
<g id="node4" class="node">
<title>3</title>
<path fill="none" stroke="#56c1d8" stroke-width="2" stroke-dasharray="5,2" d="M208.0098,-108C208.0098,-108 178.0098,-108 178.0098,-108 172.0098,-108 166.0098,-102 166.0098,-96 166.0098,-96 166.0098,-84 166.0098,-84 166.0098,-78 172.0098,-72 178.0098,-72 178.0098,-72 208.0098,-72 208.0098,-72 214.0098,-72 220.0098,-78 220.0098,-84 220.0098,-84 220.0098,-96 220.0098,-96 220.0098,-102 214.0098,-108 208.0098,-108"/>
<text text-anchor="middle" x="193.0098" y="-87" font-family="sans" font-size="10.00" fill="#000000">Oxford</text>
</g>
<!-- 3&#45;&gt;0 -->
<g id="edge3" class="edge">
<title>3&#45;&gt;0</title>
<path fill="none" stroke="#c0c0c0" stroke-width="2" d="M202.8511,-71.8314C207.2055,-63.7925 212.4195,-54.1666 217.2267,-45.2918"/>
<polygon fill="#c0c0c0" stroke="#c0c0c0" stroke-width="2" points="220.3506,-46.8732 222.0359,-36.4133 214.1955,-43.5392 220.3506,-46.8732"/>
</g>
<!-- 4 -->
<g id="node5" class="node">
<title>4</title>
<path fill="none" stroke="#568ad8" stroke-width="2" stroke-dasharray="5,2" d="M294.3177,-108C294.3177,-108 249.7019,-108 249.7019,-108 243.7019,-108 237.7019,-102 237.7019,-96 237.7019,-96 237.7019,-84 237.7019,-84 237.7019,-78 243.7019,-72 249.7019,-72 249.7019,-72 294.3177,-72 294.3177,-72 300.3177,-72 306.3177,-78 306.3177,-84 306.3177,-84 306.3177,-96 306.3177,-96 306.3177,-102 300.3177,-108 294.3177,-108"/>
<text text-anchor="middle" x="272.0098" y="-87" font-family="sans" font-size="10.00" fill="#000000">GenSample</text>
</g>
<!-- 4&#45;&gt;0 -->
<g id="edge4" class="edge">
<title>4&#45;&gt;0</title>
<path fill="none" stroke="#c0c0c0" stroke-width="2" d="M261.9161,-71.8314C257.45,-63.7925 252.1023,-54.1666 247.1719,-45.2918"/>
<polygon fill="#c0c0c0" stroke="#c0c0c0" stroke-width="2" points="250.1554,-43.4551 242.2394,-36.4133 244.0363,-46.8546 250.1554,-43.4551"/>
</g>
<!-- 5 -->
<g id="node6" class="node">
<title>5</title>
<path fill="none" stroke="#88d856" stroke-width="2" stroke-dasharray="5,2" d="M368.0244,-108C368.0244,-108 335.9951,-108 335.9951,-108 329.9951,-108 323.9951,-102 323.9951,-96 323.9951,-96 323.9951,-84 323.9951,-84 323.9951,-78 329.9951,-72 335.9951,-72 335.9951,-72 368.0244,-72 368.0244,-72 374.0244,-72 380.0244,-78 380.0244,-84 380.0244,-84 380.0244,-96 380.0244,-96 380.0244,-102 374.0244,-108 368.0244,-108"/>
<text text-anchor="middle" x="352.0098" y="-87" font-family="sans" font-size="10.00" fill="#000000">vcf2Plink</text>
</g>
<!-- 5&#45;&gt;0 -->
<g id="edge5" class="edge">
<title>5&#45;&gt;0</title>
<path fill="none" stroke="#c0c0c0" stroke-width="2" d="M323.8751,-73.1192C307.2395,-63.1379 286,-50.3942 268.1349,-39.6751"/>
<polygon fill="#c0c0c0" stroke="#c0c0c0" stroke-width="2" points="269.5181,-36.4234 259.1424,-34.2796 265.9166,-42.4258 269.5181,-36.4234"/>
</g>
<!-- 6 -->
<g id="node7" class="node">
<title>6</title>
<path fill="none" stroke="#56d88a" stroke-width="2" stroke-dasharray="5,2" d="M448.1951,-108C448.1951,-108 409.8244,-108 409.8244,-108 403.8244,-108 397.8244,-102 397.8244,-96 397.8244,-96 397.8244,-84 397.8244,-84 397.8244,-78 403.8244,-72 409.8244,-72 409.8244,-72 448.1951,-72 448.1951,-72 454.1951,-72 460.1951,-78 460.1951,-84 460.1951,-84 460.1951,-96 460.1951,-96 460.1951,-102 454.1951,-108 448.1951,-108"/>
<text text-anchor="middle" x="429.0098" y="-87" font-family="sans" font-size="10.00" fill="#000000">vcf2BPlink</text>
</g>
<!-- 6&#45;&gt;0 -->
<g id="edge6" class="edge">
<title>6&#45;&gt;0</title>
<path fill="none" stroke="#c0c0c0" stroke-width="2" d="M397.6829,-75.5764C394.7655,-74.3321 391.8418,-73.1215 389.0098,-72 348.5047,-55.9595 301.1021,-40.0367 269.0656,-29.6839"/>
<polygon fill="#c0c0c0" stroke="#c0c0c0" stroke-width="2" points="269.8236,-26.2513 259.2323,-26.5252 267.6827,-32.9159 269.8236,-26.2513"/>
</g>
<!-- 7 -->
<g id="node8" class="node">
<title>7</title>
<path fill="none" stroke="#d8bc56" stroke-width="2" stroke-dasharray="5,2" d="M189.96,-180C189.96,-180 74.0596,-180 74.0596,-180 68.0596,-180 62.0596,-174 62.0596,-168 62.0596,-168 62.0596,-156 62.0596,-156 62.0596,-150 68.0596,-144 74.0596,-144 74.0596,-144 189.96,-144 189.96,-144 195.96,-144 201.96,-150 201.96,-156 201.96,-156 201.96,-168 201.96,-168 201.96,-174 195.96,-180 189.96,-180"/>
<text text-anchor="middle" x="132.0098" y="-159" font-family="sans" font-size="10.00" fill="#000000">ExampleReferenceSamples</text>
</g>
<!-- 7&#45;&gt;1 -->
<g id="edge7" class="edge">
<title>7&#45;&gt;1</title>
<path fill="none" stroke="#c0c0c0" stroke-width="2" d="M108.2896,-143.8314C96.6004,-134.8779 82.341,-123.9558 69.7289,-114.2955"/>
<polygon fill="#c0c0c0" stroke="#c0c0c0" stroke-width="2" points="71.7894,-111.4651 61.7223,-108.1628 67.5329,-117.0222 71.7894,-111.4651"/>
</g>
<!-- 7&#45;&gt;2 -->
<g id="edge8" class="edge">
<title>7&#45;&gt;2</title>
<path fill="none" stroke="#c0c0c0" stroke-width="2" d="M129.234,-143.8314C128.0576,-136.131 126.6586,-126.9743 125.3512,-118.4166"/>
<polygon fill="#c0c0c0" stroke="#c0c0c0" stroke-width="2" points="128.7931,-117.7699 123.8229,-108.4133 121.8734,-118.8272 128.7931,-117.7699"/>
</g>
<!-- 7&#45;&gt;3 -->
<g id="edge10" class="edge">
<title>7&#45;&gt;3</title>
<path fill="none" stroke="#c0c0c0" stroke-width="2" d="M147.4026,-143.8314C154.5001,-135.454 163.0578,-125.3531 170.8338,-116.1749"/>
<polygon fill="#c0c0c0" stroke="#c0c0c0" stroke-width="2" points="173.6159,-118.3056 177.4096,-108.4133 168.275,-113.7807 173.6159,-118.3056"/>
</g>
<!-- 7&#45;&gt;4 -->
<g id="edge12" class="edge">
<title>7&#45;&gt;4</title>
<path fill="none" stroke="#c0c0c0" stroke-width="2" d="M167.3377,-143.8314C185.9388,-134.2651 208.9098,-122.4514 228.5892,-112.3306"/>
<polygon fill="#c0c0c0" stroke="#c0c0c0" stroke-width="2" points="230.3689,-115.3511 237.6611,-107.665 227.1675,-109.1261 230.3689,-115.3511"/>
</g>
<!-- 8 -->
<g id="node9" class="node">
<title>8</title>
<path fill="none" stroke="#bed856" stroke-width="2" stroke-dasharray="5,2" d="M295.2095,-180C295.2095,-180 236.81,-180 236.81,-180 230.81,-180 224.81,-174 224.81,-168 224.81,-168 224.81,-156 224.81,-156 224.81,-150 230.81,-144 236.81,-144 236.81,-144 295.2095,-144 295.2095,-144 301.2095,-144 307.2095,-150 307.2095,-156 307.2095,-156 307.2095,-168 307.2095,-168 307.2095,-174 301.2095,-180 295.2095,-180"/>
<text text-anchor="middle" x="266.0098" y="-159" font-family="sans" font-size="10.00" fill="#000000">RefSampleSex</text>
</g>
<!-- 8&#45;&gt;3 -->
<g id="edge9" class="edge">
<title>8&#45;&gt;3</title>
<path fill="none" stroke="#c0c0c0" stroke-width="2" d="M247.5888,-143.8314C238.8568,-135.219 228.278,-124.7851 218.7674,-115.4048"/>
<polygon fill="#c0c0c0" stroke="#c0c0c0" stroke-width="2" points="221.0023,-112.6931 211.4249,-108.1628 216.0868,-117.6769 221.0023,-112.6931"/>
</g>
<!-- 8&#45;&gt;4 -->
<g id="edge11" class="edge">
<title>8&#45;&gt;4</title>
<path fill="none" stroke="#c0c0c0" stroke-width="2" d="M267.5238,-143.8314C268.1655,-136.131 268.9286,-126.9743 269.6417,-118.4166"/>
<polygon fill="#c0c0c0" stroke="#c0c0c0" stroke-width="2" points="273.1327,-118.6694 270.4753,-108.4133 266.1569,-118.088 273.1327,-118.6694"/>
</g>
<!-- 9 -->
<g id="node10" class="node">
<title>9</title>
<path fill="none" stroke="#59d856" stroke-width="2" stroke-dasharray="5,2" d="M451.3991,-180C451.3991,-180 360.6204,-180 360.6204,-180 354.6204,-180 348.6204,-174 348.6204,-168 348.6204,-168 348.6204,-156 348.6204,-156 348.6204,-150 354.6204,-144 360.6204,-144 360.6204,-144 451.3991,-144 451.3991,-144 457.3991,-144 463.3991,-150 463.3991,-156 463.3991,-156 463.3991,-168 463.3991,-168 463.3991,-174 457.3991,-180 451.3991,-180"/>
<text text-anchor="middle" x="406.0098" y="-159" font-family="sans" font-size="10.00" fill="#000000">ExampleSamplePanel</text>
</g>
<!-- 9&#45;&gt;5 -->
<g id="edge13" class="edge">
<title>9&#45;&gt;5</title>
<path fill="none" stroke="#c0c0c0" stroke-width="2" d="M392.3833,-143.8314C386.1637,-135.5386 378.6775,-125.557 371.8498,-116.4533"/>
<polygon fill="#c0c0c0" stroke="#c0c0c0" stroke-width="2" points="374.6198,-114.3133 365.8197,-108.4133 369.0197,-118.5133 374.6198,-114.3133"/>
</g>
<!-- 9&#45;&gt;6 -->
<g id="edge14" class="edge">
<title>9&#45;&gt;6</title>
<path fill="none" stroke="#c0c0c0" stroke-width="2" d="M411.8136,-143.8314C414.3005,-136.0463 417.2629,-126.7729 420.0223,-118.1347"/>
<polygon fill="#c0c0c0" stroke="#c0c0c0" stroke-width="2" points="423.4187,-119.0041 423.1277,-108.4133 416.7507,-116.874 423.4187,-119.0041"/>
</g>
</g>
</svg>
