<?xml version="1.0" encoding="UTF-8" standalone="no"?>
<!DOCTYPE svg PUBLIC "-//W3C//DTD SVG 1.1//EN"
 "http://www.w3.org/Graphics/SVG/1.1/DTD/svg11.dtd">
<!-- Generated by graphviz version 2.40.1 (20161225.0304)
 -->
<!-- Title: snakemake_dag Pages: 1 -->
<svg width="332pt" height="620pt"
 viewBox="0.00 0.00 332.19 620.00" xmlns="http://www.w3.org/2000/svg" xmlns:xlink="http://www.w3.org/1999/xlink">
<g id="graph0" class="graph" transform="scale(1 1) rotate(0) translate(4 616)">
<title>snakemake_dag</title>
<polygon fill="#ffffff" stroke="transparent" points="-4,4 -4,-616 328.1943,-616 328.1943,4 -4,4"/>
<!-- 0 -->
<g id="node1" class="node">
<title>0</title>
<path fill="none" stroke="#d85656" stroke-width="2" stroke-dasharray="5,2" d="M152.0664,-36C152.0664,-36 122.0664,-36 122.0664,-36 116.0664,-36 110.0664,-30 110.0664,-24 110.0664,-24 110.0664,-12 110.0664,-12 110.0664,-6 116.0664,0 122.0664,0 122.0664,0 152.0664,0 152.0664,0 158.0664,0 164.0664,-6 164.0664,-12 164.0664,-12 164.0664,-24 164.0664,-24 164.0664,-30 158.0664,-36 152.0664,-36"/>
<text text-anchor="middle" x="137.0664" y="-15" font-family="sans" font-size="10.00" fill="#000000">all</text>
</g>
<!-- 1 -->
<g id="node2" class="node">
<title>1</title>
<path fill="none" stroke="#afd856" stroke-width="2" stroke-dasharray="5,2" d="M134.1055,-180C134.1055,-180 92.0273,-180 92.0273,-180 86.0273,-180 80.0273,-174 80.0273,-168 80.0273,-168 80.0273,-156 80.0273,-156 80.0273,-150 86.0273,-144 92.0273,-144 92.0273,-144 134.1055,-144 134.1055,-144 140.1055,-144 146.1055,-150 146.1055,-156 146.1055,-156 146.1055,-168 146.1055,-168 146.1055,-174 140.1055,-180 134.1055,-180"/>
<text text-anchor="middle" x="113.0664" y="-159" font-family="sans" font-size="10.00" fill="#000000">oxford2bed</text>
</g>
<!-- 1&#45;&gt;0 -->
<g id="edge1" class="edge">
<title>1&#45;&gt;0</title>
<path fill="none" stroke="#c0c0c0" stroke-width="2" d="M116.106,-143.7623C120.2176,-119.0928 127.5898,-74.8598 132.4042,-45.9731"/>
<polygon fill="#c0c0c0" stroke="#c0c0c0" stroke-width="2" points="135.8598,-46.529 134.0515,-36.0896 128.955,-45.3781 135.8598,-46.529"/>
</g>
<!-- 2 -->
<g id="node3" class="node">
<title>2</title>
<path fill="none" stroke="#56d882" stroke-width="2" stroke-dasharray="5,2" d="M50.1994,-180C50.1994,-180 11.9335,-180 11.9335,-180 5.9335,-180 -.0665,-174 -.0665,-168 -.0665,-168 -.0665,-156 -.0665,-156 -.0665,-150 5.9335,-144 11.9335,-144 11.9335,-144 50.1994,-144 50.1994,-144 56.1994,-144 62.1994,-150 62.1994,-156 62.1994,-156 62.1994,-168 62.1994,-168 62.1994,-174 56.1994,-180 50.1994,-180"/>
<text text-anchor="middle" x="31.0664" y="-159" font-family="sans" font-size="10.00" fill="#000000">oxford2vcf</text>
</g>
<!-- 2&#45;&gt;0 -->
<g id="edge2" class="edge">
<title>2&#45;&gt;0</title>
<path fill="none" stroke="#c0c0c0" stroke-width="2" d="M44.4914,-143.7623C62.9694,-118.66 96.3582,-73.3017 117.5837,-44.4671"/>
<polygon fill="#c0c0c0" stroke="#c0c0c0" stroke-width="2" points="120.6409,-46.2179 123.7504,-36.0896 115.0035,-42.0681 120.6409,-46.2179"/>
</g>
<!-- 3 -->
<g id="node4" class="node">
<title>3</title>
<path fill="none" stroke="#d6d856" stroke-width="2" stroke-dasharray="5,2" d="M218.1055,-180C218.1055,-180 176.0273,-180 176.0273,-180 170.0273,-180 164.0273,-174 164.0273,-168 164.0273,-168 164.0273,-156 164.0273,-156 164.0273,-150 170.0273,-144 176.0273,-144 176.0273,-144 218.1055,-144 218.1055,-144 224.1055,-144 230.1055,-150 230.1055,-156 230.1055,-156 230.1055,-168 230.1055,-168 230.1055,-174 224.1055,-180 218.1055,-180"/>
<text text-anchor="middle" x="197.0664" y="-159" font-family="sans" font-size="10.00" fill="#000000">oxford2ped</text>
</g>
<!-- 3&#45;&gt;0 -->
<g id="edge3" class="edge">
<title>3&#45;&gt;0</title>
<path fill="none" stroke="#c0c0c0" stroke-width="2" d="M189.4674,-143.7623C179.1433,-118.9846 160.5961,-74.4714 148.5639,-45.5939"/>
<polygon fill="#c0c0c0" stroke="#c0c0c0" stroke-width="2" points="151.6807,-43.9742 144.6037,-36.0896 145.2192,-46.6666 151.6807,-43.9742"/>
</g>
<!-- 4 -->
<g id="node5" class="node">
<title>4</title>
<path fill="none" stroke="#59d856" stroke-width="2" stroke-dasharray="5,2" d="M275.5357,-108C275.5357,-108 228.5971,-108 228.5971,-108 222.5971,-108 216.5971,-102 216.5971,-96 216.5971,-96 216.5971,-84 216.5971,-84 216.5971,-78 222.5971,-72 228.5971,-72 228.5971,-72 275.5357,-72 275.5357,-72 281.5357,-72 287.5357,-78 287.5357,-84 287.5357,-84 287.5357,-96 287.5357,-96 287.5357,-102 281.5357,-108 275.5357,-108"/>
<text text-anchor="middle" x="252.0664" y="-87" font-family="sans" font-size="10.00" fill="#000000">html_Report</text>
</g>
<!-- 3&#45;&gt;4 -->
<g id="edge11" class="edge">
<title>3&#45;&gt;4</title>
<path fill="none" stroke="#c0c0c0" stroke-width="2" d="M210.9452,-143.8314C217.28,-135.5386 224.9048,-125.557 231.859,-116.4533"/>
<polygon fill="#c0c0c0" stroke="#c0c0c0" stroke-width="2" points="234.7116,-118.4847 238.0007,-108.4133 229.1489,-114.2353 234.7116,-118.4847"/>
</g>
<!-- 4&#45;&gt;0 -->
<g id="edge4" class="edge">
<title>4&#45;&gt;0</title>
<path fill="none" stroke="#c0c0c0" stroke-width="2" d="M223.0471,-71.8314C207.7764,-62.2706 188.9204,-50.4651 172.7613,-40.3481"/>
<polygon fill="#c0c0c0" stroke="#c0c0c0" stroke-width="2" points="174.4346,-37.2664 164.1015,-34.9263 170.72,-43.1995 174.4346,-37.2664"/>
</g>
<!-- 5 -->
<g id="node6" class="node">
<title>5</title>
<path fill="none" stroke="#56a9d8" stroke-width="2" stroke-dasharray="5,2" d="M174.0664,-324C174.0664,-324 144.0664,-324 144.0664,-324 138.0664,-324 132.0664,-318 132.0664,-312 132.0664,-312 132.0664,-300 132.0664,-300 132.0664,-294 138.0664,-288 144.0664,-288 144.0664,-288 174.0664,-288 174.0664,-288 180.0664,-288 186.0664,-294 186.0664,-300 186.0664,-300 186.0664,-312 186.0664,-312 186.0664,-318 180.0664,-324 174.0664,-324"/>
<text text-anchor="middle" x="159.0664" y="-303" font-family="sans" font-size="10.00" fill="#000000">Impute2</text>
</g>
<!-- 5&#45;&gt;1 -->
<g id="edge5" class="edge">
<title>5&#45;&gt;1</title>
<path fill="none" stroke="#c0c0c0" stroke-width="2" d="M131.9571,-290.9972C118.1622,-281.7409 102.7239,-268.4801 95.0664,-252 85.846,-232.1563 91.6966,-207.7053 99.1028,-189.2994"/>
<polygon fill="#c0c0c0" stroke="#c0c0c0" stroke-width="2" points="102.3598,-190.587 103.1683,-180.0231 95.9485,-187.7771 102.3598,-190.587"/>
</g>
<!-- 5&#45;&gt;2 -->
<g id="edge7" class="edge">
<title>5&#45;&gt;2</title>
<path fill="none" stroke="#c0c0c0" stroke-width="2" d="M131.7353,-289.4695C117.0877,-279.7507 99.3713,-266.5354 86.0664,-252 68.826,-233.1651 54.0491,-208.1465 44.167,-189.2688"/>
<polygon fill="#c0c0c0" stroke="#c0c0c0" stroke-width="2" points="47.2482,-187.6065 39.5892,-180.286 41.0114,-190.7849 47.2482,-187.6065"/>
</g>
<!-- 5&#45;&gt;3 -->
<g id="edge9" class="edge">
<title>5&#45;&gt;3</title>
<path fill="none" stroke="#c0c0c0" stroke-width="2" d="M177.224,-287.7286C185.6154,-277.9911 194.6787,-265.2949 199.0664,-252 205.6586,-232.0255 204.7666,-208.1783 202.4378,-190.0511"/>
<polygon fill="#c0c0c0" stroke="#c0c0c0" stroke-width="2" points="205.8915,-189.4814 200.9462,-180.1115 198.969,-190.5202 205.8915,-189.4814"/>
</g>
<!-- 5&#45;&gt;4 -->
<g id="edge13" class="edge">
<title>5&#45;&gt;4</title>
<path fill="none" stroke="#c0c0c0" stroke-width="2" d="M182.6485,-287.837C193.7896,-278.2186 206.4929,-265.5944 215.0664,-252 241.3119,-210.3845 249.0094,-152.3205 251.2239,-118.1923"/>
<polygon fill="#c0c0c0" stroke="#c0c0c0" stroke-width="2" points="254.7296,-118.1761 251.7667,-108.004 247.7395,-117.8036 254.7296,-118.1761"/>
</g>
<!-- 6 -->
<g id="node7" class="node">
<title>6</title>
<path fill="none" stroke="#56d8d8" stroke-width="2" stroke-dasharray="5,2" d="M178.0762,-252C178.0762,-252 116.0566,-252 116.0566,-252 110.0566,-252 104.0566,-246 104.0566,-240 104.0566,-240 104.0566,-228 104.0566,-228 104.0566,-222 110.0566,-216 116.0566,-216 116.0566,-216 178.0762,-216 178.0762,-216 184.0762,-216 190.0762,-222 190.0762,-228 190.0762,-228 190.0762,-240 190.0762,-240 190.0762,-246 184.0762,-252 178.0762,-252"/>
<text text-anchor="middle" x="147.0664" y="-231" font-family="sans" font-size="10.00" fill="#000000">FixChromName</text>
</g>
<!-- 5&#45;&gt;6 -->
<g id="edge15" class="edge">
<title>5&#45;&gt;6</title>
<path fill="none" stroke="#c0c0c0" stroke-width="2" d="M156.0383,-287.8314C154.7549,-280.131 153.2288,-270.9743 151.8025,-262.4166"/>
<polygon fill="#c0c0c0" stroke="#c0c0c0" stroke-width="2" points="155.2317,-261.7018 150.1353,-252.4133 148.327,-262.8526 155.2317,-261.7018"/>
</g>
<!-- 6&#45;&gt;1 -->
<g id="edge6" class="edge">
<title>6&#45;&gt;1</title>
<path fill="none" stroke="#c0c0c0" stroke-width="2" d="M138.4868,-215.8314C134.7306,-207.8771 130.2407,-198.369 126.0867,-189.5723"/>
<polygon fill="#c0c0c0" stroke="#c0c0c0" stroke-width="2" points="129.1966,-187.9612 121.7616,-180.4133 122.8668,-190.9503 129.1966,-187.9612"/>
</g>
<!-- 6&#45;&gt;2 -->
<g id="edge8" class="edge">
<title>6&#45;&gt;2</title>
<path fill="none" stroke="#c0c0c0" stroke-width="2" d="M117.7947,-215.8314C102.9576,-206.6221 84.7649,-195.3301 68.8802,-185.4706"/>
<polygon fill="#c0c0c0" stroke="#c0c0c0" stroke-width="2" points="70.6709,-182.4628 60.3287,-180.1628 66.9794,-188.4102 70.6709,-182.4628"/>
</g>
<!-- 6&#45;&gt;3 -->
<g id="edge10" class="edge">
<title>6&#45;&gt;3</title>
<path fill="none" stroke="#c0c0c0" stroke-width="2" d="M159.6835,-215.8314C165.3836,-207.6232 172.2327,-197.7606 178.5023,-188.7323"/>
<polygon fill="#c0c0c0" stroke="#c0c0c0" stroke-width="2" points="181.4502,-190.6234 184.2794,-180.4133 175.7006,-186.6306 181.4502,-190.6234"/>
</g>
<!-- 7 -->
<g id="node8" class="node">
<title>7</title>
<path fill="none" stroke="#80d856" stroke-width="2" stroke-dasharray="5,2" d="M312.3227,-396C312.3227,-396 267.8101,-396 267.8101,-396 261.8101,-396 255.8101,-390 255.8101,-384 255.8101,-384 255.8101,-372 255.8101,-372 255.8101,-366 261.8101,-360 267.8101,-360 267.8101,-360 312.3227,-360 312.3227,-360 318.3227,-360 324.3227,-366 324.3227,-372 324.3227,-372 324.3227,-384 324.3227,-384 324.3227,-390 318.3227,-396 312.3227,-396"/>
<text text-anchor="middle" x="290.0664" y="-375" font-family="sans" font-size="10.00" fill="#000000">bplink2plink</text>
</g>
<!-- 7&#45;&gt;4 -->
<g id="edge12" class="edge">
<title>7&#45;&gt;4</title>
<path fill="none" stroke="#c0c0c0" stroke-width="2" d="M287.6893,-359.9843C281.2649,-311.2939 263.5187,-176.7961 255.7684,-118.0573"/>
<polygon fill="#c0c0c0" stroke="#c0c0c0" stroke-width="2" points="259.2207,-117.4651 254.4426,-108.0089 252.2808,-118.3808 259.2207,-117.4651"/>
</g>
<!-- 8 -->
<g id="node9" class="node">
<title>8</title>
<path fill="none" stroke="#56d8a9" stroke-width="2" stroke-dasharray="5,2" d="M192.0504,-396C192.0504,-396 140.0824,-396 140.0824,-396 134.0824,-396 128.0824,-390 128.0824,-384 128.0824,-384 128.0824,-372 128.0824,-372 128.0824,-366 134.0824,-360 140.0824,-360 140.0824,-360 192.0504,-360 192.0504,-360 198.0504,-360 204.0504,-366 204.0504,-372 204.0504,-372 204.0504,-384 204.0504,-384 204.0504,-390 198.0504,-396 192.0504,-396"/>
<text text-anchor="middle" x="166.0664" y="-375" font-family="sans" font-size="10.00" fill="#000000">bplink2oxford</text>
</g>
<!-- 8&#45;&gt;5 -->
<g id="edge14" class="edge">
<title>8&#45;&gt;5</title>
<path fill="none" stroke="#c0c0c0" stroke-width="2" d="M164.3,-359.8314C163.5514,-352.131 162.6611,-342.9743 161.8291,-334.4166"/>
<polygon fill="#c0c0c0" stroke="#c0c0c0" stroke-width="2" points="165.3079,-334.0276 160.8566,-324.4133 158.3408,-334.7051 165.3079,-334.0276"/>
</g>
<!-- 9 -->
<g id="node10" class="node">
<title>9</title>
<path fill="none" stroke="#d88556" stroke-width="2" stroke-dasharray="5,2" d="M243.0664,-540C243.0664,-540 213.0664,-540 213.0664,-540 207.0664,-540 201.0664,-534 201.0664,-528 201.0664,-528 201.0664,-516 201.0664,-516 201.0664,-510 207.0664,-504 213.0664,-504 213.0664,-504 243.0664,-504 243.0664,-504 249.0664,-504 255.0664,-510 255.0664,-516 255.0664,-516 255.0664,-528 255.0664,-528 255.0664,-534 249.0664,-540 243.0664,-540"/>
<text text-anchor="middle" x="228.0664" y="-519" font-family="sans" font-size="10.00" fill="#000000">chrMT</text>
</g>
<!-- 9&#45;&gt;7 -->
<g id="edge16" class="edge">
<title>9&#45;&gt;7</title>
<path fill="none" stroke="#c0c0c0" stroke-width="2" d="M245.9553,-503.9746C254.7774,-494.1105 264.8353,-481.2265 271.0664,-468 280.283,-448.4363 285.0654,-424.3857 287.5258,-406.0699"/>
<polygon fill="#c0c0c0" stroke="#c0c0c0" stroke-width="2" points="291.0148,-406.3696 288.7221,-396.0258 284.0639,-405.5417 291.0148,-406.3696"/>
</g>
<!-- 9&#45;&gt;8 -->
<g id="edge18" class="edge">
<title>9&#45;&gt;8</title>
<path fill="none" stroke="#c0c0c0" stroke-width="2" d="M210.1775,-503.9746C201.3554,-494.1105 191.2975,-481.2265 185.0664,-468 175.8498,-448.4363 171.0674,-424.3857 168.607,-406.0699"/>
<polygon fill="#c0c0c0" stroke="#c0c0c0" stroke-width="2" points="172.0689,-405.5417 167.4107,-396.0258 165.118,-406.3696 172.0689,-405.5417"/>
</g>
<!-- 10 -->
<g id="node11" class="node">
<title>10</title>
<path fill="none" stroke="#5682d8" stroke-width="2" stroke-dasharray="5,2" d="M249.6847,-468C249.6847,-468 206.4481,-468 206.4481,-468 200.4481,-468 194.4481,-462 194.4481,-456 194.4481,-456 194.4481,-444 194.4481,-444 194.4481,-438 200.4481,-432 206.4481,-432 206.4481,-432 249.6847,-432 249.6847,-432 255.6847,-432 261.6847,-438 261.6847,-444 261.6847,-444 261.6847,-456 261.6847,-456 261.6847,-462 255.6847,-468 249.6847,-468"/>
<text text-anchor="middle" x="228.0664" y="-447" font-family="sans" font-size="10.00" fill="#000000">yri2rcrs_flip</text>
</g>
<!-- 9&#45;&gt;10 -->
<g id="edge21" class="edge">
<title>9&#45;&gt;10</title>
<path fill="none" stroke="#c0c0c0" stroke-width="2" d="M228.0664,-503.8314C228.0664,-496.131 228.0664,-486.9743 228.0664,-478.4166"/>
<polygon fill="#c0c0c0" stroke="#c0c0c0" stroke-width="2" points="231.5665,-478.4132 228.0664,-468.4133 224.5665,-478.4133 231.5665,-478.4132"/>
</g>
<!-- 10&#45;&gt;7 -->
<g id="edge17" class="edge">
<title>10&#45;&gt;7</title>
<path fill="none" stroke="#c0c0c0" stroke-width="2" d="M243.7116,-431.8314C250.9255,-423.454 259.6234,-413.3531 267.5269,-404.1749"/>
<polygon fill="#c0c0c0" stroke="#c0c0c0" stroke-width="2" points="270.3375,-406.2748 274.2105,-396.4133 265.0331,-401.7071 270.3375,-406.2748"/>
</g>
<!-- 10&#45;&gt;8 -->
<g id="edge19" class="edge">
<title>10&#45;&gt;8</title>
<path fill="none" stroke="#c0c0c0" stroke-width="2" d="M212.4212,-431.8314C205.2073,-423.454 196.5094,-413.3531 188.6059,-404.1749"/>
<polygon fill="#c0c0c0" stroke="#c0c0c0" stroke-width="2" points="191.0997,-401.7071 181.9223,-396.4133 185.7953,-406.2748 191.0997,-401.7071"/>
</g>
<!-- 11 -->
<g id="node12" class="node">
<title>11</title>
<path fill="none" stroke="#d8ac56" stroke-width="2" stroke-dasharray="5,2" d="M292.2482,-612C292.2482,-612 163.8847,-612 163.8847,-612 157.8847,-612 151.8847,-606 151.8847,-600 151.8847,-600 151.8847,-588 151.8847,-588 151.8847,-582 157.8847,-576 163.8847,-576 163.8847,-576 292.2482,-576 292.2482,-576 298.2482,-576 304.2482,-582 304.2482,-588 304.2482,-588 304.2482,-600 304.2482,-600 304.2482,-606 298.2482,-612 292.2482,-612"/>
<text text-anchor="middle" x="228.0664" y="-596" font-family="sans" font-size="10.00" fill="#000000">SexFam</text>
<text text-anchor="middle" x="228.0664" y="-586" font-family="sans" font-size="10.00" fill="#000000">sample: ExampleSamplePanel</text>
</g>
<!-- 11&#45;&gt;9 -->
<g id="edge20" class="edge">
<title>11&#45;&gt;9</title>
<path fill="none" stroke="#c0c0c0" stroke-width="2" d="M228.0664,-575.8314C228.0664,-568.131 228.0664,-558.9743 228.0664,-550.4166"/>
<polygon fill="#c0c0c0" stroke="#c0c0c0" stroke-width="2" points="231.5665,-550.4132 228.0664,-540.4133 224.5665,-550.4133 231.5665,-550.4132"/>
</g>
</g>
</svg>
