<?xml version="1.0" encoding="UTF-8" standalone="no"?>
<!DOCTYPE svg PUBLIC "-//W3C//DTD SVG 1.1//EN"
 "http://www.w3.org/Graphics/SVG/1.1/DTD/svg11.dtd">
<!-- Generated by graphviz version 2.40.1 (20161225.0304)
 -->
<!-- Title: snakemake_dag Pages: 1 -->
<svg width="238pt" height="406pt"
 viewBox="0.00 0.00 238.09 406.00" xmlns="http://www.w3.org/2000/svg" xmlns:xlink="http://www.w3.org/1999/xlink">
<g id="graph0" class="graph" transform="scale(1 1) rotate(0) translate(4 402)">
<title>snakemake_dag</title>
<polygon fill="#ffffff" stroke="transparent" points="-4,4 -4,-402 234.0859,-402 234.0859,4 -4,4"/>
<!-- 0 -->
<g id="node1" class="node">
<title>0</title>
<path fill="none" stroke="#59d856" stroke-width="2" stroke-dasharray="5,2" d="M132.0195,-36C132.0195,-36 102.0195,-36 102.0195,-36 96.0195,-36 90.0195,-30 90.0195,-24 90.0195,-24 90.0195,-12 90.0195,-12 90.0195,-6 96.0195,0 102.0195,0 102.0195,0 132.0195,0 132.0195,0 138.0195,0 144.0195,-6 144.0195,-12 144.0195,-12 144.0195,-24 144.0195,-24 144.0195,-30 138.0195,-36 132.0195,-36"/>
<text text-anchor="middle" x="117.0195" y="-15" font-family="sans" font-size="10.00" fill="#000000">all</text>
</g>
<!-- 1 -->
<g id="node2" class="node">
<title>1</title>
<path fill="none" stroke="#d89556" stroke-width="2" stroke-dasharray="5,2" d="M54.0586,-108C54.0586,-108 11.9805,-108 11.9805,-108 5.9805,-108 -.0195,-102 -.0195,-96 -.0195,-96 -.0195,-84 -.0195,-84 -.0195,-78 5.9805,-72 11.9805,-72 11.9805,-72 54.0586,-72 54.0586,-72 60.0586,-72 66.0586,-78 66.0586,-84 66.0586,-84 66.0586,-96 66.0586,-96 66.0586,-102 60.0586,-108 54.0586,-108"/>
<text text-anchor="middle" x="33.0195" y="-87" font-family="sans" font-size="10.00" fill="#000000">oxford2ped</text>
</g>
<!-- 1&#45;&gt;0 -->
<g id="edge1" class="edge">
<title>1&#45;&gt;0</title>
<path fill="none" stroke="#c0c0c0" stroke-width="2" d="M54.2163,-71.8314C64.463,-63.0485 76.9198,-52.3712 88.0292,-42.8489"/>
<polygon fill="#c0c0c0" stroke="#c0c0c0" stroke-width="2" points="90.5148,-45.3282 95.8296,-36.1628 85.9592,-40.0134 90.5148,-45.3282"/>
</g>
<!-- 2 -->
<g id="node3" class="node">
<title>2</title>
<path fill="none" stroke="#56d89a" stroke-width="2" stroke-dasharray="5,2" d="M138.0586,-108C138.0586,-108 95.9805,-108 95.9805,-108 89.9805,-108 83.9805,-102 83.9805,-96 83.9805,-96 83.9805,-84 83.9805,-84 83.9805,-78 89.9805,-72 95.9805,-72 95.9805,-72 138.0586,-72 138.0586,-72 144.0586,-72 150.0586,-78 150.0586,-84 150.0586,-84 150.0586,-96 150.0586,-96 150.0586,-102 144.0586,-108 138.0586,-108"/>
<text text-anchor="middle" x="117.0195" y="-87" font-family="sans" font-size="10.00" fill="#000000">oxford2bed</text>
</g>
<!-- 2&#45;&gt;0 -->
<g id="edge2" class="edge">
<title>2&#45;&gt;0</title>
<path fill="none" stroke="#c0c0c0" stroke-width="2" d="M117.0195,-71.8314C117.0195,-64.131 117.0195,-54.9743 117.0195,-46.4166"/>
<polygon fill="#c0c0c0" stroke="#c0c0c0" stroke-width="2" points="120.5196,-46.4132 117.0195,-36.4133 113.5196,-46.4133 120.5196,-46.4132"/>
</g>
<!-- 3 -->
<g id="node4" class="node">
<title>3</title>
<path fill="none" stroke="#d6d856" stroke-width="2" stroke-dasharray="5,2" d="M218.1525,-108C218.1525,-108 179.8866,-108 179.8866,-108 173.8866,-108 167.8866,-102 167.8866,-96 167.8866,-96 167.8866,-84 167.8866,-84 167.8866,-78 173.8866,-72 179.8866,-72 179.8866,-72 218.1525,-72 218.1525,-72 224.1525,-72 230.1525,-78 230.1525,-84 230.1525,-84 230.1525,-96 230.1525,-96 230.1525,-102 224.1525,-108 218.1525,-108"/>
<text text-anchor="middle" x="199.0195" y="-87" font-family="sans" font-size="10.00" fill="#000000">oxford2vcf</text>
</g>
<!-- 3&#45;&gt;0 -->
<g id="edge3" class="edge">
<title>3&#45;&gt;0</title>
<path fill="none" stroke="#c0c0c0" stroke-width="2" d="M178.3275,-71.8314C168.3247,-63.0485 156.1645,-52.3712 145.3196,-42.8489"/>
<polygon fill="#c0c0c0" stroke="#c0c0c0" stroke-width="2" points="147.5287,-40.1308 137.705,-36.1628 142.9101,-45.3909 147.5287,-40.1308"/>
</g>
<!-- 4 -->
<g id="node5" class="node">
<title>4</title>
<path fill="none" stroke="#569ad8" stroke-width="2" stroke-dasharray="5,2" d="M128.0293,-180C128.0293,-180 66.0098,-180 66.0098,-180 60.0098,-180 54.0098,-174 54.0098,-168 54.0098,-168 54.0098,-156 54.0098,-156 54.0098,-150 60.0098,-144 66.0098,-144 66.0098,-144 128.0293,-144 128.0293,-144 134.0293,-144 140.0293,-150 140.0293,-156 140.0293,-156 140.0293,-168 140.0293,-168 140.0293,-174 134.0293,-180 128.0293,-180"/>
<text text-anchor="middle" x="97.0195" y="-159" font-family="sans" font-size="10.00" fill="#000000">FixChromName</text>
</g>
<!-- 4&#45;&gt;1 -->
<g id="edge4" class="edge">
<title>4&#45;&gt;1</title>
<path fill="none" stroke="#c0c0c0" stroke-width="2" d="M80.8696,-143.8314C73.3479,-135.3694 64.263,-125.1489 56.0392,-115.8971"/>
<polygon fill="#c0c0c0" stroke="#c0c0c0" stroke-width="2" points="58.6465,-113.5621 49.3869,-108.4133 53.4146,-118.2127 58.6465,-113.5621"/>
</g>
<!-- 4&#45;&gt;2 -->
<g id="edge6" class="edge">
<title>4&#45;&gt;2</title>
<path fill="none" stroke="#c0c0c0" stroke-width="2" d="M102.0664,-143.8314C104.2289,-136.0463 106.8048,-126.7729 109.2043,-118.1347"/>
<polygon fill="#c0c0c0" stroke="#c0c0c0" stroke-width="2" points="112.6005,-118.9852 111.9047,-108.4133 105.8559,-117.1117 112.6005,-118.9852"/>
</g>
<!-- 4&#45;&gt;3 -->
<g id="edge8" class="edge">
<title>4&#45;&gt;3</title>
<path fill="none" stroke="#c0c0c0" stroke-width="2" d="M122.7584,-143.8314C135.5633,-134.7927 151.2104,-123.7476 164.9915,-114.0198"/>
<polygon fill="#c0c0c0" stroke="#c0c0c0" stroke-width="2" points="167.1376,-116.7891 173.2889,-108.1628 163.1008,-111.0703 167.1376,-116.7891"/>
</g>
<!-- 5 -->
<g id="node6" class="node">
<title>5</title>
<path fill="none" stroke="#97d856" stroke-width="2" stroke-dasharray="5,2" d="M147.0195,-252C147.0195,-252 117.0195,-252 117.0195,-252 111.0195,-252 105.0195,-246 105.0195,-240 105.0195,-240 105.0195,-228 105.0195,-228 105.0195,-222 111.0195,-216 117.0195,-216 117.0195,-216 147.0195,-216 147.0195,-216 153.0195,-216 159.0195,-222 159.0195,-228 159.0195,-228 159.0195,-240 159.0195,-240 159.0195,-246 153.0195,-252 147.0195,-252"/>
<text text-anchor="middle" x="132.0195" y="-231" font-family="sans" font-size="10.00" fill="#000000">Impute2</text>
</g>
<!-- 5&#45;&gt;1 -->
<g id="edge5" class="edge">
<title>5&#45;&gt;1</title>
<path fill="none" stroke="#c0c0c0" stroke-width="2" d="M104.6141,-224.3804C84.7082,-215.8962 58.9181,-201.4975 45.0195,-180 33.2316,-161.7673 30.6545,-137.1015 30.7891,-118.2028"/>
<polygon fill="#c0c0c0" stroke="#c0c0c0" stroke-width="2" points="34.2905,-118.2131 31.1168,-108.1047 27.2942,-117.9859 34.2905,-118.2131"/>
</g>
<!-- 5&#45;&gt;2 -->
<g id="edge7" class="edge">
<title>5&#45;&gt;2</title>
<path fill="none" stroke="#c0c0c0" stroke-width="2" d="M140.2353,-215.8751C147.4222,-197.5593 155.7439,-168.5374 149.0195,-144 146.4391,-134.5837 141.7453,-125.1443 136.7336,-116.8513"/>
<polygon fill="#c0c0c0" stroke="#c0c0c0" stroke-width="2" points="139.617,-114.8644 131.2555,-108.3577 133.7344,-118.6585 139.617,-114.8644"/>
</g>
<!-- 5&#45;&gt;3 -->
<g id="edge9" class="edge">
<title>5&#45;&gt;3</title>
<path fill="none" stroke="#c0c0c0" stroke-width="2" d="M143.7462,-215.9186C150.1651,-205.6207 158.011,-192.3464 164.0195,-180 173.8776,-159.7436 183.0299,-135.9554 189.5013,-117.9242"/>
<polygon fill="#c0c0c0" stroke="#c0c0c0" stroke-width="2" points="192.8698,-118.896 192.8973,-108.3012 186.2688,-116.5665 192.8698,-118.896"/>
</g>
<!-- 5&#45;&gt;4 -->
<g id="edge10" class="edge">
<title>5&#45;&gt;4</title>
<path fill="none" stroke="#c0c0c0" stroke-width="2" d="M123.1876,-215.8314C119.3209,-207.8771 114.6989,-198.369 110.4227,-189.5723"/>
<polygon fill="#c0c0c0" stroke="#c0c0c0" stroke-width="2" points="113.4902,-187.8768 105.9704,-180.4133 107.1946,-190.9371 113.4902,-187.8768"/>
</g>
<!-- 6 -->
<g id="node7" class="node">
<title>6</title>
<path fill="none" stroke="#d85656" stroke-width="2" stroke-dasharray="5,2" d="M154.9405,-324C154.9405,-324 109.0986,-324 109.0986,-324 103.0986,-324 97.0986,-318 97.0986,-312 97.0986,-312 97.0986,-300 97.0986,-300 97.0986,-294 103.0986,-288 109.0986,-288 109.0986,-288 154.9405,-288 154.9405,-288 160.9405,-288 166.9405,-294 166.9405,-300 166.9405,-300 166.9405,-312 166.9405,-312 166.9405,-318 160.9405,-324 154.9405,-324"/>
<text text-anchor="middle" x="132.0195" y="-303" font-family="sans" font-size="10.00" fill="#000000">plink2oxford</text>
</g>
<!-- 6&#45;&gt;5 -->
<g id="edge11" class="edge">
<title>6&#45;&gt;5</title>
<path fill="none" stroke="#c0c0c0" stroke-width="2" d="M132.0195,-287.8314C132.0195,-280.131 132.0195,-270.9743 132.0195,-262.4166"/>
<polygon fill="#c0c0c0" stroke="#c0c0c0" stroke-width="2" points="135.5196,-262.4132 132.0195,-252.4133 128.5196,-262.4133 135.5196,-262.4132"/>
</g>
<!-- 7 -->
<g id="node8" class="node">
<title>7</title>
<path fill="none" stroke="#56d8d8" stroke-width="2" stroke-dasharray="5,2" d="M196.2013,-398C196.2013,-398 67.8378,-398 67.8378,-398 61.8378,-398 55.8378,-392 55.8378,-386 55.8378,-386 55.8378,-372 55.8378,-372 55.8378,-366 61.8378,-360 67.8378,-360 67.8378,-360 196.2013,-360 196.2013,-360 202.2013,-360 208.2013,-366 208.2013,-372 208.2013,-372 208.2013,-386 208.2013,-386 208.2013,-392 202.2013,-398 196.2013,-398"/>
<text text-anchor="middle" x="132.0195" y="-386" font-family="sans" font-size="10.00" fill="#000000">SexFam</text>
<text text-anchor="middle" x="132.0195" y="-376" font-family="sans" font-size="10.00" fill="#000000">DataOut: example/imputed</text>
<text text-anchor="middle" x="132.0195" y="-366" font-family="sans" font-size="10.00" fill="#000000">sample: ExampleSamplePanel</text>
</g>
<!-- 7&#45;&gt;6 -->
<g id="edge12" class="edge">
<title>7&#45;&gt;6</title>
<path fill="none" stroke="#c0c0c0" stroke-width="2" d="M132.0195,-359.8201C132.0195,-352.0975 132.0195,-343.0282 132.0195,-334.5585"/>
<polygon fill="#c0c0c0" stroke="#c0c0c0" stroke-width="2" points="135.5196,-334.2973 132.0195,-324.2973 128.5196,-334.2974 135.5196,-334.2973"/>
</g>
</g>
</svg>
