<?xml version="1.0" encoding="UTF-8" standalone="no"?>
<!DOCTYPE svg PUBLIC "-//W3C//DTD SVG 1.1//EN"
 "http://www.w3.org/Graphics/SVG/1.1/DTD/svg11.dtd">
<!-- Generated by graphviz version 2.40.1 (20161225.0304)
 -->
<!-- Title: snakemake_dag Pages: 1 -->
<svg width="348pt" height="836pt"
 viewBox="0.00 0.00 348.01 836.00" xmlns="http://www.w3.org/2000/svg" xmlns:xlink="http://www.w3.org/1999/xlink">
<g id="graph0" class="graph" transform="scale(1 1) rotate(0) translate(4 832)">
<title>snakemake_dag</title>
<polygon fill="#ffffff" stroke="transparent" points="-4,4 -4,-832 344.0098,-832 344.0098,4 -4,4"/>
<!-- 0 -->
<g id="node1" class="node">
<title>0</title>
<path fill="none" stroke="#56d8d8" stroke-width="2" stroke-dasharray="5,2" d="M188,-36C188,-36 158,-36 158,-36 152,-36 146,-30 146,-24 146,-24 146,-12 146,-12 146,-6 152,0 158,0 158,0 188,0 188,0 194,0 200,-6 200,-12 200,-12 200,-24 200,-24 200,-30 194,-36 188,-36"/>
<text text-anchor="middle" x="173" y="-15" font-family="sans" font-size="10.00" fill="#000000">all</text>
</g>
<!-- 1 -->
<g id="node2" class="node">
<title>1</title>
<path fill="none" stroke="#567bd8" stroke-width="2" stroke-dasharray="5,2" d="M149,-108C149,-108 119,-108 119,-108 113,-108 107,-102 107,-96 107,-96 107,-84 107,-84 107,-78 113,-72 119,-72 119,-72 149,-72 149,-72 155,-72 161,-78 161,-84 161,-84 161,-96 161,-96 161,-102 155,-108 149,-108"/>
<text text-anchor="middle" x="134" y="-87" font-family="sans" font-size="10.00" fill="#000000">Oxford</text>
</g>
<!-- 1&#45;&gt;0 -->
<g id="edge1" class="edge">
<title>1&#45;&gt;0</title>
<path fill="none" stroke="#c0c0c0" stroke-width="2" d="M143.8413,-71.8314C148.1957,-63.7925 153.4098,-54.1666 158.2169,-45.2918"/>
<polygon fill="#c0c0c0" stroke="#c0c0c0" stroke-width="2" points="161.3408,-46.8732 163.0261,-36.4133 155.1857,-43.5392 161.3408,-46.8732"/>
</g>
<!-- 2 -->
<g id="node3" class="node">
<title>2</title>
<path fill="none" stroke="#78d856" stroke-width="2" stroke-dasharray="5,2" d="M42,-180C42,-180 12,-180 12,-180 6,-180 0,-174 0,-168 0,-168 0,-156 0,-156 0,-150 6,-144 12,-144 12,-144 42,-144 42,-144 48,-144 54,-150 54,-156 54,-156 54,-168 54,-168 54,-174 48,-180 42,-180"/>
<text text-anchor="middle" x="27" y="-159" font-family="sans" font-size="10.00" fill="#000000">Plink</text>
</g>
<!-- 2&#45;&gt;0 -->
<g id="edge2" class="edge">
<title>2&#45;&gt;0</title>
<path fill="none" stroke="#c0c0c0" stroke-width="2" d="M39.0234,-143.8773C52.1878,-124.7833 74.5635,-94.4294 98,-72 109.981,-60.5338 124.5134,-49.5238 137.5837,-40.4708"/>
<polygon fill="#c0c0c0" stroke="#c0c0c0" stroke-width="2" points="139.6071,-43.3277 145.9202,-34.8192 135.679,-37.5336 139.6071,-43.3277"/>
</g>
<!-- 3 -->
<g id="node4" class="node">
<title>3</title>
<path fill="none" stroke="#d85656" stroke-width="2" stroke-dasharray="5,2" d="M235.3079,-108C235.3079,-108 190.6921,-108 190.6921,-108 184.6921,-108 178.6921,-102 178.6921,-96 178.6921,-96 178.6921,-84 178.6921,-84 178.6921,-78 184.6921,-72 190.6921,-72 190.6921,-72 235.3079,-72 235.3079,-72 241.3079,-72 247.3079,-78 247.3079,-84 247.3079,-84 247.3079,-96 247.3079,-96 247.3079,-102 241.3079,-108 235.3079,-108"/>
<text text-anchor="middle" x="213" y="-87" font-family="sans" font-size="10.00" fill="#000000">GenSample</text>
</g>
<!-- 3&#45;&gt;0 -->
<g id="edge3" class="edge">
<title>3&#45;&gt;0</title>
<path fill="none" stroke="#c0c0c0" stroke-width="2" d="M202.9063,-71.8314C198.4403,-63.7925 193.0925,-54.1666 188.1621,-45.2918"/>
<polygon fill="#c0c0c0" stroke="#c0c0c0" stroke-width="2" points="191.1456,-43.4551 183.2296,-36.4133 185.0265,-46.8546 191.1456,-43.4551"/>
</g>
<!-- 4 -->
<g id="node5" class="node">
<title>4</title>
<path fill="none" stroke="#d8b456" stroke-width="2" stroke-dasharray="5,2" d="M328.0195,-252C328.0195,-252 275.9805,-252 275.9805,-252 269.9805,-252 263.9805,-246 263.9805,-240 263.9805,-240 263.9805,-228 263.9805,-228 263.9805,-222 269.9805,-216 275.9805,-216 275.9805,-216 328.0195,-216 328.0195,-216 334.0195,-216 340.0195,-222 340.0195,-228 340.0195,-228 340.0195,-240 340.0195,-240 340.0195,-246 334.0195,-252 328.0195,-252"/>
<text text-anchor="middle" x="302" y="-231" font-family="sans" font-size="10.00" fill="#000000">MakeMapFile</text>
</g>
<!-- 4&#45;&gt;0 -->
<g id="edge4" class="edge">
<title>4&#45;&gt;0</title>
<path fill="none" stroke="#c0c0c0" stroke-width="2" d="M300.9565,-215.912C298.2873,-183.9349 288.8792,-116.5931 256,-72 244.0351,-55.7723 225.6128,-43.0797 209.1611,-34.089"/>
<polygon fill="#c0c0c0" stroke="#c0c0c0" stroke-width="2" points="210.7653,-30.9783 200.2775,-29.4762 207.5394,-37.1908 210.7653,-30.9783"/>
</g>
<!-- 5 -->
<g id="node6" class="node">
<title>5</title>
<path fill="none" stroke="#97d856" stroke-width="2" stroke-dasharray="5,2" d="M188.1998,-180C188.1998,-180 129.8002,-180 129.8002,-180 123.8002,-180 117.8002,-174 117.8002,-168 117.8002,-168 117.8002,-156 117.8002,-156 117.8002,-150 123.8002,-144 129.8002,-144 129.8002,-144 188.1998,-144 188.1998,-144 194.1998,-144 200.1998,-150 200.1998,-156 200.1998,-156 200.1998,-168 200.1998,-168 200.1998,-174 194.1998,-180 188.1998,-180"/>
<text text-anchor="middle" x="159" y="-159" font-family="sans" font-size="10.00" fill="#000000">RefSampleSex</text>
</g>
<!-- 5&#45;&gt;1 -->
<g id="edge5" class="edge">
<title>5&#45;&gt;1</title>
<path fill="none" stroke="#c0c0c0" stroke-width="2" d="M152.6914,-143.8314C149.9883,-136.0463 146.7684,-126.7729 143.769,-118.1347"/>
<polygon fill="#c0c0c0" stroke="#c0c0c0" stroke-width="2" points="146.98,-116.7119 140.3935,-108.4133 140.3673,-119.0081 146.98,-116.7119"/>
</g>
<!-- 5&#45;&gt;3 -->
<g id="edge8" class="edge">
<title>5&#45;&gt;3</title>
<path fill="none" stroke="#c0c0c0" stroke-width="2" d="M172.6265,-143.8314C178.846,-135.5386 186.3322,-125.557 193.16,-116.4533"/>
<polygon fill="#c0c0c0" stroke="#c0c0c0" stroke-width="2" points="195.99,-118.5133 199.19,-108.4133 190.39,-114.3133 195.99,-118.5133"/>
</g>
<!-- 6 -->
<g id="node7" class="node">
<title>6</title>
<path fill="none" stroke="#d89556" stroke-width="2" stroke-dasharray="5,2" d="M182.5774,-324C182.5774,-324 135.4226,-324 135.4226,-324 129.4226,-324 123.4226,-318 123.4226,-312 123.4226,-312 123.4226,-300 123.4226,-300 123.4226,-294 129.4226,-288 135.4226,-288 135.4226,-288 182.5774,-288 182.5774,-288 188.5774,-288 194.5774,-294 194.5774,-300 194.5774,-300 194.5774,-312 194.5774,-312 194.5774,-318 188.5774,-324 182.5774,-324"/>
<text text-anchor="middle" x="159" y="-303" font-family="sans" font-size="10.00" fill="#000000">SiteFiltration</text>
</g>
<!-- 6&#45;&gt;1 -->
<g id="edge6" class="edge">
<title>6&#45;&gt;1</title>
<path fill="none" stroke="#c0c0c0" stroke-width="2" d="M131.0391,-287.862C119.446,-278.6621 107.2598,-266.3809 101,-252 81.5027,-207.2079 102.517,-150.3689 118.7935,-117.3002"/>
<polygon fill="#c0c0c0" stroke="#c0c0c0" stroke-width="2" points="121.9918,-118.7332 123.4315,-108.2367 115.7603,-115.5444 121.9918,-118.7332"/>
</g>
<!-- 6&#45;&gt;2 -->
<g id="edge7" class="edge">
<title>6&#45;&gt;2</title>
<path fill="none" stroke="#c0c0c0" stroke-width="2" d="M123.0554,-291.0367C104.6883,-281.9405 83.0914,-268.8177 68,-252 51.9613,-234.1267 41.2098,-208.9193 34.7556,-189.7266"/>
<polygon fill="#c0c0c0" stroke="#c0c0c0" stroke-width="2" points="38.0432,-188.5147 31.6864,-180.0387 31.3701,-190.6289 38.0432,-188.5147"/>
</g>
<!-- 6&#45;&gt;3 -->
<g id="edge9" class="edge">
<title>6&#45;&gt;3</title>
<path fill="none" stroke="#c0c0c0" stroke-width="2" d="M186.9609,-287.862C198.554,-278.6621 210.7402,-266.3809 217,-252 235.9974,-208.3563 228.137,-151.6416 220.6215,-118.1958"/>
<polygon fill="#c0c0c0" stroke="#c0c0c0" stroke-width="2" points="223.9607,-117.1105 218.2281,-108.2005 217.1531,-118.7407 223.9607,-117.1105"/>
</g>
<!-- 6&#45;&gt;4 -->
<g id="edge10" class="edge">
<title>6&#45;&gt;4</title>
<path fill="none" stroke="#c0c0c0" stroke-width="2" d="M194.7161,-288.0171C213.6551,-278.4814 237.1073,-266.6733 257.2499,-256.5315"/>
<polygon fill="#c0c0c0" stroke="#c0c0c0" stroke-width="2" points="258.8859,-259.6265 266.2436,-252.0032 255.7379,-253.3742 258.8859,-259.6265"/>
</g>
<!-- 7 -->
<g id="node8" class="node">
<title>7</title>
<path fill="none" stroke="#56d87b" stroke-width="2" stroke-dasharray="5,2" d="M195.6427,-252C195.6427,-252 122.3573,-252 122.3573,-252 116.3573,-252 110.3573,-246 110.3573,-240 110.3573,-240 110.3573,-228 110.3573,-228 110.3573,-222 116.3573,-216 122.3573,-216 122.3573,-216 195.6427,-216 195.6427,-216 201.6427,-216 207.6427,-222 207.6427,-228 207.6427,-228 207.6427,-240 207.6427,-240 207.6427,-246 201.6427,-252 195.6427,-252"/>
<text text-anchor="middle" x="159" y="-231" font-family="sans" font-size="10.00" fill="#000000">RefSampleNames</text>
</g>
<!-- 6&#45;&gt;7 -->
<g id="edge13" class="edge">
<title>6&#45;&gt;7</title>
<path fill="none" stroke="#c0c0c0" stroke-width="2" d="M159,-287.8314C159,-280.131 159,-270.9743 159,-262.4166"/>
<polygon fill="#c0c0c0" stroke="#c0c0c0" stroke-width="2" points="162.5001,-262.4132 159,-252.4133 155.5001,-262.4133 162.5001,-262.4132"/>
</g>
<!-- 7&#45;&gt;5 -->
<g id="edge11" class="edge">
<title>7&#45;&gt;5</title>
<path fill="none" stroke="#c0c0c0" stroke-width="2" d="M159,-215.8314C159,-208.131 159,-198.9743 159,-190.4166"/>
<polygon fill="#c0c0c0" stroke="#c0c0c0" stroke-width="2" points="162.5001,-190.4132 159,-180.4133 155.5001,-190.4133 162.5001,-190.4132"/>
</g>
<!-- 8 -->
<g id="node9" class="node">
<title>8</title>
<path fill="none" stroke="#56d89a" stroke-width="2" stroke-dasharray="5,2" d="M198.2045,-396C198.2045,-396 119.7955,-396 119.7955,-396 113.7955,-396 107.7955,-390 107.7955,-384 107.7955,-384 107.7955,-372 107.7955,-372 107.7955,-366 113.7955,-360 119.7955,-360 119.7955,-360 198.2045,-360 198.2045,-360 204.2045,-360 210.2045,-366 210.2045,-372 210.2045,-372 210.2045,-384 210.2045,-384 210.2045,-390 204.2045,-396 198.2045,-396"/>
<text text-anchor="middle" x="159" y="-375" font-family="sans" font-size="10.00" fill="#000000">RemoveLowQuality</text>
</g>
<!-- 8&#45;&gt;6 -->
<g id="edge12" class="edge">
<title>8&#45;&gt;6</title>
<path fill="none" stroke="#c0c0c0" stroke-width="2" d="M159,-359.8314C159,-352.131 159,-342.9743 159,-334.4166"/>
<polygon fill="#c0c0c0" stroke="#c0c0c0" stroke-width="2" points="162.5001,-334.4132 159,-324.4133 155.5001,-334.4133 162.5001,-334.4132"/>
</g>
<!-- 9 -->
<g id="node10" class="node">
<title>9</title>
<path fill="none" stroke="#569ad8" stroke-width="2" stroke-dasharray="5,2" d="M159.5079,-684C159.5079,-684 68.4921,-684 68.4921,-684 62.4921,-684 56.4921,-678 56.4921,-672 56.4921,-672 56.4921,-660 56.4921,-660 56.4921,-654 62.4921,-648 68.4921,-648 68.4921,-648 159.5079,-648 159.5079,-648 165.5079,-648 171.5079,-654 171.5079,-660 171.5079,-660 171.5079,-672 171.5079,-672 171.5079,-678 165.5079,-684 159.5079,-684"/>
<text text-anchor="middle" x="114" y="-663" font-family="sans" font-size="10.00" fill="#000000">LowQualitySequences</text>
</g>
<!-- 9&#45;&gt;8 -->
<g id="edge14" class="edge">
<title>9&#45;&gt;8</title>
<path fill="none" stroke="#c0c0c0" stroke-width="2" d="M116.7233,-647.7831C122.6295,-608.3926 137.1225,-512.3586 150,-432 151.3323,-423.6858 152.8204,-414.659 154.1968,-406.4084"/>
<polygon fill="#c0c0c0" stroke="#c0c0c0" stroke-width="2" points="157.6588,-406.9261 155.8605,-396.485 150.7551,-405.7687 157.6588,-406.9261"/>
</g>
<!-- 10 -->
<g id="node11" class="node">
<title>10</title>
<path fill="none" stroke="#56b9d8" stroke-width="2" stroke-dasharray="5,2" d="M228.5821,-468C228.5821,-468 171.4179,-468 171.4179,-468 165.4179,-468 159.4179,-462 159.4179,-456 159.4179,-456 159.4179,-444 159.4179,-444 159.4179,-438 165.4179,-432 171.4179,-432 171.4179,-432 228.5821,-432 228.5821,-432 234.5821,-432 240.5821,-438 240.5821,-444 240.5821,-444 240.5821,-456 240.5821,-456 240.5821,-462 234.5821,-468 228.5821,-468"/>
<text text-anchor="middle" x="200" y="-447" font-family="sans" font-size="10.00" fill="#000000">RemovePartial</text>
</g>
<!-- 10&#45;&gt;8 -->
<g id="edge15" class="edge">
<title>10&#45;&gt;8</title>
<path fill="none" stroke="#c0c0c0" stroke-width="2" d="M189.654,-431.8314C185.0763,-423.7925 179.5948,-414.1666 174.5412,-405.2918"/>
<polygon fill="#c0c0c0" stroke="#c0c0c0" stroke-width="2" points="177.4752,-403.3712 169.4853,-396.4133 171.3923,-406.8351 177.4752,-403.3712"/>
</g>
<!-- 11 -->
<g id="node12" class="node">
<title>11</title>
<path fill="none" stroke="#d87556" stroke-width="2" stroke-dasharray="5,2" d="M206.3796,-828C206.3796,-828 125.6204,-828 125.6204,-828 119.6204,-828 113.6204,-822 113.6204,-816 113.6204,-816 113.6204,-804 113.6204,-804 113.6204,-798 119.6204,-792 125.6204,-792 125.6204,-792 206.3796,-792 206.3796,-792 212.3796,-792 218.3796,-798 218.3796,-804 218.3796,-804 218.3796,-816 218.3796,-816 218.3796,-822 212.3796,-828 206.3796,-828"/>
<text text-anchor="middle" x="166" y="-807" font-family="sans" font-size="10.00" fill="#000000">ambiguous2missing</text>
</g>
<!-- 11&#45;&gt;9 -->
<g id="edge16" class="edge">
<title>11&#45;&gt;9</title>
<path fill="none" stroke="#c0c0c0" stroke-width="2" d="M159.4142,-791.7623C150.4667,-766.9846 134.3924,-722.4714 123.9645,-693.5939"/>
<polygon fill="#c0c0c0" stroke="#c0c0c0" stroke-width="2" points="127.2208,-692.3064 120.5324,-684.0896 120.6369,-694.6839 127.2208,-692.3064"/>
</g>
<!-- 15 -->
<g id="node16" class="node">
<title>15</title>
<path fill="none" stroke="#d6d856" stroke-width="2" stroke-dasharray="5,2" d="M222.0195,-756C222.0195,-756 189.9805,-756 189.9805,-756 183.9805,-756 177.9805,-750 177.9805,-744 177.9805,-744 177.9805,-732 177.9805,-732 177.9805,-726 183.9805,-720 189.9805,-720 189.9805,-720 222.0195,-720 222.0195,-720 228.0195,-720 234.0195,-726 234.0195,-732 234.0195,-732 234.0195,-744 234.0195,-744 234.0195,-750 228.0195,-756 222.0195,-756"/>
<text text-anchor="middle" x="206" y="-735" font-family="sans" font-size="10.00" fill="#000000">fasta2vcf</text>
</g>
<!-- 11&#45;&gt;15 -->
<g id="edge21" class="edge">
<title>11&#45;&gt;15</title>
<path fill="none" stroke="#c0c0c0" stroke-width="2" d="M176.0937,-791.8314C180.5597,-783.7925 185.9075,-774.1666 190.8379,-765.2918"/>
<polygon fill="#c0c0c0" stroke="#c0c0c0" stroke-width="2" points="193.9735,-766.8546 195.7704,-756.4133 187.8544,-763.4551 193.9735,-766.8546"/>
</g>
<!-- 12 -->
<g id="node13" class="node">
<title>12</title>
<path fill="none" stroke="#59d856" stroke-width="2" stroke-dasharray="5,2" d="M239.5917,-540C239.5917,-540 172.4083,-540 172.4083,-540 166.4083,-540 160.4083,-534 160.4083,-528 160.4083,-528 160.4083,-516 160.4083,-516 160.4083,-510 166.4083,-504 172.4083,-504 172.4083,-504 239.5917,-504 239.5917,-504 245.5917,-504 251.5917,-510 251.5917,-516 251.5917,-516 251.5917,-528 251.5917,-528 251.5917,-534 245.5917,-540 239.5917,-540"/>
<text text-anchor="middle" x="206" y="-519" font-family="sans" font-size="10.00" fill="#000000">RemoveAncients</text>
</g>
<!-- 12&#45;&gt;10 -->
<g id="edge17" class="edge">
<title>12&#45;&gt;10</title>
<path fill="none" stroke="#c0c0c0" stroke-width="2" d="M204.4859,-503.8314C203.8442,-496.131 203.0812,-486.9743 202.3681,-478.4166"/>
<polygon fill="#c0c0c0" stroke="#c0c0c0" stroke-width="2" points="205.8529,-478.088 201.5344,-468.4133 198.8771,-478.6694 205.8529,-478.088"/>
</g>
<!-- 13 -->
<g id="node14" class="node">
<title>13</title>
<path fill="none" stroke="#b6d856" stroke-width="2" stroke-dasharray="5,2" d="M254.7191,-612C254.7191,-612 171.2809,-612 171.2809,-612 165.2809,-612 159.2809,-606 159.2809,-600 159.2809,-600 159.2809,-588 159.2809,-588 159.2809,-582 165.2809,-576 171.2809,-576 171.2809,-576 254.7191,-576 254.7191,-576 260.7191,-576 266.7191,-582 266.7191,-588 266.7191,-588 266.7191,-600 266.7191,-600 266.7191,-606 260.7191,-612 254.7191,-612"/>
<text text-anchor="middle" x="213" y="-591" font-family="sans" font-size="10.00" fill="#000000">RemoveNonSapiens</text>
</g>
<!-- 13&#45;&gt;12 -->
<g id="edge18" class="edge">
<title>13&#45;&gt;12</title>
<path fill="none" stroke="#c0c0c0" stroke-width="2" d="M211.2336,-575.8314C210.485,-568.131 209.5947,-558.9743 208.7627,-550.4166"/>
<polygon fill="#c0c0c0" stroke="#c0c0c0" stroke-width="2" points="212.2415,-550.0276 207.7902,-540.4133 205.2744,-550.7051 212.2415,-550.0276"/>
</g>
<!-- 14 -->
<g id="node15" class="node">
<title>14</title>
<path fill="none" stroke="#56d8b9" stroke-width="2" stroke-dasharray="5,2" d="M236.2933,-684C236.2933,-684 201.7067,-684 201.7067,-684 195.7067,-684 189.7067,-678 189.7067,-672 189.7067,-672 189.7067,-660 189.7067,-660 189.7067,-654 195.7067,-648 201.7067,-648 201.7067,-648 236.2933,-648 236.2933,-648 242.2933,-648 248.2933,-654 248.2933,-660 248.2933,-660 248.2933,-672 248.2933,-672 248.2933,-678 242.2933,-684 236.2933,-684"/>
<text text-anchor="middle" x="219" y="-663" font-family="sans" font-size="10.00" fill="#000000">VcfCheck</text>
</g>
<!-- 14&#45;&gt;13 -->
<g id="edge19" class="edge">
<title>14&#45;&gt;13</title>
<path fill="none" stroke="#c0c0c0" stroke-width="2" d="M217.4859,-647.8314C216.8442,-640.131 216.0812,-630.9743 215.3681,-622.4166"/>
<polygon fill="#c0c0c0" stroke="#c0c0c0" stroke-width="2" points="218.8529,-622.088 214.5344,-612.4133 211.8771,-622.6694 218.8529,-622.088"/>
</g>
<!-- 15&#45;&gt;14 -->
<g id="edge20" class="edge">
<title>15&#45;&gt;14</title>
<path fill="none" stroke="#c0c0c0" stroke-width="2" d="M209.2804,-719.8314C210.6708,-712.131 212.3241,-702.9743 213.8692,-694.4166"/>
<polygon fill="#c0c0c0" stroke="#c0c0c0" stroke-width="2" points="217.3428,-694.8761 215.6754,-684.4133 210.4542,-693.6322 217.3428,-694.8761"/>
</g>
</g>
</svg>
