<?xml version="1.0" encoding="UTF-8" standalone="no"?>
<!DOCTYPE svg PUBLIC "-//W3C//DTD SVG 1.1//EN"
 "http://www.w3.org/Graphics/SVG/1.1/DTD/svg11.dtd">
<!-- Generated by graphviz version 2.40.1 (20161225.0304)
 -->
<!-- Title: snakemake_dag Pages: 1 -->
<svg width="322pt" height="620pt"
 viewBox="0.00 0.00 322.19 620.00" xmlns="http://www.w3.org/2000/svg" xmlns:xlink="http://www.w3.org/1999/xlink">
<g id="graph0" class="graph" transform="scale(1 1) rotate(0) translate(4 616)">
<title>snakemake_dag</title>
<polygon fill="#ffffff" stroke="transparent" points="-4,4 -4,-616 318.1943,-616 318.1943,4 -4,4"/>
<!-- 0 -->
<g id="node1" class="node">
<title>0</title>
<path fill="none" stroke="#d85656" stroke-width="2" stroke-dasharray="5,2" d="M192.1279,-36C192.1279,-36 162.1279,-36 162.1279,-36 156.1279,-36 150.1279,-30 150.1279,-24 150.1279,-24 150.1279,-12 150.1279,-12 150.1279,-6 156.1279,0 162.1279,0 162.1279,0 192.1279,0 192.1279,0 198.1279,0 204.1279,-6 204.1279,-12 204.1279,-12 204.1279,-24 204.1279,-24 204.1279,-30 198.1279,-36 192.1279,-36"/>
<text text-anchor="middle" x="177.1279" y="-15" font-family="sans" font-size="10.00" fill="#000000">all</text>
</g>
<!-- 1 -->
<g id="node2" class="node">
<title>1</title>
<path fill="none" stroke="#56d882" stroke-width="2" stroke-dasharray="5,2" d="M138.167,-180C138.167,-180 96.0889,-180 96.0889,-180 90.0889,-180 84.0889,-174 84.0889,-168 84.0889,-168 84.0889,-156 84.0889,-156 84.0889,-150 90.0889,-144 96.0889,-144 96.0889,-144 138.167,-144 138.167,-144 144.167,-144 150.167,-150 150.167,-156 150.167,-156 150.167,-168 150.167,-168 150.167,-174 144.167,-180 138.167,-180"/>
<text text-anchor="middle" x="117.1279" y="-159" font-family="sans" font-size="10.00" fill="#000000">oxford2ped</text>
</g>
<!-- 1&#45;&gt;0 -->
<g id="edge1" class="edge">
<title>1&#45;&gt;0</title>
<path fill="none" stroke="#c0c0c0" stroke-width="2" d="M124.727,-143.7623C135.051,-118.9846 153.5982,-74.4714 165.6305,-45.5939"/>
<polygon fill="#c0c0c0" stroke="#c0c0c0" stroke-width="2" points="168.9751,-46.6666 169.5906,-36.0896 162.5136,-43.9742 168.9751,-46.6666"/>
</g>
<!-- 2 -->
<g id="node3" class="node">
<title>2</title>
<path fill="none" stroke="#d88556" stroke-width="2" stroke-dasharray="5,2" d="M113.4601,-108C113.4601,-108 18.7958,-108 18.7958,-108 12.7958,-108 6.7958,-102 6.7958,-96 6.7958,-96 6.7958,-84 6.7958,-84 6.7958,-78 12.7958,-72 18.7958,-72 18.7958,-72 113.4601,-72 113.4601,-72 119.4601,-72 125.4601,-78 125.4601,-84 125.4601,-84 125.4601,-96 125.4601,-96 125.4601,-102 119.4601,-108 113.4601,-108"/>
<text text-anchor="middle" x="66.1279" y="-87" font-family="sans" font-size="10.00" fill="#000000">Imputation_QC_Report</text>
</g>
<!-- 1&#45;&gt;2 -->
<g id="edge7" class="edge">
<title>1&#45;&gt;2</title>
<path fill="none" stroke="#c0c0c0" stroke-width="2" d="M104.2585,-143.8314C98.4444,-135.6232 91.4583,-125.7606 85.0633,-116.7323"/>
<polygon fill="#c0c0c0" stroke="#c0c0c0" stroke-width="2" points="87.807,-114.5505 79.1707,-108.4133 82.0948,-118.5966 87.807,-114.5505"/>
</g>
<!-- 2&#45;&gt;0 -->
<g id="edge2" class="edge">
<title>2&#45;&gt;0</title>
<path fill="none" stroke="#c0c0c0" stroke-width="2" d="M94.1379,-71.8314C108.4188,-62.5681 125.9484,-51.1975 141.2114,-41.2972"/>
<polygon fill="#c0c0c0" stroke="#c0c0c0" stroke-width="2" points="143.4094,-44.0434 149.8943,-35.665 139.6,-38.1706 143.4094,-44.0434"/>
</g>
<!-- 3 -->
<g id="node4" class="node">
<title>3</title>
<path fill="none" stroke="#80d856" stroke-width="2" stroke-dasharray="5,2" d="M222.167,-180C222.167,-180 180.0889,-180 180.0889,-180 174.0889,-180 168.0889,-174 168.0889,-168 168.0889,-168 168.0889,-156 168.0889,-156 168.0889,-150 174.0889,-144 180.0889,-144 180.0889,-144 222.167,-144 222.167,-144 228.167,-144 234.167,-150 234.167,-156 234.167,-156 234.167,-168 234.167,-168 234.167,-174 228.167,-180 222.167,-180"/>
<text text-anchor="middle" x="201.1279" y="-159" font-family="sans" font-size="10.00" fill="#000000">oxford2bed</text>
</g>
<!-- 3&#45;&gt;0 -->
<g id="edge3" class="edge">
<title>3&#45;&gt;0</title>
<path fill="none" stroke="#c0c0c0" stroke-width="2" d="M198.0883,-143.7623C193.9767,-119.0928 186.6046,-74.8598 181.7901,-45.9731"/>
<polygon fill="#c0c0c0" stroke="#c0c0c0" stroke-width="2" points="185.2393,-45.3781 180.1429,-36.0896 178.3346,-46.529 185.2393,-45.3781"/>
</g>
<!-- 4 -->
<g id="node5" class="node">
<title>4</title>
<path fill="none" stroke="#56d8d8" stroke-width="2" stroke-dasharray="5,2" d="M302.2609,-180C302.2609,-180 263.995,-180 263.995,-180 257.995,-180 251.995,-174 251.995,-168 251.995,-168 251.995,-156 251.995,-156 251.995,-150 257.995,-144 263.995,-144 263.995,-144 302.2609,-144 302.2609,-144 308.2609,-144 314.2609,-150 314.2609,-156 314.2609,-156 314.2609,-168 314.2609,-168 314.2609,-174 308.2609,-180 302.2609,-180"/>
<text text-anchor="middle" x="283.1279" y="-159" font-family="sans" font-size="10.00" fill="#000000">oxford2vcf</text>
</g>
<!-- 4&#45;&gt;0 -->
<g id="edge4" class="edge">
<title>4&#45;&gt;0</title>
<path fill="none" stroke="#c0c0c0" stroke-width="2" d="M269.703,-143.7623C251.2249,-118.66 217.8361,-73.3017 196.6106,-44.4671"/>
<polygon fill="#c0c0c0" stroke="#c0c0c0" stroke-width="2" points="199.1908,-42.0681 190.4439,-36.0896 193.5534,-46.2179 199.1908,-42.0681"/>
</g>
<!-- 5 -->
<g id="node6" class="node">
<title>5</title>
<path fill="none" stroke="#afd856" stroke-width="2" stroke-dasharray="5,2" d="M199.1377,-252C199.1377,-252 137.1182,-252 137.1182,-252 131.1182,-252 125.1182,-246 125.1182,-240 125.1182,-240 125.1182,-228 125.1182,-228 125.1182,-222 131.1182,-216 137.1182,-216 137.1182,-216 199.1377,-216 199.1377,-216 205.1377,-216 211.1377,-222 211.1377,-228 211.1377,-228 211.1377,-240 211.1377,-240 211.1377,-246 205.1377,-252 199.1377,-252"/>
<text text-anchor="middle" x="168.1279" y="-231" font-family="sans" font-size="10.00" fill="#000000">FixChromName</text>
</g>
<!-- 5&#45;&gt;1 -->
<g id="edge5" class="edge">
<title>5&#45;&gt;1</title>
<path fill="none" stroke="#c0c0c0" stroke-width="2" d="M155.2585,-215.8314C149.4444,-207.6232 142.4583,-197.7606 136.0633,-188.7323"/>
<polygon fill="#c0c0c0" stroke="#c0c0c0" stroke-width="2" points="138.807,-186.5505 130.1707,-180.4133 133.0948,-190.5966 138.807,-186.5505"/>
</g>
<!-- 5&#45;&gt;3 -->
<g id="edge10" class="edge">
<title>5&#45;&gt;3</title>
<path fill="none" stroke="#c0c0c0" stroke-width="2" d="M176.4552,-215.8314C180.1009,-207.8771 184.4588,-198.369 188.4906,-189.5723"/>
<polygon fill="#c0c0c0" stroke="#c0c0c0" stroke-width="2" points="191.7036,-190.9622 192.6885,-180.4133 185.3402,-188.0456 191.7036,-190.9622"/>
</g>
<!-- 5&#45;&gt;4 -->
<g id="edge12" class="edge">
<title>5&#45;&gt;4</title>
<path fill="none" stroke="#c0c0c0" stroke-width="2" d="M197.1473,-215.8314C211.8565,-206.6221 229.8924,-195.3301 245.6401,-185.4706"/>
<polygon fill="#c0c0c0" stroke="#c0c0c0" stroke-width="2" points="247.4993,-188.436 254.1179,-180.1628 243.7847,-182.5029 247.4993,-188.436"/>
</g>
<!-- 6 -->
<g id="node7" class="node">
<title>6</title>
<path fill="none" stroke="#5682d8" stroke-width="2" stroke-dasharray="5,2" d="M178.1279,-324C178.1279,-324 148.1279,-324 148.1279,-324 142.1279,-324 136.1279,-318 136.1279,-312 136.1279,-312 136.1279,-300 136.1279,-300 136.1279,-294 142.1279,-288 148.1279,-288 148.1279,-288 178.1279,-288 178.1279,-288 184.1279,-288 190.1279,-294 190.1279,-300 190.1279,-300 190.1279,-312 190.1279,-312 190.1279,-318 184.1279,-324 178.1279,-324"/>
<text text-anchor="middle" x="163.1279" y="-303" font-family="sans" font-size="10.00" fill="#000000">Impute2</text>
</g>
<!-- 6&#45;&gt;1 -->
<g id="edge6" class="edge">
<title>6&#45;&gt;1</title>
<path fill="none" stroke="#c0c0c0" stroke-width="2" d="M141.3608,-287.8165C131.6556,-278.2816 121.2682,-265.7355 116.1279,-252 108.7569,-232.3037 109.4125,-208.4422 111.6924,-190.2388"/>
<polygon fill="#c0c0c0" stroke="#c0c0c0" stroke-width="2" points="115.169,-190.6544 113.1741,-180.2491 108.2448,-189.6273 115.169,-190.6544"/>
</g>
<!-- 6&#45;&gt;2 -->
<g id="edge8" class="edge">
<title>6&#45;&gt;2</title>
<path fill="none" stroke="#c0c0c0" stroke-width="2" d="M140.6538,-287.9553C129.5252,-278.1824 116.502,-265.3865 107.1279,-252 87.0413,-223.3155 84.0948,-213.8507 75.1279,-180 69.7751,-159.7924 67.5556,-136.2637 66.6582,-118.3325"/>
<polygon fill="#c0c0c0" stroke="#c0c0c0" stroke-width="2" points="70.1513,-118.0854 66.2615,-108.2305 63.1567,-118.3602 70.1513,-118.0854"/>
</g>
<!-- 6&#45;&gt;3 -->
<g id="edge11" class="edge">
<title>6&#45;&gt;3</title>
<path fill="none" stroke="#c0c0c0" stroke-width="2" d="M190.3176,-288.0065C201.8022,-278.7602 213.9338,-266.4006 220.1279,-252 228.7393,-231.9796 222.7697,-207.7276 215.3179,-189.4452"/>
<polygon fill="#c0c0c0" stroke="#c0c0c0" stroke-width="2" points="218.4838,-187.9503 211.2325,-180.2257 212.0839,-190.7862 218.4838,-187.9503"/>
</g>
<!-- 6&#45;&gt;4 -->
<g id="edge13" class="edge">
<title>6&#45;&gt;4</title>
<path fill="none" stroke="#c0c0c0" stroke-width="2" d="M190.1425,-290.2733C205.0469,-280.6231 223.1145,-267.2143 236.1279,-252 252.1294,-233.2922 264.6597,-208.2114 272.744,-189.2784"/>
<polygon fill="#c0c0c0" stroke="#c0c0c0" stroke-width="2" points="275.9914,-190.5839 276.5611,-180.0044 269.5183,-187.9195 275.9914,-190.5839"/>
</g>
<!-- 6&#45;&gt;5 -->
<g id="edge14" class="edge">
<title>6&#45;&gt;5</title>
<path fill="none" stroke="#c0c0c0" stroke-width="2" d="M164.3896,-287.8314C164.9244,-280.131 165.5603,-270.9743 166.1546,-262.4166"/>
<polygon fill="#c0c0c0" stroke="#c0c0c0" stroke-width="2" points="169.648,-262.6317 166.8492,-252.4133 162.6648,-262.1467 169.648,-262.6317"/>
</g>
<!-- 7 -->
<g id="node8" class="node">
<title>7</title>
<path fill="none" stroke="#56d8a9" stroke-width="2" stroke-dasharray="5,2" d="M56.3843,-396C56.3843,-396 11.8716,-396 11.8716,-396 5.8716,-396 -.1284,-390 -.1284,-384 -.1284,-384 -.1284,-372 -.1284,-372 -.1284,-366 5.8716,-360 11.8716,-360 11.8716,-360 56.3843,-360 56.3843,-360 62.3843,-360 68.3843,-366 68.3843,-372 68.3843,-372 68.3843,-384 68.3843,-384 68.3843,-390 62.3843,-396 56.3843,-396"/>
<text text-anchor="middle" x="34.1279" y="-375" font-family="sans" font-size="10.00" fill="#000000">bplink2plink</text>
</g>
<!-- 7&#45;&gt;2 -->
<g id="edge9" class="edge">
<title>7&#45;&gt;2</title>
<path fill="none" stroke="#c0c0c0" stroke-width="2" d="M36.1297,-359.9843C41.5397,-311.2939 56.4839,-176.7961 63.0105,-118.0573"/>
<polygon fill="#c0c0c0" stroke="#c0c0c0" stroke-width="2" points="66.5011,-118.3343 64.1269,-108.0089 59.5439,-117.5612 66.5011,-118.3343"/>
</g>
<!-- 8 -->
<g id="node9" class="node">
<title>8</title>
<path fill="none" stroke="#d6d856" stroke-width="2" stroke-dasharray="5,2" d="M184.1119,-396C184.1119,-396 132.144,-396 132.144,-396 126.144,-396 120.144,-390 120.144,-384 120.144,-384 120.144,-372 120.144,-372 120.144,-366 126.144,-360 132.144,-360 132.144,-360 184.1119,-360 184.1119,-360 190.1119,-360 196.1119,-366 196.1119,-372 196.1119,-372 196.1119,-384 196.1119,-384 196.1119,-390 190.1119,-396 184.1119,-396"/>
<text text-anchor="middle" x="158.1279" y="-375" font-family="sans" font-size="10.00" fill="#000000">bplink2oxford</text>
</g>
<!-- 8&#45;&gt;6 -->
<g id="edge15" class="edge">
<title>8&#45;&gt;6</title>
<path fill="none" stroke="#c0c0c0" stroke-width="2" d="M159.3896,-359.8314C159.9244,-352.131 160.5603,-342.9743 161.1546,-334.4166"/>
<polygon fill="#c0c0c0" stroke="#c0c0c0" stroke-width="2" points="164.648,-334.6317 161.8492,-324.4133 157.6648,-334.1467 164.648,-334.6317"/>
</g>
<!-- 9 -->
<g id="node10" class="node">
<title>9</title>
<path fill="none" stroke="#d8ac56" stroke-width="2" stroke-dasharray="5,2" d="M111.1279,-540C111.1279,-540 81.1279,-540 81.1279,-540 75.1279,-540 69.1279,-534 69.1279,-528 69.1279,-528 69.1279,-516 69.1279,-516 69.1279,-510 75.1279,-504 81.1279,-504 81.1279,-504 111.1279,-504 111.1279,-504 117.1279,-504 123.1279,-510 123.1279,-516 123.1279,-516 123.1279,-528 123.1279,-528 123.1279,-534 117.1279,-540 111.1279,-540"/>
<text text-anchor="middle" x="96.1279" y="-519" font-family="sans" font-size="10.00" fill="#000000">chrMT</text>
</g>
<!-- 9&#45;&gt;7 -->
<g id="edge16" class="edge">
<title>9&#45;&gt;7</title>
<path fill="none" stroke="#c0c0c0" stroke-width="2" d="M78.239,-503.9746C69.4169,-494.1105 59.359,-481.2265 53.1279,-468 43.9113,-448.4363 39.1289,-424.3857 36.6685,-406.0699"/>
<polygon fill="#c0c0c0" stroke="#c0c0c0" stroke-width="2" points="40.1304,-405.5417 35.4722,-396.0258 33.1795,-406.3696 40.1304,-405.5417"/>
</g>
<!-- 9&#45;&gt;8 -->
<g id="edge18" class="edge">
<title>9&#45;&gt;8</title>
<path fill="none" stroke="#c0c0c0" stroke-width="2" d="M114.0168,-503.9746C122.839,-494.1105 132.8969,-481.2265 139.1279,-468 148.3445,-448.4363 153.1269,-424.3857 155.5874,-406.0699"/>
<polygon fill="#c0c0c0" stroke="#c0c0c0" stroke-width="2" points="159.0763,-406.3696 156.7837,-396.0258 152.1254,-405.5417 159.0763,-406.3696"/>
</g>
<!-- 10 -->
<g id="node11" class="node">
<title>10</title>
<path fill="none" stroke="#59d856" stroke-width="2" stroke-dasharray="5,2" d="M117.7462,-468C117.7462,-468 74.5097,-468 74.5097,-468 68.5097,-468 62.5097,-462 62.5097,-456 62.5097,-456 62.5097,-444 62.5097,-444 62.5097,-438 68.5097,-432 74.5097,-432 74.5097,-432 117.7462,-432 117.7462,-432 123.7462,-432 129.7462,-438 129.7462,-444 129.7462,-444 129.7462,-456 129.7462,-456 129.7462,-462 123.7462,-468 117.7462,-468"/>
<text text-anchor="middle" x="96.1279" y="-447" font-family="sans" font-size="10.00" fill="#000000">yri2rcrs_flip</text>
</g>
<!-- 9&#45;&gt;10 -->
<g id="edge21" class="edge">
<title>9&#45;&gt;10</title>
<path fill="none" stroke="#c0c0c0" stroke-width="2" d="M96.1279,-503.8314C96.1279,-496.131 96.1279,-486.9743 96.1279,-478.4166"/>
<polygon fill="#c0c0c0" stroke="#c0c0c0" stroke-width="2" points="99.628,-478.4132 96.1279,-468.4133 92.628,-478.4133 99.628,-478.4132"/>
</g>
<!-- 10&#45;&gt;7 -->
<g id="edge17" class="edge">
<title>10&#45;&gt;7</title>
<path fill="none" stroke="#c0c0c0" stroke-width="2" d="M80.4827,-431.8314C73.2689,-423.454 64.5709,-413.3531 56.6675,-404.1749"/>
<polygon fill="#c0c0c0" stroke="#c0c0c0" stroke-width="2" points="59.1613,-401.7071 49.9838,-396.4133 53.8569,-406.2748 59.1613,-401.7071"/>
</g>
<!-- 10&#45;&gt;8 -->
<g id="edge19" class="edge">
<title>10&#45;&gt;8</title>
<path fill="none" stroke="#c0c0c0" stroke-width="2" d="M111.7731,-431.8314C118.987,-423.454 127.6849,-413.3531 135.5884,-404.1749"/>
<polygon fill="#c0c0c0" stroke="#c0c0c0" stroke-width="2" points="138.399,-406.2748 142.2721,-396.4133 133.0946,-401.7071 138.399,-406.2748"/>
</g>
<!-- 11 -->
<g id="node12" class="node">
<title>11</title>
<path fill="none" stroke="#56a9d8" stroke-width="2" stroke-dasharray="5,2" d="M160.3097,-612C160.3097,-612 31.9462,-612 31.9462,-612 25.9462,-612 19.9462,-606 19.9462,-600 19.9462,-600 19.9462,-588 19.9462,-588 19.9462,-582 25.9462,-576 31.9462,-576 31.9462,-576 160.3097,-576 160.3097,-576 166.3097,-576 172.3097,-582 172.3097,-588 172.3097,-588 172.3097,-600 172.3097,-600 172.3097,-606 166.3097,-612 160.3097,-612"/>
<text text-anchor="middle" x="96.1279" y="-596" font-family="sans" font-size="10.00" fill="#000000">SexFam</text>
<text text-anchor="middle" x="96.1279" y="-586" font-family="sans" font-size="10.00" fill="#000000">sample: ExampleSamplePanel</text>
</g>
<!-- 11&#45;&gt;9 -->
<g id="edge20" class="edge">
<title>11&#45;&gt;9</title>
<path fill="none" stroke="#c0c0c0" stroke-width="2" d="M96.1279,-575.8314C96.1279,-568.131 96.1279,-558.9743 96.1279,-550.4166"/>
<polygon fill="#c0c0c0" stroke="#c0c0c0" stroke-width="2" points="99.628,-550.4132 96.1279,-540.4133 92.628,-550.4133 99.628,-550.4132"/>
</g>
</g>
</svg>
