<?xml version="1.0" encoding="UTF-8" standalone="no"?>
<!DOCTYPE svg PUBLIC "-//W3C//DTD SVG 1.1//EN"
 "http://www.w3.org/Graphics/SVG/1.1/DTD/svg11.dtd">
<!-- Generated by graphviz version 2.40.1 (20161225.0304)
 -->
<!-- Title: snakemake_dag Pages: 1 -->
<svg width="1302pt" height="836pt"
 viewBox="0.00 0.00 1302.01 836.00" xmlns="http://www.w3.org/2000/svg" xmlns:xlink="http://www.w3.org/1999/xlink">
<g id="graph0" class="graph" transform="scale(1 1) rotate(0) translate(4 832)">
<title>snakemake_dag</title>
<polygon fill="#ffffff" stroke="transparent" points="-4,4 -4,-832 1298.0073,-832 1298.0073,4 -4,4"/>
<!-- 0 -->
<g id="node1" class="node">
<title>0</title>
<path fill="none" stroke="#56d8d8" stroke-width="2" d="M750.0073,-36C750.0073,-36 720.0073,-36 720.0073,-36 714.0073,-36 708.0073,-30 708.0073,-24 708.0073,-24 708.0073,-12 708.0073,-12 708.0073,-6 714.0073,0 720.0073,0 720.0073,0 750.0073,0 750.0073,0 756.0073,0 762.0073,-6 762.0073,-12 762.0073,-12 762.0073,-24 762.0073,-24 762.0073,-30 756.0073,-36 750.0073,-36"/>
<text text-anchor="middle" x="735.0073" y="-15" font-family="sans" font-size="10.00" fill="#000000">all</text>
</g>
<!-- 1 -->
<g id="node2" class="node">
<title>1</title>
<path fill="none" stroke="#97d856" stroke-width="2" d="M224.3395,-108C224.3395,-108 129.6752,-108 129.6752,-108 123.6752,-108 117.6752,-102 117.6752,-96 117.6752,-96 117.6752,-84 117.6752,-84 117.6752,-78 123.6752,-72 129.6752,-72 129.6752,-72 224.3395,-72 224.3395,-72 230.3395,-72 236.3395,-78 236.3395,-84 236.3395,-84 236.3395,-96 236.3395,-96 236.3395,-102 230.3395,-108 224.3395,-108"/>
<text text-anchor="middle" x="177.0073" y="-87" font-family="sans" font-size="10.00" fill="#000000">Imputation_QC_Report</text>
</g>
<!-- 1&#45;&gt;0 -->
<g id="edge1" class="edge">
<title>1&#45;&gt;0</title>
<path fill="none" stroke="#c0c0c0" stroke-width="2" d="M236.6291,-74.6244C241.1417,-73.6677 245.638,-72.7785 250.0073,-72 415.443,-42.5246 615.6657,-26.3077 697.4611,-20.4981"/>
<polygon fill="#c0c0c0" stroke="#c0c0c0" stroke-width="2" points="698.0171,-23.9678 707.7483,-19.7783 697.5284,-16.9849 698.0171,-23.9678"/>
</g>
<!-- 2 -->
<g id="node3" class="node">
<title>2</title>
<path fill="none" stroke="#d85656" stroke-width="2" stroke-dasharray="5,2" d="M473.8675,-180C473.8675,-180 418.1471,-180 418.1471,-180 412.1471,-180 406.1471,-174 406.1471,-168 406.1471,-168 406.1471,-156 406.1471,-156 406.1471,-150 412.1471,-144 418.1471,-144 418.1471,-144 473.8675,-144 473.8675,-144 479.8675,-144 485.8675,-150 485.8675,-156 485.8675,-156 485.8675,-168 485.8675,-168 485.8675,-174 479.8675,-180 473.8675,-180"/>
<text text-anchor="middle" x="446.0073" y="-159" font-family="sans" font-size="10.00" fill="#000000">wgs_vcf2Plink</text>
</g>
<!-- 2&#45;&gt;0 -->
<g id="edge2" class="edge">
<title>2&#45;&gt;0</title>
<path fill="none" stroke="#c0c0c0" stroke-width="2" d="M456.6478,-143.8732C469.6763,-123.3001 493.6693,-90.2406 523.0073,-72 577.8021,-37.932 653.2301,-25.2994 697.7776,-20.6554"/>
<polygon fill="#c0c0c0" stroke="#c0c0c0" stroke-width="2" points="698.2503,-24.1262 707.8696,-19.6856 697.5806,-17.1583 698.2503,-24.1262"/>
</g>
<!-- 2&#45;&gt;1 -->
<g id="edge22" class="edge">
<title>2&#45;&gt;1</title>
<path fill="none" stroke="#c0c0c0" stroke-width="2" d="M406.3154,-151.3762C364.3212,-140.1361 297.2386,-122.1809 246.4545,-108.5881"/>
<polygon fill="#c0c0c0" stroke="#c0c0c0" stroke-width="2" points="247.0922,-105.1356 236.5272,-105.931 245.2822,-111.8976 247.0922,-105.1356"/>
</g>
<!-- 17 -->
<g id="node18" class="node">
<title>17</title>
<path fill="none" stroke="#97d856" stroke-width="2" d="M638.3395,-108C638.3395,-108 543.6752,-108 543.6752,-108 537.6752,-108 531.6752,-102 531.6752,-96 531.6752,-96 531.6752,-84 531.6752,-84 531.6752,-78 537.6752,-72 543.6752,-72 543.6752,-72 638.3395,-72 638.3395,-72 644.3395,-72 650.3395,-78 650.3395,-84 650.3395,-84 650.3395,-96 650.3395,-96 650.3395,-102 644.3395,-108 638.3395,-108"/>
<text text-anchor="middle" x="591.0073" y="-87" font-family="sans" font-size="10.00" fill="#000000">Imputation_QC_Report</text>
</g>
<!-- 2&#45;&gt;17 -->
<g id="edge51" class="edge">
<title>2&#45;&gt;17</title>
<path fill="none" stroke="#c0c0c0" stroke-width="2" d="M482.5969,-143.8314C501.7313,-134.3302 525.3302,-122.6121 545.6195,-112.5374"/>
<polygon fill="#c0c0c0" stroke="#c0c0c0" stroke-width="2" points="547.2808,-115.6203 554.6808,-108.038 544.1676,-109.3506 547.2808,-115.6203"/>
</g>
<!-- 18 -->
<g id="node19" class="node">
<title>18</title>
<path fill="none" stroke="#97d856" stroke-width="2" d="M1114.3395,-108C1114.3395,-108 1019.6752,-108 1019.6752,-108 1013.6752,-108 1007.6752,-102 1007.6752,-96 1007.6752,-96 1007.6752,-84 1007.6752,-84 1007.6752,-78 1013.6752,-72 1019.6752,-72 1019.6752,-72 1114.3395,-72 1114.3395,-72 1120.3395,-72 1126.3395,-78 1126.3395,-84 1126.3395,-84 1126.3395,-96 1126.3395,-96 1126.3395,-102 1120.3395,-108 1114.3395,-108"/>
<text text-anchor="middle" x="1067.0073" y="-87" font-family="sans" font-size="10.00" fill="#000000">Imputation_QC_Report</text>
</g>
<!-- 2&#45;&gt;18 -->
<g id="edge56" class="edge">
<title>2&#45;&gt;18</title>
<path fill="none" stroke="#c0c0c0" stroke-width="2" d="M485.929,-155.8925C510.4478,-152.2307 542.512,-147.6017 571.0073,-144 722.7418,-124.8212 901.1188,-106.4101 997.2064,-96.8312"/>
<polygon fill="#c0c0c0" stroke="#c0c0c0" stroke-width="2" points="997.7723,-100.2923 1007.3768,-95.8197 997.0795,-93.3266 997.7723,-100.2923"/>
</g>
<!-- 3 -->
<g id="node4" class="node">
<title>3</title>
<path fill="none" stroke="#56d8b9" stroke-width="2" stroke-dasharray="5,2" d="M317.0073,-324C317.0073,-324 287.0073,-324 287.0073,-324 281.0073,-324 275.0073,-318 275.0073,-312 275.0073,-312 275.0073,-300 275.0073,-300 275.0073,-294 281.0073,-288 287.0073,-288 287.0073,-288 317.0073,-288 317.0073,-288 323.0073,-288 329.0073,-294 329.0073,-300 329.0073,-300 329.0073,-312 329.0073,-312 329.0073,-318 323.0073,-324 317.0073,-324"/>
<text text-anchor="middle" x="302.0073" y="-303" font-family="sans" font-size="10.00" fill="#000000">Impute2</text>
</g>
<!-- 3&#45;&gt;0 -->
<g id="edge3" class="edge">
<title>3&#45;&gt;0</title>
<path fill="none" stroke="#c0c0c0" stroke-width="2" d="M304.2412,-287.8328C310.7452,-238.0403 331.3055,-101.1575 364.0073,-72 388.7207,-49.9651 608.5335,-28.8431 697.6878,-21.1037"/>
<polygon fill="#c0c0c0" stroke="#c0c0c0" stroke-width="2" points="698.227,-24.5704 707.8907,-20.2271 697.6277,-17.5961 698.227,-24.5704"/>
</g>
<!-- 8 -->
<g id="node9" class="node">
<title>8</title>
<path fill="none" stroke="#d8b456" stroke-width="2" stroke-dasharray="5,2" d="M296.0464,-180C296.0464,-180 253.9683,-180 253.9683,-180 247.9683,-180 241.9683,-174 241.9683,-168 241.9683,-168 241.9683,-156 241.9683,-156 241.9683,-150 247.9683,-144 253.9683,-144 253.9683,-144 296.0464,-144 296.0464,-144 302.0464,-144 308.0464,-150 308.0464,-156 308.0464,-156 308.0464,-168 308.0464,-168 308.0464,-174 302.0464,-180 296.0464,-180"/>
<text text-anchor="middle" x="275.0073" y="-159" font-family="sans" font-size="10.00" fill="#000000">oxford2ped</text>
</g>
<!-- 3&#45;&gt;8 -->
<g id="edge36" class="edge">
<title>3&#45;&gt;8</title>
<path fill="none" stroke="#c0c0c0" stroke-width="2" d="M298.5878,-287.7623C293.9622,-263.0928 285.6685,-218.8598 280.2523,-189.9731"/>
<polygon fill="#c0c0c0" stroke="#c0c0c0" stroke-width="2" points="283.6821,-189.2733 278.3991,-180.0896 276.802,-190.5634 283.6821,-189.2733"/>
</g>
<!-- 15 -->
<g id="node16" class="node">
<title>15</title>
<path fill="none" stroke="#d87556" stroke-width="2" stroke-dasharray="5,2" d="M204.1403,-180C204.1403,-180 165.8744,-180 165.8744,-180 159.8744,-180 153.8744,-174 153.8744,-168 153.8744,-168 153.8744,-156 153.8744,-156 153.8744,-150 159.8744,-144 165.8744,-144 165.8744,-144 204.1403,-144 204.1403,-144 210.1403,-144 216.1403,-150 216.1403,-156 216.1403,-156 216.1403,-168 216.1403,-168 216.1403,-174 210.1403,-180 204.1403,-180"/>
<text text-anchor="middle" x="185.0073" y="-159" font-family="sans" font-size="10.00" fill="#000000">oxford2vcf</text>
</g>
<!-- 3&#45;&gt;15 -->
<g id="edge46" class="edge">
<title>3&#45;&gt;15</title>
<path fill="none" stroke="#c0c0c0" stroke-width="2" d="M274.9387,-302.6886C245.6098,-297.496 200.1765,-284.4132 179.0073,-252 167.1035,-233.7735 169.8972,-208.8027 174.9363,-189.787"/>
<polygon fill="#c0c0c0" stroke="#c0c0c0" stroke-width="2" points="178.2959,-190.7683 177.7985,-180.1851 171.5876,-188.7686 178.2959,-190.7683"/>
</g>
<!-- 26 -->
<g id="node27" class="node">
<title>26</title>
<path fill="none" stroke="#59d856" stroke-width="2" stroke-dasharray="5,2" d="M262.0171,-252C262.0171,-252 199.9976,-252 199.9976,-252 193.9976,-252 187.9976,-246 187.9976,-240 187.9976,-240 187.9976,-228 187.9976,-228 187.9976,-222 193.9976,-216 199.9976,-216 199.9976,-216 262.0171,-216 262.0171,-216 268.0171,-216 274.0171,-222 274.0171,-228 274.0171,-228 274.0171,-240 274.0171,-240 274.0171,-246 268.0171,-252 262.0171,-252"/>
<text text-anchor="middle" x="231.0073" y="-231" font-family="sans" font-size="10.00" fill="#000000">FixChromName</text>
</g>
<!-- 3&#45;&gt;26 -->
<g id="edge70" class="edge">
<title>3&#45;&gt;26</title>
<path fill="none" stroke="#c0c0c0" stroke-width="2" d="M284.091,-287.8314C275.6631,-279.2848 265.4663,-268.9443 256.2713,-259.6198"/>
<polygon fill="#c0c0c0" stroke="#c0c0c0" stroke-width="2" points="258.6785,-257.0761 249.1649,-252.4133 253.6942,-261.9912 258.6785,-257.0761"/>
</g>
<!-- 4 -->
<g id="node5" class="node">
<title>4</title>
<path fill="none" stroke="#56d8b9" stroke-width="2" stroke-dasharray="5,2" d="M731.0073,-324C731.0073,-324 701.0073,-324 701.0073,-324 695.0073,-324 689.0073,-318 689.0073,-312 689.0073,-312 689.0073,-300 689.0073,-300 689.0073,-294 695.0073,-288 701.0073,-288 701.0073,-288 731.0073,-288 731.0073,-288 737.0073,-288 743.0073,-294 743.0073,-300 743.0073,-300 743.0073,-312 743.0073,-312 743.0073,-318 737.0073,-324 731.0073,-324"/>
<text text-anchor="middle" x="716.0073" y="-303" font-family="sans" font-size="10.00" fill="#000000">Impute2</text>
</g>
<!-- 4&#45;&gt;0 -->
<g id="edge4" class="edge">
<title>4&#45;&gt;0</title>
<path fill="none" stroke="#c0c0c0" stroke-width="2" d="M719.6408,-287.7345C724.297,-263.31 732.1129,-218.6057 735.0073,-180 738.5212,-133.132 737.4475,-78.4223 736.2783,-46.0795"/>
<polygon fill="#c0c0c0" stroke="#c0c0c0" stroke-width="2" points="739.7728,-45.8678 735.8846,-36.0122 732.7781,-46.1414 739.7728,-45.8678"/>
</g>
<!-- 6 -->
<g id="node7" class="node">
<title>6</title>
<path fill="none" stroke="#d8b456" stroke-width="2" stroke-dasharray="5,2" d="M714.0464,-180C714.0464,-180 671.9683,-180 671.9683,-180 665.9683,-180 659.9683,-174 659.9683,-168 659.9683,-168 659.9683,-156 659.9683,-156 659.9683,-150 665.9683,-144 671.9683,-144 671.9683,-144 714.0464,-144 714.0464,-144 720.0464,-144 726.0464,-150 726.0464,-156 726.0464,-156 726.0464,-168 726.0464,-168 726.0464,-174 720.0464,-180 714.0464,-180"/>
<text text-anchor="middle" x="693.0073" y="-159" font-family="sans" font-size="10.00" fill="#000000">oxford2ped</text>
</g>
<!-- 4&#45;&gt;6 -->
<g id="edge33" class="edge">
<title>4&#45;&gt;6</title>
<path fill="none" stroke="#c0c0c0" stroke-width="2" d="M713.0944,-287.7623C709.1541,-263.0928 702.0891,-218.8598 697.4752,-189.9731"/>
<polygon fill="#c0c0c0" stroke="#c0c0c0" stroke-width="2" points="700.9301,-189.4124 695.8966,-180.0896 694.0178,-190.5165 700.9301,-189.4124"/>
</g>
<!-- 16 -->
<g id="node17" class="node">
<title>16</title>
<path fill="none" stroke="#d87556" stroke-width="2" stroke-dasharray="5,2" d="M630.1403,-180C630.1403,-180 591.8744,-180 591.8744,-180 585.8744,-180 579.8744,-174 579.8744,-168 579.8744,-168 579.8744,-156 579.8744,-156 579.8744,-150 585.8744,-144 591.8744,-144 591.8744,-144 630.1403,-144 630.1403,-144 636.1403,-144 642.1403,-150 642.1403,-156 642.1403,-156 642.1403,-168 642.1403,-168 642.1403,-174 636.1403,-180 630.1403,-180"/>
<text text-anchor="middle" x="611.0073" y="-159" font-family="sans" font-size="10.00" fill="#000000">oxford2vcf</text>
</g>
<!-- 4&#45;&gt;16 -->
<g id="edge49" class="edge">
<title>4&#45;&gt;16</title>
<path fill="none" stroke="#c0c0c0" stroke-width="2" d="M688.9387,-302.6886C659.6098,-297.496 614.1765,-284.4132 593.0073,-252 580.783,-233.2827 587.3636,-208.0501 595.809,-189.065"/>
<polygon fill="#c0c0c0" stroke="#c0c0c0" stroke-width="2" points="598.9709,-190.566 600.1676,-180.0389 592.6673,-187.522 598.9709,-190.566"/>
</g>
<!-- 24 -->
<g id="node25" class="node">
<title>24</title>
<path fill="none" stroke="#59d856" stroke-width="2" stroke-dasharray="5,2" d="M676.0171,-252C676.0171,-252 613.9976,-252 613.9976,-252 607.9976,-252 601.9976,-246 601.9976,-240 601.9976,-240 601.9976,-228 601.9976,-228 601.9976,-222 607.9976,-216 613.9976,-216 613.9976,-216 676.0171,-216 676.0171,-216 682.0171,-216 688.0171,-222 688.0171,-228 688.0171,-228 688.0171,-240 688.0171,-240 688.0171,-246 682.0171,-252 676.0171,-252"/>
<text text-anchor="middle" x="645.0073" y="-231" font-family="sans" font-size="10.00" fill="#000000">FixChromName</text>
</g>
<!-- 4&#45;&gt;24 -->
<g id="edge68" class="edge">
<title>4&#45;&gt;24</title>
<path fill="none" stroke="#c0c0c0" stroke-width="2" d="M698.091,-287.8314C689.6631,-279.2848 679.4663,-268.9443 670.2713,-259.6198"/>
<polygon fill="#c0c0c0" stroke="#c0c0c0" stroke-width="2" points="672.6785,-257.0761 663.1649,-252.4133 667.6942,-261.9912 672.6785,-257.0761"/>
</g>
<!-- 5 -->
<g id="node6" class="node">
<title>5</title>
<path fill="none" stroke="#56d89a" stroke-width="2" stroke-dasharray="5,2" d="M751.7685,-396C751.7685,-396 692.2462,-396 692.2462,-396 686.2462,-396 680.2462,-390 680.2462,-384 680.2462,-384 680.2462,-372 680.2462,-372 680.2462,-366 686.2462,-360 692.2462,-360 692.2462,-360 751.7685,-360 751.7685,-360 757.7685,-360 763.7685,-366 763.7685,-372 763.7685,-372 763.7685,-384 763.7685,-384 763.7685,-390 757.7685,-396 751.7685,-396"/>
<text text-anchor="middle" x="722.0073" y="-375" font-family="sans" font-size="10.00" fill="#000000">vcf2gensample</text>
</g>
<!-- 5&#45;&gt;0 -->
<g id="edge5" class="edge">
<title>5&#45;&gt;0</title>
<path fill="none" stroke="#c0c0c0" stroke-width="2" d="M737.5426,-359.8219C758.1652,-333.7696 792.0073,-283.4792 792.0073,-234 792.0073,-234 792.0073,-234 792.0073,-162 792.0073,-118.7597 769.5128,-73.0187 752.7861,-44.9832"/>
<polygon fill="#c0c0c0" stroke="#c0c0c0" stroke-width="2" points="755.5948,-42.8688 747.3755,-36.1834 749.6317,-46.5353 755.5948,-42.8688"/>
</g>
<!-- 5&#45;&gt;4 -->
<g id="edge29" class="edge">
<title>5&#45;&gt;4</title>
<path fill="none" stroke="#c0c0c0" stroke-width="2" d="M720.4933,-359.8314C719.8516,-352.131 719.0885,-342.9743 718.3754,-334.4166"/>
<polygon fill="#c0c0c0" stroke="#c0c0c0" stroke-width="2" points="721.8602,-334.088 717.5418,-324.4133 714.8844,-334.6694 721.8602,-334.088"/>
</g>
<!-- 6&#45;&gt;0 -->
<g id="edge6" class="edge">
<title>6&#45;&gt;0</title>
<path fill="none" stroke="#c0c0c0" stroke-width="2" d="M698.3267,-143.7623C705.5219,-119.0928 718.4232,-74.8598 726.8485,-45.9731"/>
<polygon fill="#c0c0c0" stroke="#c0c0c0" stroke-width="2" points="730.2911,-46.6696 729.7312,-36.0896 723.5711,-44.7096 730.2911,-46.6696"/>
</g>
<!-- 6&#45;&gt;17 -->
<g id="edge53" class="edge">
<title>6&#45;&gt;17</title>
<path fill="none" stroke="#c0c0c0" stroke-width="2" d="M667.2684,-143.8314C654.4636,-134.7927 638.8164,-123.7476 625.0354,-114.0198"/>
<polygon fill="#c0c0c0" stroke="#c0c0c0" stroke-width="2" points="626.9261,-111.0703 616.738,-108.1628 622.8893,-116.7891 626.9261,-111.0703"/>
</g>
<!-- 7 -->
<g id="node8" class="node">
<title>7</title>
<path fill="none" stroke="#56d89a" stroke-width="2" stroke-dasharray="5,2" d="M1045.7685,-396C1045.7685,-396 986.2462,-396 986.2462,-396 980.2462,-396 974.2462,-390 974.2462,-384 974.2462,-384 974.2462,-372 974.2462,-372 974.2462,-366 980.2462,-360 986.2462,-360 986.2462,-360 1045.7685,-360 1045.7685,-360 1051.7685,-360 1057.7685,-366 1057.7685,-372 1057.7685,-372 1057.7685,-384 1057.7685,-384 1057.7685,-390 1051.7685,-396 1045.7685,-396"/>
<text text-anchor="middle" x="1016.0073" y="-375" font-family="sans" font-size="10.00" fill="#000000">vcf2gensample</text>
</g>
<!-- 7&#45;&gt;0 -->
<g id="edge7" class="edge">
<title>7&#45;&gt;0</title>
<path fill="none" stroke="#c0c0c0" stroke-width="2" d="M1034.4957,-359.9147C1084.4796,-308.8905 1213.4089,-161.697 1135.0073,-72 1111.2542,-44.8248 866.658,-26.4151 772.0686,-20.2632"/>
<polygon fill="#c0c0c0" stroke="#c0c0c0" stroke-width="2" points="772.2862,-16.7701 762.0828,-19.6232 771.8385,-23.7557 772.2862,-16.7701"/>
</g>
<!-- 9 -->
<g id="node10" class="node">
<title>9</title>
<path fill="none" stroke="#56d8b9" stroke-width="2" stroke-dasharray="5,2" d="M992.0073,-324C992.0073,-324 962.0073,-324 962.0073,-324 956.0073,-324 950.0073,-318 950.0073,-312 950.0073,-312 950.0073,-300 950.0073,-300 950.0073,-294 956.0073,-288 962.0073,-288 962.0073,-288 992.0073,-288 992.0073,-288 998.0073,-288 1004.0073,-294 1004.0073,-300 1004.0073,-300 1004.0073,-312 1004.0073,-312 1004.0073,-318 998.0073,-324 992.0073,-324"/>
<text text-anchor="middle" x="977.0073" y="-303" font-family="sans" font-size="10.00" fill="#000000">Impute2</text>
</g>
<!-- 7&#45;&gt;9 -->
<g id="edge38" class="edge">
<title>7&#45;&gt;9</title>
<path fill="none" stroke="#c0c0c0" stroke-width="2" d="M1006.166,-359.8314C1001.8116,-351.7925 996.5975,-342.1666 991.7904,-333.2918"/>
<polygon fill="#c0c0c0" stroke="#c0c0c0" stroke-width="2" points="994.8216,-331.5392 986.9812,-324.4133 988.6665,-334.8732 994.8216,-331.5392"/>
</g>
<!-- 8&#45;&gt;0 -->
<g id="edge8" class="edge">
<title>8&#45;&gt;0</title>
<path fill="none" stroke="#c0c0c0" stroke-width="2" d="M279.9552,-143.7609C286.6769,-122.7557 300.8424,-88.9683 326.0073,-72 386.3533,-31.3096 608.6651,-21.1924 697.7388,-18.7506"/>
<polygon fill="#c0c0c0" stroke="#c0c0c0" stroke-width="2" points="698.0143,-22.2448 707.9212,-18.4893 697.8346,-15.2471 698.0143,-22.2448"/>
</g>
<!-- 8&#45;&gt;1 -->
<g id="edge21" class="edge">
<title>8&#45;&gt;1</title>
<path fill="none" stroke="#c0c0c0" stroke-width="2" d="M250.2778,-143.8314C238.0912,-134.8779 223.225,-123.9558 210.0762,-114.2955"/>
<polygon fill="#c0c0c0" stroke="#c0c0c0" stroke-width="2" points="211.8601,-111.263 201.729,-108.1628 207.7155,-116.9042 211.8601,-111.263"/>
</g>
<!-- 9&#45;&gt;0 -->
<g id="edge9" class="edge">
<title>9&#45;&gt;0</title>
<path fill="none" stroke="#c0c0c0" stroke-width="2" d="M950.3952,-287.9062C938.3379,-278.4774 924.8375,-265.9953 916.0073,-252 889.36,-209.7655 907.2449,-188.7137 885.0073,-144 867.1952,-108.1848 861.0837,-98.3706 831.0073,-72 813.295,-56.47 790.3998,-43.3822 771.4111,-33.9822"/>
<polygon fill="#c0c0c0" stroke="#c0c0c0" stroke-width="2" points="772.6944,-30.7158 762.1651,-29.5396 769.6628,-37.0253 772.6944,-30.7158"/>
</g>
<!-- 11 -->
<g id="node12" class="node">
<title>11</title>
<path fill="none" stroke="#d8b456" stroke-width="2" stroke-dasharray="5,2" d="M1066.0464,-180C1066.0464,-180 1023.9683,-180 1023.9683,-180 1017.9683,-180 1011.9683,-174 1011.9683,-168 1011.9683,-168 1011.9683,-156 1011.9683,-156 1011.9683,-150 1017.9683,-144 1023.9683,-144 1023.9683,-144 1066.0464,-144 1066.0464,-144 1072.0464,-144 1078.0464,-150 1078.0464,-156 1078.0464,-156 1078.0464,-168 1078.0464,-168 1078.0464,-174 1072.0464,-180 1066.0464,-180"/>
<text text-anchor="middle" x="1045.0073" y="-159" font-family="sans" font-size="10.00" fill="#000000">oxford2ped</text>
</g>
<!-- 9&#45;&gt;11 -->
<g id="edge40" class="edge">
<title>9&#45;&gt;11</title>
<path fill="none" stroke="#c0c0c0" stroke-width="2" d="M999.9698,-287.7715C1010.4423,-278.226 1022.0351,-265.6839 1029.0073,-252 1038.7642,-232.851 1042.6758,-208.7764 1044.196,-190.3459"/>
<polygon fill="#c0c0c0" stroke="#c0c0c0" stroke-width="2" points="1047.6977,-190.4288 1044.8408,-180.2265 1040.7119,-189.9836 1047.6977,-190.4288"/>
</g>
<!-- 20 -->
<g id="node21" class="node">
<title>20</title>
<path fill="none" stroke="#d87556" stroke-width="2" stroke-dasharray="5,2" d="M982.1403,-180C982.1403,-180 943.8744,-180 943.8744,-180 937.8744,-180 931.8744,-174 931.8744,-168 931.8744,-168 931.8744,-156 931.8744,-156 931.8744,-150 937.8744,-144 943.8744,-144 943.8744,-144 982.1403,-144 982.1403,-144 988.1403,-144 994.1403,-150 994.1403,-156 994.1403,-156 994.1403,-168 994.1403,-168 994.1403,-174 988.1403,-180 982.1403,-180"/>
<text text-anchor="middle" x="963.0073" y="-159" font-family="sans" font-size="10.00" fill="#000000">oxford2vcf</text>
</g>
<!-- 9&#45;&gt;20 -->
<g id="edge63" class="edge">
<title>9&#45;&gt;20</title>
<path fill="none" stroke="#c0c0c0" stroke-width="2" d="M952.4272,-287.7772C941.8591,-278.4022 930.653,-266.0021 925.0073,-252 919.0241,-237.1608 920.1782,-231.2538 925.0073,-216 928.0889,-206.2664 933.6256,-196.7695 939.5362,-188.5228"/>
<polygon fill="#c0c0c0" stroke="#c0c0c0" stroke-width="2" points="942.4383,-190.49 945.7438,-180.4239 936.8825,-186.2316 942.4383,-190.49"/>
</g>
<!-- 27 -->
<g id="node28" class="node">
<title>27</title>
<path fill="none" stroke="#59d856" stroke-width="2" stroke-dasharray="5,2" d="M1008.0171,-252C1008.0171,-252 945.9976,-252 945.9976,-252 939.9976,-252 933.9976,-246 933.9976,-240 933.9976,-240 933.9976,-228 933.9976,-228 933.9976,-222 939.9976,-216 945.9976,-216 945.9976,-216 1008.0171,-216 1008.0171,-216 1014.0171,-216 1020.0171,-222 1020.0171,-228 1020.0171,-228 1020.0171,-240 1020.0171,-240 1020.0171,-246 1014.0171,-252 1008.0171,-252"/>
<text text-anchor="middle" x="977.0073" y="-231" font-family="sans" font-size="10.00" fill="#000000">FixChromName</text>
</g>
<!-- 9&#45;&gt;27 -->
<g id="edge71" class="edge">
<title>9&#45;&gt;27</title>
<path fill="none" stroke="#c0c0c0" stroke-width="2" d="M977.0073,-287.8314C977.0073,-280.131 977.0073,-270.9743 977.0073,-262.4166"/>
<polygon fill="#c0c0c0" stroke="#c0c0c0" stroke-width="2" points="980.5074,-262.4132 977.0073,-252.4133 973.5074,-262.4133 980.5074,-262.4132"/>
</g>
<!-- 10 -->
<g id="node11" class="node">
<title>10</title>
<path fill="none" stroke="#d89556" stroke-width="2" stroke-dasharray="5,2" d="M44.022,-180C44.022,-180 11.9927,-180 11.9927,-180 5.9927,-180 -.0073,-174 -.0073,-168 -.0073,-168 -.0073,-156 -.0073,-156 -.0073,-150 5.9927,-144 11.9927,-144 11.9927,-144 44.022,-144 44.022,-144 50.022,-144 56.022,-150 56.022,-156 56.022,-156 56.022,-168 56.022,-168 56.022,-174 50.022,-180 44.022,-180"/>
<text text-anchor="middle" x="28.0073" y="-159" font-family="sans" font-size="10.00" fill="#000000">vcf2Plink</text>
</g>
<!-- 10&#45;&gt;0 -->
<g id="edge10" class="edge">
<title>10&#45;&gt;0</title>
<path fill="none" stroke="#c0c0c0" stroke-width="2" d="M38.4587,-143.7467C51.7951,-122.3907 77.0179,-87.9295 109.0073,-72 161.7197,-45.7513 570.877,-25.3645 697.672,-19.6256"/>
<polygon fill="#c0c0c0" stroke="#c0c0c0" stroke-width="2" points="697.8488,-23.1212 707.6819,-19.1765 697.535,-16.1283 697.8488,-23.1212"/>
</g>
<!-- 10&#45;&gt;1 -->
<g id="edge23" class="edge">
<title>10&#45;&gt;1</title>
<path fill="none" stroke="#c0c0c0" stroke-width="2" d="M56.0331,-148.4574C76.9632,-138.3435 106.0416,-124.2922 130.4439,-112.5005"/>
<polygon fill="#c0c0c0" stroke="#c0c0c0" stroke-width="2" points="132.0595,-115.607 139.5406,-108.1047 129.0139,-109.3043 132.0595,-115.607"/>
</g>
<!-- 11&#45;&gt;0 -->
<g id="edge11" class="edge">
<title>11&#45;&gt;0</title>
<path fill="none" stroke="#c0c0c0" stroke-width="2" d="M1029.9405,-143.9812C1011.848,-123.5096 979.5881,-90.5452 945.0073,-72 889.0749,-42.0043 815.7302,-28.0963 772.1684,-22.096"/>
<polygon fill="#c0c0c0" stroke="#c0c0c0" stroke-width="2" points="772.3967,-18.5961 762.0269,-20.7685 771.488,-25.5369 772.3967,-18.5961"/>
</g>
<!-- 11&#45;&gt;18 -->
<g id="edge57" class="edge">
<title>11&#45;&gt;18</title>
<path fill="none" stroke="#c0c0c0" stroke-width="2" d="M1050.5589,-143.8314C1052.9376,-136.0463 1055.7712,-126.7729 1058.4106,-118.1347"/>
<polygon fill="#c0c0c0" stroke="#c0c0c0" stroke-width="2" points="1061.806,-118.9996 1061.381,-108.4133 1055.1116,-116.954 1061.806,-118.9996"/>
</g>
<!-- 12 -->
<g id="node13" class="node">
<title>12</title>
<path fill="none" stroke="#567bd8" stroke-width="2" stroke-dasharray="5,2" d="M595.399,-612C595.399,-612 554.6156,-612 554.6156,-612 548.6156,-612 542.6156,-606 542.6156,-600 542.6156,-600 542.6156,-588 542.6156,-588 542.6156,-582 548.6156,-576 554.6156,-576 554.6156,-576 595.399,-576 595.399,-576 601.399,-576 607.399,-582 607.399,-588 607.399,-588 607.399,-600 607.399,-600 607.399,-606 601.399,-612 595.399,-612"/>
<text text-anchor="middle" x="575.0073" y="-591" font-family="sans" font-size="10.00" fill="#000000">pickFirstAlt</text>
</g>
<!-- 12&#45;&gt;0 -->
<g id="edge12" class="edge">
<title>12&#45;&gt;0</title>
<path fill="none" stroke="#c0c0c0" stroke-width="2" d="M607.5687,-593.2416C686.3617,-590.7905 893.1179,-580.6689 1060.0073,-540 1168.2664,-513.6186 1294.0073,-561.4271 1294.0073,-450 1294.0073,-450 1294.0073,-450 1294.0073,-162 1294.0073,-111.0515 1267.5582,-96.7178 1223.0073,-72 1145.6084,-29.0574 872.6169,-20.2503 772.3254,-18.4556"/>
<polygon fill="#c0c0c0" stroke="#c0c0c0" stroke-width="2" points="772.1246,-14.9519 762.0681,-18.286 772.0088,-21.9509 772.1246,-14.9519"/>
</g>
<!-- 12&#45;&gt;1 -->
<g id="edge24" class="edge">
<title>12&#45;&gt;1</title>
<path fill="none" stroke="#c0c0c0" stroke-width="2" d="M542.3981,-588.5311C453.6089,-572.992 210.5999,-525.9345 157.0073,-468 79.5278,-384.2433 93.3291,-329.1496 108.0073,-216 112.2649,-183.1796 111.0685,-173.0045 127.0073,-144 132.6606,-133.7125 140.6961,-123.8539 148.6758,-115.4413"/>
<polygon fill="#c0c0c0" stroke="#c0c0c0" stroke-width="2" points="151.3534,-117.7122 155.9184,-108.1513 146.3875,-112.7786 151.3534,-117.7122"/>
</g>
<!-- 12&#45;&gt;2 -->
<g id="edge27" class="edge">
<title>12&#45;&gt;2</title>
<path fill="none" stroke="#c0c0c0" stroke-width="2" d="M542.4044,-577.6054C519.8562,-565.7317 492.4513,-550.0613 484.0073,-540 456.5193,-507.247 450.0073,-492.7592 450.0073,-450 450.0073,-450 450.0073,-450 450.0073,-306 450.0073,-265.8605 448.4351,-219.4516 447.2621,-190.4112"/>
<polygon fill="#c0c0c0" stroke="#c0c0c0" stroke-width="2" points="450.7492,-190.0266 446.8361,-180.1809 443.7552,-190.3179 450.7492,-190.0266"/>
</g>
<!-- 12&#45;&gt;17 -->
<g id="edge55" class="edge">
<title>12&#45;&gt;17</title>
<path fill="none" stroke="#c0c0c0" stroke-width="2" d="M549.2851,-575.9213C537.7254,-566.496 524.9297,-554.0124 517.0073,-540 496.8868,-504.4125 498.0073,-490.8816 498.0073,-450 498.0073,-450 498.0073,-450 498.0073,-306 498.0073,-232.5524 543.9312,-155.668 571.2364,-116.4457"/>
<polygon fill="#c0c0c0" stroke="#c0c0c0" stroke-width="2" points="574.1481,-118.3905 577.0843,-108.2106 568.4407,-114.3376 574.1481,-118.3905"/>
</g>
<!-- 12&#45;&gt;18 -->
<g id="edge58" class="edge">
<title>12&#45;&gt;18</title>
<path fill="none" stroke="#c0c0c0" stroke-width="2" d="M607.7295,-592.0457C719.3097,-584.6361 1081.7748,-554.1916 1151.0073,-468 1237.2283,-360.6585 1131.7301,-183.1363 1086.0865,-116.4267"/>
<polygon fill="#c0c0c0" stroke="#c0c0c0" stroke-width="2" points="1088.9021,-114.3451 1080.3233,-108.1279 1083.1526,-118.338 1088.9021,-114.3451"/>
</g>
<!-- 21 -->
<g id="node22" class="node">
<title>21</title>
<path fill="none" stroke="#56d87b" stroke-width="2" stroke-dasharray="5,2" d="M321.7361,-468C321.7361,-468 178.2786,-468 178.2786,-468 172.2786,-468 166.2786,-462 166.2786,-456 166.2786,-456 166.2786,-444 166.2786,-444 166.2786,-438 172.2786,-432 178.2786,-432 178.2786,-432 321.7361,-432 321.7361,-432 327.7361,-432 333.7361,-438 333.7361,-444 333.7361,-444 333.7361,-456 333.7361,-456 333.7361,-462 327.7361,-468 321.7361,-468"/>
<text text-anchor="middle" x="250.0073" y="-452" font-family="sans" font-size="10.00" fill="#000000">ExtractPlatformMTsnps</text>
<text text-anchor="middle" x="250.0073" y="-442" font-family="sans" font-size="10.00" fill="#000000">MtPlatforms: GSA&#45;24v1&#45;0_A2&#45;b37</text>
</g>
<!-- 12&#45;&gt;21 -->
<g id="edge65" class="edge">
<title>12&#45;&gt;21</title>
<path fill="none" stroke="#c0c0c0" stroke-width="2" d="M542.4088,-582.1782C514.0478,-571.6936 471.9691,-555.6559 436.0073,-540 386.8859,-518.6151 331.7763,-491.5517 294.3825,-472.713"/>
<polygon fill="#c0c0c0" stroke="#c0c0c0" stroke-width="2" points="295.7755,-469.4955 285.2717,-468.1092 292.6184,-475.7431 295.7755,-469.4955"/>
</g>
<!-- 22 -->
<g id="node23" class="node">
<title>22</title>
<path fill="none" stroke="#56d87b" stroke-width="2" stroke-dasharray="5,2" d="M814.4257,-468C814.4257,-468 643.5889,-468 643.5889,-468 637.5889,-468 631.5889,-462 631.5889,-456 631.5889,-456 631.5889,-444 631.5889,-444 631.5889,-438 637.5889,-432 643.5889,-432 643.5889,-432 814.4257,-432 814.4257,-432 820.4257,-432 826.4257,-438 826.4257,-444 826.4257,-444 826.4257,-456 826.4257,-456 826.4257,-462 820.4257,-468 814.4257,-468"/>
<text text-anchor="middle" x="729.0073" y="-452" font-family="sans" font-size="10.00" fill="#000000">ExtractPlatformMTsnps</text>
<text text-anchor="middle" x="729.0073" y="-442" font-family="sans" font-size="10.00" fill="#000000">MtPlatforms: Human610&#45;Quadv1_B&#45;b37</text>
</g>
<!-- 12&#45;&gt;22 -->
<g id="edge66" class="edge">
<title>12&#45;&gt;22</title>
<path fill="none" stroke="#c0c0c0" stroke-width="2" d="M594.6212,-575.7702C605.8656,-565.3114 620.2397,-551.9283 633.0073,-540 656.336,-518.2049 682.8021,-493.386 702.0286,-475.3393"/>
<polygon fill="#c0c0c0" stroke="#c0c0c0" stroke-width="2" points="704.641,-477.6874 709.5362,-468.2912 699.8499,-472.584 704.641,-477.6874"/>
</g>
<!-- 25 -->
<g id="node26" class="node">
<title>25</title>
<path fill="none" stroke="#56d87b" stroke-width="2" stroke-dasharray="5,2" d="M1129.6099,-468C1129.6099,-468 962.4048,-468 962.4048,-468 956.4048,-468 950.4048,-462 950.4048,-456 950.4048,-456 950.4048,-444 950.4048,-444 950.4048,-438 956.4048,-432 962.4048,-432 962.4048,-432 1129.6099,-432 1129.6099,-432 1135.6099,-432 1141.6099,-438 1141.6099,-444 1141.6099,-444 1141.6099,-456 1141.6099,-456 1141.6099,-462 1135.6099,-468 1129.6099,-468"/>
<text text-anchor="middle" x="1046.0073" y="-452" font-family="sans" font-size="10.00" fill="#000000">ExtractPlatformMTsnps</text>
<text text-anchor="middle" x="1046.0073" y="-442" font-family="sans" font-size="10.00" fill="#000000">MtPlatforms: NeuroX_15036164_A&#45;b37</text>
</g>
<!-- 12&#45;&gt;25 -->
<g id="edge69" class="edge">
<title>12&#45;&gt;25</title>
<path fill="none" stroke="#c0c0c0" stroke-width="2" d="M607.7532,-583.9885C683.9443,-560.6944 874.432,-502.4562 977.3889,-470.9789"/>
<polygon fill="#c0c0c0" stroke="#c0c0c0" stroke-width="2" points="978.5327,-474.2892 987.0724,-468.0183 976.4861,-467.595 978.5327,-474.2892"/>
</g>
<!-- 29 -->
<g id="node30" class="node">
<title>29</title>
<path fill="none" stroke="#b6d856" stroke-width="2" stroke-dasharray="5,2" d="M611.7119,-540C611.7119,-540 538.3028,-540 538.3028,-540 532.3028,-540 526.3028,-534 526.3028,-528 526.3028,-528 526.3028,-516 526.3028,-516 526.3028,-510 532.3028,-504 538.3028,-504 538.3028,-504 611.7119,-504 611.7119,-504 617.7119,-504 623.7119,-510 623.7119,-516 623.7119,-516 623.7119,-528 623.7119,-528 623.7119,-534 617.7119,-540 611.7119,-540"/>
<text text-anchor="middle" x="575.0073" y="-519" font-family="sans" font-size="10.00" fill="#000000">SampleNames1kg</text>
</g>
<!-- 12&#45;&gt;29 -->
<g id="edge73" class="edge">
<title>12&#45;&gt;29</title>
<path fill="none" stroke="#c0c0c0" stroke-width="2" d="M575.0073,-575.8314C575.0073,-568.131 575.0073,-558.9743 575.0073,-550.4166"/>
<polygon fill="#c0c0c0" stroke="#c0c0c0" stroke-width="2" points="578.5074,-550.4132 575.0073,-540.4133 571.5074,-550.4133 578.5074,-550.4132"/>
</g>
<!-- 13 -->
<g id="node14" class="node">
<title>13</title>
<path fill="none" stroke="#56d89a" stroke-width="2" stroke-dasharray="5,2" d="M403.7685,-396C403.7685,-396 344.2462,-396 344.2462,-396 338.2462,-396 332.2462,-390 332.2462,-384 332.2462,-384 332.2462,-372 332.2462,-372 332.2462,-366 338.2462,-360 344.2462,-360 344.2462,-360 403.7685,-360 403.7685,-360 409.7685,-360 415.7685,-366 415.7685,-372 415.7685,-372 415.7685,-384 415.7685,-384 415.7685,-390 409.7685,-396 403.7685,-396"/>
<text text-anchor="middle" x="374.0073" y="-375" font-family="sans" font-size="10.00" fill="#000000">vcf2gensample</text>
</g>
<!-- 13&#45;&gt;0 -->
<g id="edge13" class="edge">
<title>13&#45;&gt;0</title>
<path fill="none" stroke="#c0c0c0" stroke-width="2" d="M374.8361,-359.8191C376.0078,-332.5085 378.0073,-279.2675 378.0073,-234 378.0073,-234 378.0073,-234 378.0073,-162 378.0073,-144.7205 343.8614,-139.7871 481.0073,-72 552.5087,-36.659 646.4916,-24.375 697.7348,-20.1581"/>
<polygon fill="#c0c0c0" stroke="#c0c0c0" stroke-width="2" points="698.2925,-23.6258 707.9973,-19.3753 697.7601,-16.6461 698.2925,-23.6258"/>
</g>
<!-- 13&#45;&gt;3 -->
<g id="edge28" class="edge">
<title>13&#45;&gt;3</title>
<path fill="none" stroke="#c0c0c0" stroke-width="2" d="M355.8387,-359.8314C347.2921,-351.2848 336.9516,-340.9443 327.6272,-331.6198"/>
<polygon fill="#c0c0c0" stroke="#c0c0c0" stroke-width="2" points="329.9666,-329.0095 320.4206,-324.4133 325.0168,-333.9592 329.9666,-329.0095"/>
</g>
<!-- 14 -->
<g id="node15" class="node">
<title>14</title>
<path fill="none" stroke="#d89556" stroke-width="2" stroke-dasharray="5,2" d="M1254.022,-180C1254.022,-180 1221.9927,-180 1221.9927,-180 1215.9927,-180 1209.9927,-174 1209.9927,-168 1209.9927,-168 1209.9927,-156 1209.9927,-156 1209.9927,-150 1215.9927,-144 1221.9927,-144 1221.9927,-144 1254.022,-144 1254.022,-144 1260.022,-144 1266.022,-150 1266.022,-156 1266.022,-156 1266.022,-168 1266.022,-168 1266.022,-174 1260.022,-180 1254.022,-180"/>
<text text-anchor="middle" x="1238.0073" y="-159" font-family="sans" font-size="10.00" fill="#000000">vcf2Plink</text>
</g>
<!-- 14&#45;&gt;0 -->
<g id="edge14" class="edge">
<title>14&#45;&gt;0</title>
<path fill="none" stroke="#c0c0c0" stroke-width="2" d="M1234.9377,-143.7923C1230.3688,-122.8173 1219.6323,-89.0589 1196.0073,-72 1161.8211,-47.3151 875.3558,-26.8967 772.0036,-20.27"/>
<polygon fill="#c0c0c0" stroke="#c0c0c0" stroke-width="2" points="772.2223,-16.777 762.0207,-19.6365 771.7789,-23.7629 772.2223,-16.777"/>
</g>
<!-- 14&#45;&gt;18 -->
<g id="edge60" class="edge">
<title>14&#45;&gt;18</title>
<path fill="none" stroke="#c0c0c0" stroke-width="2" d="M1209.7702,-150.1107C1185.2894,-139.803 1149.217,-124.6146 1119.458,-112.0845"/>
<polygon fill="#c0c0c0" stroke="#c0c0c0" stroke-width="2" points="1120.6151,-108.7742 1110.0405,-108.1193 1117.8987,-115.2256 1120.6151,-108.7742"/>
</g>
<!-- 15&#45;&gt;0 -->
<g id="edge15" class="edge">
<title>15&#45;&gt;0</title>
<path fill="none" stroke="#c0c0c0" stroke-width="2" d="M205.5212,-143.6473C233.7021,-118.6082 282.0464,-76.333 292.0073,-72 364.7801,-40.3441 604.7574,-24.7727 697.7406,-19.8143"/>
<polygon fill="#c0c0c0" stroke="#c0c0c0" stroke-width="2" points="698.0144,-23.3049 707.8182,-19.288 697.6493,-16.3144 698.0144,-23.3049"/>
</g>
<!-- 15&#45;&gt;1 -->
<g id="edge25" class="edge">
<title>15&#45;&gt;1</title>
<path fill="none" stroke="#c0c0c0" stroke-width="2" d="M182.9886,-143.8314C182.133,-136.131 181.1156,-126.9743 180.1647,-118.4166"/>
<polygon fill="#c0c0c0" stroke="#c0c0c0" stroke-width="2" points="183.6362,-117.9656 179.0532,-108.4133 176.6791,-118.7386 183.6362,-117.9656"/>
</g>
<!-- 16&#45;&gt;0 -->
<g id="edge16" class="edge">
<title>16&#45;&gt;0</title>
<path fill="none" stroke="#c0c0c0" stroke-width="2" d="M627.5634,-143.608C636.8684,-133.2129 648.6581,-119.9448 659.0073,-108 677.5883,-86.5544 698.3532,-61.9175 713.4764,-43.8484"/>
<polygon fill="#c0c0c0" stroke="#c0c0c0" stroke-width="2" points="716.2722,-45.961 719.9998,-36.0436 710.9012,-41.4718 716.2722,-45.961"/>
</g>
<!-- 16&#45;&gt;17 -->
<g id="edge50" class="edge">
<title>16&#45;&gt;17</title>
<path fill="none" stroke="#c0c0c0" stroke-width="2" d="M605.9605,-143.8314C603.798,-136.0463 601.222,-126.7729 598.8225,-118.1347"/>
<polygon fill="#c0c0c0" stroke="#c0c0c0" stroke-width="2" points="602.1709,-117.1117 596.1221,-108.4133 595.4263,-118.9852 602.1709,-117.1117"/>
</g>
<!-- 17&#45;&gt;0 -->
<g id="edge17" class="edge">
<title>17&#45;&gt;0</title>
<path fill="none" stroke="#c0c0c0" stroke-width="2" d="M627.3446,-71.8314C649.2156,-60.8959 676.9601,-47.0236 698.8066,-36.1004"/>
<polygon fill="#c0c0c0" stroke="#c0c0c0" stroke-width="2" points="700.3949,-39.2194 707.7739,-31.6167 697.2644,-32.9584 700.3949,-39.2194"/>
</g>
<!-- 18&#45;&gt;0 -->
<g id="edge18" class="edge">
<title>18&#45;&gt;0</title>
<path fill="none" stroke="#c0c0c0" stroke-width="2" d="M1007.2914,-75.0889C1002.8006,-74.0247 998.3349,-72.9843 994.0073,-72 915.397,-54.1196 822.8333,-35.3739 772.4008,-25.3543"/>
<polygon fill="#c0c0c0" stroke="#c0c0c0" stroke-width="2" points="772.7884,-21.8631 762.2987,-23.3521 771.4274,-28.7296 772.7884,-21.8631"/>
</g>
<!-- 19 -->
<g id="node20" class="node">
<title>19</title>
<path fill="none" stroke="#d89556" stroke-width="2" stroke-dasharray="5,2" d="M864.022,-180C864.022,-180 831.9927,-180 831.9927,-180 825.9927,-180 819.9927,-174 819.9927,-168 819.9927,-168 819.9927,-156 819.9927,-156 819.9927,-150 825.9927,-144 831.9927,-144 831.9927,-144 864.022,-144 864.022,-144 870.022,-144 876.022,-150 876.022,-156 876.022,-156 876.022,-168 876.022,-168 876.022,-174 870.022,-180 864.022,-180"/>
<text text-anchor="middle" x="848.0073" y="-159" font-family="sans" font-size="10.00" fill="#000000">vcf2Plink</text>
</g>
<!-- 19&#45;&gt;0 -->
<g id="edge19" class="edge">
<title>19&#45;&gt;0</title>
<path fill="none" stroke="#c0c0c0" stroke-width="2" d="M842.3907,-143.6593C835.8525,-124.3833 823.6492,-93.8788 806.0073,-72 796.1345,-59.7561 782.9205,-48.728 770.5702,-39.8781"/>
<polygon fill="#c0c0c0" stroke="#c0c0c0" stroke-width="2" points="772.4286,-36.9081 762.2096,-34.111 768.4539,-42.6702 772.4286,-36.9081"/>
</g>
<!-- 19&#45;&gt;17 -->
<g id="edge54" class="edge">
<title>19&#45;&gt;17</title>
<path fill="none" stroke="#c0c0c0" stroke-width="2" d="M819.5219,-154.0196C781.3997,-143.3395 712.5427,-124.0488 660.3459,-109.4256"/>
<polygon fill="#c0c0c0" stroke="#c0c0c0" stroke-width="2" points="661.0475,-105.9875 650.474,-106.6599 659.1591,-112.7279 661.0475,-105.9875"/>
</g>
<!-- 20&#45;&gt;0 -->
<g id="edge20" class="edge">
<title>20&#45;&gt;0</title>
<path fill="none" stroke="#c0c0c0" stroke-width="2" d="M958.5831,-143.7207C952.7104,-123.3216 940.3761,-90.7282 918.0073,-72 895.8704,-53.466 819.0314,-35.135 772.2501,-25.324"/>
<polygon fill="#c0c0c0" stroke="#c0c0c0" stroke-width="2" points="772.6893,-21.8409 762.1883,-23.2477 771.2746,-28.6965 772.6893,-21.8409"/>
</g>
<!-- 20&#45;&gt;18 -->
<g id="edge59" class="edge">
<title>20&#45;&gt;18</title>
<path fill="none" stroke="#c0c0c0" stroke-width="2" d="M989.2509,-143.8314C1002.3068,-134.7927 1018.2608,-123.7476 1032.312,-114.0198"/>
<polygon fill="#c0c0c0" stroke="#c0c0c0" stroke-width="2" points="1034.5424,-116.7326 1040.7721,-108.1628 1030.5579,-110.9773 1034.5424,-116.7326"/>
</g>
<!-- 21&#45;&gt;1 -->
<g id="edge26" class="edge">
<title>21&#45;&gt;1</title>
<path fill="none" stroke="#c0c0c0" stroke-width="2" d="M217.0441,-431.8336C179.1187,-408.233 122.0073,-363.1976 122.0073,-306 122.0073,-306 122.0073,-306 122.0073,-234 122.0073,-192.7145 129.2127,-182.1448 145.0073,-144 148.8038,-134.8314 153.9483,-125.3529 159.0016,-116.945"/>
<polygon fill="#c0c0c0" stroke="#c0c0c0" stroke-width="2" points="162.0655,-118.6459 164.3809,-108.3072 156.1236,-114.9455 162.0655,-118.6459"/>
</g>
<!-- 21&#45;&gt;10 -->
<g id="edge39" class="edge">
<title>21&#45;&gt;10</title>
<path fill="none" stroke="#c0c0c0" stroke-width="2" d="M166.5412,-431.9032C145.2163,-423.8876 123.8633,-412.404 108.0073,-396 51.8326,-337.8839 35.0146,-238.6953 30.0475,-190.2731"/>
<polygon fill="#c0c0c0" stroke="#c0c0c0" stroke-width="2" points="33.5216,-189.831 29.112,-180.1974 26.5516,-190.4782 33.5216,-189.831"/>
</g>
<!-- 21&#45;&gt;13 -->
<g id="edge44" class="edge">
<title>21&#45;&gt;13</title>
<path fill="none" stroke="#c0c0c0" stroke-width="2" d="M281.2978,-431.8314C297.305,-422.5368 316.9659,-411.1208 334.0567,-401.1971"/>
<polygon fill="#c0c0c0" stroke="#c0c0c0" stroke-width="2" points="335.8365,-404.211 342.7269,-396.1628 332.3215,-398.1575 335.8365,-404.211"/>
</g>
<!-- 22&#45;&gt;5 -->
<g id="edge30" class="edge">
<title>22&#45;&gt;5</title>
<path fill="none" stroke="#c0c0c0" stroke-width="2" d="M727.2409,-431.8314C726.4923,-424.131 725.6021,-414.9743 724.7701,-406.4166"/>
<polygon fill="#c0c0c0" stroke="#c0c0c0" stroke-width="2" points="728.2488,-406.0276 723.7975,-396.4133 721.2817,-406.7051 728.2488,-406.0276"/>
</g>
<!-- 22&#45;&gt;17 -->
<g id="edge52" class="edge">
<title>22&#45;&gt;17</title>
<path fill="none" stroke="#c0c0c0" stroke-width="2" d="M706.6965,-431.7887C695.2945,-421.8738 681.6243,-409.0004 671.0073,-396 623.5642,-337.9067 609.2082,-322.2794 583.0073,-252 566.1366,-206.7471 562.4868,-191.5378 571.0073,-144 572.6046,-135.0882 575.5747,-125.7238 578.7465,-117.3422"/>
<polygon fill="#c0c0c0" stroke="#c0c0c0" stroke-width="2" points="582.0033,-118.6241 582.4922,-108.0406 575.5101,-116.0093 582.0033,-118.6241"/>
</g>
<!-- 22&#45;&gt;19 -->
<g id="edge62" class="edge">
<title>22&#45;&gt;19</title>
<path fill="none" stroke="#c0c0c0" stroke-width="2" d="M745.7181,-431.8891C754.5126,-421.7982 765.0835,-408.7309 773.0073,-396 814.7465,-328.9397 835.3421,-236.4755 843.5447,-190.4353"/>
<polygon fill="#c0c0c0" stroke="#c0c0c0" stroke-width="2" points="847.0431,-190.742 845.2831,-180.2944 840.1438,-189.5593 847.0431,-190.742"/>
</g>
<!-- 23 -->
<g id="node24" class="node">
<title>23</title>
<path fill="none" stroke="#78d856" stroke-width="2" stroke-dasharray="5,2" d="M601.7685,-468C601.7685,-468 542.2462,-468 542.2462,-468 536.2462,-468 530.2462,-462 530.2462,-456 530.2462,-456 530.2462,-444 530.2462,-444 530.2462,-438 536.2462,-432 542.2462,-432 542.2462,-432 601.7685,-432 601.7685,-432 607.7685,-432 613.7685,-438 613.7685,-444 613.7685,-444 613.7685,-456 613.7685,-456 613.7685,-462 607.7685,-468 601.7685,-468"/>
<text text-anchor="middle" x="572.0073" y="-447" font-family="sans" font-size="10.00" fill="#000000">SampleSex1kg</text>
</g>
<!-- 23&#45;&gt;5 -->
<g id="edge31" class="edge">
<title>23&#45;&gt;5</title>
<path fill="none" stroke="#c0c0c0" stroke-width="2" d="M609.8587,-431.8314C629.7419,-422.2874 654.2855,-410.5065 675.3379,-400.4013"/>
<polygon fill="#c0c0c0" stroke="#c0c0c0" stroke-width="2" points="676.9275,-403.5207 684.4282,-396.038 673.8984,-397.21 676.9275,-403.5207"/>
</g>
<!-- 23&#45;&gt;7 -->
<g id="edge34" class="edge">
<title>23&#45;&gt;7</title>
<path fill="none" stroke="#c0c0c0" stroke-width="2" d="M613.8286,-434.4826C616.9137,-433.5714 619.9961,-432.7303 623.0073,-432 743.1836,-402.8555 888.1131,-388.0292 963.9531,-381.7734"/>
<polygon fill="#c0c0c0" stroke="#c0c0c0" stroke-width="2" points="964.5003,-385.2407 974.1861,-380.9469 963.9368,-378.2634 964.5003,-385.2407"/>
</g>
<!-- 23&#45;&gt;13 -->
<g id="edge43" class="edge">
<title>23&#45;&gt;13</title>
<path fill="none" stroke="#c0c0c0" stroke-width="2" d="M530.0166,-434.7307C499.5655,-423.6575 458.1983,-408.6149 425.7123,-396.8018"/>
<polygon fill="#c0c0c0" stroke="#c0c0c0" stroke-width="2" points="426.5316,-393.3756 415.9375,-393.2473 424.1393,-399.9541 426.5316,-393.3756"/>
</g>
<!-- 24&#45;&gt;6 -->
<g id="edge32" class="edge">
<title>24&#45;&gt;6</title>
<path fill="none" stroke="#c0c0c0" stroke-width="2" d="M657.1198,-215.8314C662.5354,-207.7079 669.0315,-197.9637 674.9995,-189.0118"/>
<polygon fill="#c0c0c0" stroke="#c0c0c0" stroke-width="2" points="678.0969,-190.6753 680.7318,-180.4133 672.2726,-186.7923 678.0969,-190.6753"/>
</g>
<!-- 24&#45;&gt;16 -->
<g id="edge48" class="edge">
<title>24&#45;&gt;16</title>
<path fill="none" stroke="#c0c0c0" stroke-width="2" d="M636.4277,-215.8314C632.6715,-207.8771 628.1816,-198.369 624.0276,-189.5723"/>
<polygon fill="#c0c0c0" stroke="#c0c0c0" stroke-width="2" points="627.1375,-187.9612 619.7025,-180.4133 620.8077,-190.9503 627.1375,-187.9612"/>
</g>
<!-- 25&#45;&gt;7 -->
<g id="edge35" class="edge">
<title>25&#45;&gt;7</title>
<path fill="none" stroke="#c0c0c0" stroke-width="2" d="M1038.4371,-431.8314C1035.158,-423.9617 1031.2453,-414.5712 1027.6129,-405.8533"/>
<polygon fill="#c0c0c0" stroke="#c0c0c0" stroke-width="2" points="1030.7565,-404.2979 1023.6795,-396.4133 1024.295,-406.9902 1030.7565,-404.2979"/>
</g>
<!-- 25&#45;&gt;14 -->
<g id="edge45" class="edge">
<title>25&#45;&gt;14</title>
<path fill="none" stroke="#c0c0c0" stroke-width="2" d="M1089.4472,-431.7756C1106.3498,-422.9684 1124.7892,-411.012 1138.0073,-396 1192.6998,-333.8853 1220.8962,-237.3748 1232.0876,-190.0692"/>
<polygon fill="#c0c0c0" stroke="#c0c0c0" stroke-width="2" points="1235.5234,-190.7449 1234.3391,-180.2164 1228.6993,-189.1854 1235.5234,-190.7449"/>
</g>
<!-- 25&#45;&gt;18 -->
<g id="edge61" class="edge">
<title>25&#45;&gt;18</title>
<path fill="none" stroke="#c0c0c0" stroke-width="2" d="M1054.5027,-431.9105C1058.9653,-421.61 1064.098,-408.3359 1067.0073,-396 1089.1379,-302.1637 1082.5581,-276.3079 1087.0073,-180 1087.7457,-164.017 1089.8301,-159.749 1087.0073,-144 1085.41,-135.0882 1082.4399,-125.7238 1079.2682,-117.3422"/>
<polygon fill="#c0c0c0" stroke="#c0c0c0" stroke-width="2" points="1082.5046,-116.0093 1075.5224,-108.0406 1076.0113,-118.6241 1082.5046,-116.0093"/>
</g>
<!-- 26&#45;&gt;8 -->
<g id="edge37" class="edge">
<title>26&#45;&gt;8</title>
<path fill="none" stroke="#c0c0c0" stroke-width="2" d="M242.1104,-215.8314C247.0747,-207.7079 253.0295,-197.9637 258.5001,-189.0118"/>
<polygon fill="#c0c0c0" stroke="#c0c0c0" stroke-width="2" points="261.5267,-190.7712 263.7548,-180.4133 255.5537,-187.121 261.5267,-190.7712"/>
</g>
<!-- 26&#45;&gt;15 -->
<g id="edge47" class="edge">
<title>26&#45;&gt;15</title>
<path fill="none" stroke="#c0c0c0" stroke-width="2" d="M219.3996,-215.8314C214.2096,-207.7079 207.9842,-197.9637 202.2649,-189.0118"/>
<polygon fill="#c0c0c0" stroke="#c0c0c0" stroke-width="2" points="205.1047,-186.9559 196.7714,-180.4133 199.2059,-190.7246 205.1047,-186.9559"/>
</g>
<!-- 27&#45;&gt;11 -->
<g id="edge41" class="edge">
<title>27&#45;&gt;11</title>
<path fill="none" stroke="#c0c0c0" stroke-width="2" d="M994.1666,-215.8314C1002.1585,-207.3694 1011.8111,-197.1489 1020.549,-187.8971"/>
<polygon fill="#c0c0c0" stroke="#c0c0c0" stroke-width="2" points="1023.2953,-190.0866 1027.617,-180.4133 1018.2062,-185.2802 1023.2953,-190.0866"/>
</g>
<!-- 27&#45;&gt;20 -->
<g id="edge64" class="edge">
<title>27&#45;&gt;20</title>
<path fill="none" stroke="#c0c0c0" stroke-width="2" d="M973.4745,-215.8314C971.9772,-208.131 970.1968,-198.9743 968.5328,-190.4166"/>
<polygon fill="#c0c0c0" stroke="#c0c0c0" stroke-width="2" points="971.9321,-189.5614 966.5877,-180.4133 965.0608,-190.8975 971.9321,-189.5614"/>
</g>
<!-- 28 -->
<g id="node29" class="node">
<title>28</title>
<path fill="none" stroke="#d6d856" stroke-width="2" stroke-dasharray="5,2" d="M604.8152,-684C604.8152,-684 545.1995,-684 545.1995,-684 539.1995,-684 533.1995,-678 533.1995,-672 533.1995,-672 533.1995,-660 533.1995,-660 533.1995,-654 539.1995,-648 545.1995,-648 545.1995,-648 604.8152,-648 604.8152,-648 610.8152,-648 616.8152,-654 616.8152,-660 616.8152,-660 616.8152,-672 616.8152,-672 616.8152,-678 610.8152,-684 604.8152,-684"/>
<text text-anchor="middle" x="575.0073" y="-663" font-family="sans" font-size="10.00" fill="#000000">DecomposeVcf</text>
</g>
<!-- 28&#45;&gt;12 -->
<g id="edge42" class="edge">
<title>28&#45;&gt;12</title>
<path fill="none" stroke="#c0c0c0" stroke-width="2" d="M575.0073,-647.8314C575.0073,-640.131 575.0073,-630.9743 575.0073,-622.4166"/>
<polygon fill="#c0c0c0" stroke="#c0c0c0" stroke-width="2" points="578.5074,-622.4132 575.0073,-612.4133 571.5074,-622.4133 578.5074,-622.4132"/>
</g>
<!-- 29&#45;&gt;23 -->
<g id="edge67" class="edge">
<title>29&#45;&gt;23</title>
<path fill="none" stroke="#c0c0c0" stroke-width="2" d="M574.2503,-503.8314C573.9294,-496.131 573.5479,-486.9743 573.1914,-478.4166"/>
<polygon fill="#c0c0c0" stroke="#c0c0c0" stroke-width="2" points="576.6879,-478.2589 572.7745,-468.4133 569.694,-478.5503 576.6879,-478.2589"/>
</g>
<!-- 30 -->
<g id="node31" class="node">
<title>30</title>
<path fill="none" stroke="#569ad8" stroke-width="2" stroke-dasharray="5,2" d="M600.9667,-756C600.9667,-756 549.0479,-756 549.0479,-756 543.0479,-756 537.0479,-750 537.0479,-744 537.0479,-744 537.0479,-732 537.0479,-732 537.0479,-726 543.0479,-720 549.0479,-720 549.0479,-720 600.9667,-720 600.9667,-720 606.9667,-720 612.9667,-726 612.9667,-732 612.9667,-732 612.9667,-744 612.9667,-744 612.9667,-750 606.9667,-756 600.9667,-756"/>
<text text-anchor="middle" x="575.0073" y="-735" font-family="sans" font-size="10.00" fill="#000000">NormaliseVcf</text>
</g>
<!-- 30&#45;&gt;28 -->
<g id="edge72" class="edge">
<title>30&#45;&gt;28</title>
<path fill="none" stroke="#c0c0c0" stroke-width="2" d="M575.0073,-719.8314C575.0073,-712.131 575.0073,-702.9743 575.0073,-694.4166"/>
<polygon fill="#c0c0c0" stroke="#c0c0c0" stroke-width="2" points="578.5074,-694.4132 575.0073,-684.4133 571.5074,-694.4133 578.5074,-694.4132"/>
</g>
<!-- 31 -->
<g id="node32" class="node">
<title>31</title>
<path fill="none" stroke="#56b9d8" stroke-width="2" stroke-dasharray="5,2" d="M603.5269,-828C603.5269,-828 546.4878,-828 546.4878,-828 540.4878,-828 534.4878,-822 534.4878,-816 534.4878,-816 534.4878,-804 534.4878,-804 534.4878,-798 540.4878,-792 546.4878,-792 546.4878,-792 603.5269,-792 603.5269,-792 609.5269,-792 615.5269,-798 615.5269,-804 615.5269,-804 615.5269,-816 615.5269,-816 615.5269,-822 609.5269,-828 603.5269,-828"/>
<text text-anchor="middle" x="575.0073" y="-807" font-family="sans" font-size="10.00" fill="#000000">Get1kgMT_vcf</text>
</g>
<!-- 31&#45;&gt;30 -->
<g id="edge74" class="edge">
<title>31&#45;&gt;30</title>
<path fill="none" stroke="#c0c0c0" stroke-width="2" d="M575.0073,-791.8314C575.0073,-784.131 575.0073,-774.9743 575.0073,-766.4166"/>
<polygon fill="#c0c0c0" stroke="#c0c0c0" stroke-width="2" points="578.5074,-766.4132 575.0073,-756.4133 571.5074,-766.4133 578.5074,-766.4132"/>
</g>
</g>
</svg>
