<?xml version="1.0" encoding="UTF-8" standalone="no"?>
<!DOCTYPE svg PUBLIC "-//W3C//DTD SVG 1.1//EN"
 "http://www.w3.org/Graphics/SVG/1.1/DTD/svg11.dtd">
<!-- Generated by graphviz version 2.40.1 (20161225.0304)
 -->
<!-- Title: snakemake_dag Pages: 1 -->
<svg width="326pt" height="620pt"
 viewBox="0.00 0.00 326.00 620.00" xmlns="http://www.w3.org/2000/svg" xmlns:xlink="http://www.w3.org/1999/xlink">
<g id="graph0" class="graph" transform="scale(1 1) rotate(0) translate(4 616)">
<title>snakemake_dag</title>
<polygon fill="#ffffff" stroke="transparent" points="-4,4 -4,-616 322,-616 322,4 -4,4"/>
<!-- 0 -->
<g id="node1" class="node">
<title>0</title>
<path fill="none" stroke="#d8ac56" stroke-width="2" d="M163.5,-36C163.5,-36 133.5,-36 133.5,-36 127.5,-36 121.5,-30 121.5,-24 121.5,-24 121.5,-12 121.5,-12 121.5,-6 127.5,0 133.5,0 133.5,0 163.5,0 163.5,0 169.5,0 175.5,-6 175.5,-12 175.5,-12 175.5,-24 175.5,-24 175.5,-30 169.5,-36 163.5,-36"/>
<text text-anchor="middle" x="148.5" y="-15.5" font-family="sans" font-size="10.00" fill="#000000">all</text>
</g>
<!-- 1 -->
<g id="node2" class="node">
<title>1</title>
<path fill="none" stroke="#80d856" stroke-width="2" stroke-dasharray="5,2" d="M306,-180C306,-180 263,-180 263,-180 257,-180 251,-174 251,-168 251,-168 251,-156 251,-156 251,-150 257,-144 263,-144 263,-144 306,-144 306,-144 312,-144 318,-150 318,-156 318,-156 318,-168 318,-168 318,-174 312,-180 306,-180"/>
<text text-anchor="middle" x="284.5" y="-159.5" font-family="sans" font-size="10.00" fill="#000000">oxford2bed</text>
</g>
<!-- 1&#45;&gt;0 -->
<g id="edge1" class="edge">
<title>1&#45;&gt;0</title>
<path fill="none" stroke="#c0c0c0" stroke-width="2" d="M267.2755,-143.7623C243.3634,-118.4436 199.9894,-72.5182 172.7959,-43.7251"/>
<polygon fill="#c0c0c0" stroke="#c0c0c0" stroke-width="2" points="174.9955,-40.9566 165.5846,-36.0896 169.9063,-45.763 174.9955,-40.9566"/>
</g>
<!-- 2 -->
<g id="node3" class="node">
<title>2</title>
<path fill="none" stroke="#56d8a9" stroke-width="2" stroke-dasharray="5,2" d="M140,-180C140,-180 97,-180 97,-180 91,-180 85,-174 85,-168 85,-168 85,-156 85,-156 85,-150 91,-144 97,-144 97,-144 140,-144 140,-144 146,-144 152,-150 152,-156 152,-156 152,-168 152,-168 152,-174 146,-180 140,-180"/>
<text text-anchor="middle" x="118.5" y="-159.5" font-family="sans" font-size="10.00" fill="#000000">oxford2ped</text>
</g>
<!-- 2&#45;&gt;0 -->
<g id="edge2" class="edge">
<title>2&#45;&gt;0</title>
<path fill="none" stroke="#c0c0c0" stroke-width="2" d="M122.2995,-143.7623C127.439,-119.0928 136.6542,-74.8598 142.6723,-45.9731"/>
<polygon fill="#c0c0c0" stroke="#c0c0c0" stroke-width="2" points="146.1181,-46.5933 144.7313,-36.0896 139.2653,-45.1656 146.1181,-46.5933"/>
</g>
<!-- 4 -->
<g id="node5" class="node">
<title>4</title>
<path fill="none" stroke="#56a9d8" stroke-width="2" d="M86.5,-108C86.5,-108 56.5,-108 56.5,-108 50.5,-108 44.5,-102 44.5,-96 44.5,-96 44.5,-84 44.5,-84 44.5,-78 50.5,-72 56.5,-72 56.5,-72 86.5,-72 86.5,-72 92.5,-72 98.5,-78 98.5,-84 98.5,-84 98.5,-96 98.5,-96 98.5,-102 92.5,-108 86.5,-108"/>
<text text-anchor="middle" x="71.5" y="-87.5" font-family="sans" font-size="10.00" fill="#000000">plots</text>
</g>
<!-- 2&#45;&gt;4 -->
<g id="edge12" class="edge">
<title>2&#45;&gt;4</title>
<path fill="none" stroke="#c0c0c0" stroke-width="2" d="M106.6399,-143.8314C101.3371,-135.7079 94.9763,-125.9637 89.1327,-117.0118"/>
<polygon fill="#c0c0c0" stroke="#c0c0c0" stroke-width="2" points="91.9169,-114.8739 83.5198,-108.4133 86.0552,-118.7003 91.9169,-114.8739"/>
</g>
<!-- 3 -->
<g id="node4" class="node">
<title>3</title>
<path fill="none" stroke="#59d856" stroke-width="2" stroke-dasharray="5,2" d="M221,-180C221,-180 182,-180 182,-180 176,-180 170,-174 170,-168 170,-168 170,-156 170,-156 170,-150 176,-144 182,-144 182,-144 221,-144 221,-144 227,-144 233,-150 233,-156 233,-156 233,-168 233,-168 233,-174 227,-180 221,-180"/>
<text text-anchor="middle" x="201.5" y="-159.5" font-family="sans" font-size="10.00" fill="#000000">oxford2vcf</text>
</g>
<!-- 3&#45;&gt;0 -->
<g id="edge3" class="edge">
<title>3&#45;&gt;0</title>
<path fill="none" stroke="#c0c0c0" stroke-width="2" d="M194.7875,-143.7623C185.668,-118.9846 169.2846,-74.4714 158.6561,-45.5939"/>
<polygon fill="#c0c0c0" stroke="#c0c0c0" stroke-width="2" points="161.8967,-44.2652 155.158,-36.0896 155.3275,-46.6831 161.8967,-44.2652"/>
</g>
<!-- 4&#45;&gt;0 -->
<g id="edge4" class="edge">
<title>4&#45;&gt;0</title>
<path fill="none" stroke="#c0c0c0" stroke-width="2" d="M90.9304,-71.8314C100.232,-63.1337 111.5204,-52.5783 121.6286,-43.1265"/>
<polygon fill="#c0c0c0" stroke="#c0c0c0" stroke-width="2" points="124.1621,-45.5493 129.0759,-36.1628 119.3811,-40.4363 124.1621,-45.5493"/>
</g>
<!-- 5 -->
<g id="node6" class="node">
<title>5</title>
<path fill="none" stroke="#56d882" stroke-width="2" stroke-dasharray="5,2" d="M200,-252C200,-252 137,-252 137,-252 131,-252 125,-246 125,-240 125,-240 125,-228 125,-228 125,-222 131,-216 137,-216 137,-216 200,-216 200,-216 206,-216 212,-222 212,-228 212,-228 212,-240 212,-240 212,-246 206,-252 200,-252"/>
<text text-anchor="middle" x="168.5" y="-231.5" font-family="sans" font-size="10.00" fill="#000000">FixChromName</text>
</g>
<!-- 5&#45;&gt;1 -->
<g id="edge5" class="edge">
<title>5&#45;&gt;1</title>
<path fill="none" stroke="#c0c0c0" stroke-width="2" d="M197.7717,-215.8314C212.6088,-206.6221 230.8015,-195.3301 246.6862,-185.4706"/>
<polygon fill="#c0c0c0" stroke="#c0c0c0" stroke-width="2" points="248.587,-188.4102 255.2377,-180.1628 244.8955,-182.4628 248.587,-188.4102"/>
</g>
<!-- 5&#45;&gt;2 -->
<g id="edge7" class="edge">
<title>5&#45;&gt;2</title>
<path fill="none" stroke="#c0c0c0" stroke-width="2" d="M155.8829,-215.8314C150.1828,-207.6232 143.3337,-197.7606 137.0641,-188.7323"/>
<polygon fill="#c0c0c0" stroke="#c0c0c0" stroke-width="2" points="139.8658,-186.6306 131.287,-180.4133 134.1162,-190.6234 139.8658,-186.6306"/>
</g>
<!-- 5&#45;&gt;3 -->
<g id="edge9" class="edge">
<title>5&#45;&gt;3</title>
<path fill="none" stroke="#c0c0c0" stroke-width="2" d="M176.8273,-215.8314C180.473,-207.8771 184.8309,-198.369 188.8627,-189.5723"/>
<polygon fill="#c0c0c0" stroke="#c0c0c0" stroke-width="2" points="192.0757,-190.9622 193.0606,-180.4133 185.7123,-188.0456 192.0757,-190.9622"/>
</g>
<!-- 6 -->
<g id="node7" class="node">
<title>6</title>
<path fill="none" stroke="#d85656" stroke-width="2" stroke-dasharray="5,2" d="M178.5,-324C178.5,-324 148.5,-324 148.5,-324 142.5,-324 136.5,-318 136.5,-312 136.5,-312 136.5,-300 136.5,-300 136.5,-294 142.5,-288 148.5,-288 148.5,-288 178.5,-288 178.5,-288 184.5,-288 190.5,-294 190.5,-300 190.5,-300 190.5,-312 190.5,-312 190.5,-318 184.5,-324 178.5,-324"/>
<text text-anchor="middle" x="163.5" y="-303.5" font-family="sans" font-size="10.00" fill="#000000">Impute2</text>
</g>
<!-- 6&#45;&gt;1 -->
<g id="edge6" class="edge">
<title>6&#45;&gt;1</title>
<path fill="none" stroke="#c0c0c0" stroke-width="2" d="M190.5382,-290.5704C205.7176,-280.9272 224.2176,-267.4272 237.5,-252 253.5621,-233.3443 266.0869,-208.2587 274.1536,-189.3106"/>
<polygon fill="#c0c0c0" stroke="#c0c0c0" stroke-width="2" points="277.4043,-190.6083 277.9607,-180.028 270.9278,-187.952 277.4043,-190.6083"/>
</g>
<!-- 6&#45;&gt;2 -->
<g id="edge8" class="edge">
<title>6&#45;&gt;2</title>
<path fill="none" stroke="#c0c0c0" stroke-width="2" d="M141.2787,-287.9032C131.3692,-278.3888 120.76,-265.8349 115.5,-252 108.0225,-232.3328 109.2364,-208.4698 112.0698,-190.2584"/>
<polygon fill="#c0c0c0" stroke="#c0c0c0" stroke-width="2" points="115.5419,-190.7258 113.8718,-180.2634 108.653,-189.4837 115.5419,-190.7258"/>
</g>
<!-- 6&#45;&gt;3 -->
<g id="edge10" class="edge">
<title>6&#45;&gt;3</title>
<path fill="none" stroke="#c0c0c0" stroke-width="2" d="M190.547,-288.5819C202.4085,-279.3071 215.0755,-266.7593 221.5,-252 230.2182,-231.9712 223.9573,-207.7197 216.2103,-189.4397"/>
<polygon fill="#c0c0c0" stroke="#c0c0c0" stroke-width="2" points="219.328,-187.8423 211.9676,-180.2215 212.9692,-190.7689 219.328,-187.8423"/>
</g>
<!-- 6&#45;&gt;4 -->
<g id="edge13" class="edge">
<title>6&#45;&gt;4</title>
<path fill="none" stroke="#c0c0c0" stroke-width="2" d="M140.26,-287.8281C128.9737,-278.1159 115.8641,-265.4124 106.5,-252 86.5558,-223.4333 83.2897,-213.958 75.5,-180 70.8447,-159.7058 69.9494,-136.1805 70.1624,-118.2726"/>
<polygon fill="#c0c0c0" stroke="#c0c0c0" stroke-width="2" points="73.6635,-118.2679 70.4052,-108.1865 66.6655,-118.0994 73.6635,-118.2679"/>
</g>
<!-- 6&#45;&gt;5 -->
<g id="edge14" class="edge">
<title>6&#45;&gt;5</title>
<path fill="none" stroke="#c0c0c0" stroke-width="2" d="M164.7617,-287.8314C165.2965,-280.131 165.9323,-270.9743 166.5266,-262.4166"/>
<polygon fill="#c0c0c0" stroke="#c0c0c0" stroke-width="2" points="170.02,-262.6317 167.2213,-252.4133 163.0368,-262.1467 170.02,-262.6317"/>
</g>
<!-- 7 -->
<g id="node8" class="node">
<title>7</title>
<path fill="none" stroke="#56d8d8" stroke-width="2" d="M57,-396C57,-396 12,-396 12,-396 6,-396 0,-390 0,-384 0,-384 0,-372 0,-372 0,-366 6,-360 12,-360 12,-360 57,-360 57,-360 63,-360 69,-366 69,-372 69,-372 69,-384 69,-384 69,-390 63,-396 57,-396"/>
<text text-anchor="middle" x="34.5" y="-375.5" font-family="sans" font-size="10.00" fill="#000000">bplink2plink</text>
</g>
<!-- 7&#45;&gt;4 -->
<g id="edge11" class="edge">
<title>7&#45;&gt;4</title>
<path fill="none" stroke="#c0c0c0" stroke-width="2" d="M36.8145,-359.9843C43.0699,-311.2939 60.3491,-176.7961 67.8954,-118.0573"/>
<polygon fill="#c0c0c0" stroke="#c0c0c0" stroke-width="2" points="71.3835,-118.3734 69.1864,-108.0089 64.4406,-117.4813 71.3835,-118.3734"/>
</g>
<!-- 8 -->
<g id="node9" class="node">
<title>8</title>
<path fill="none" stroke="#d6d856" stroke-width="2" stroke-dasharray="5,2" d="M184.5,-396C184.5,-396 132.5,-396 132.5,-396 126.5,-396 120.5,-390 120.5,-384 120.5,-384 120.5,-372 120.5,-372 120.5,-366 126.5,-360 132.5,-360 132.5,-360 184.5,-360 184.5,-360 190.5,-360 196.5,-366 196.5,-372 196.5,-372 196.5,-384 196.5,-384 196.5,-390 190.5,-396 184.5,-396"/>
<text text-anchor="middle" x="158.5" y="-375.5" font-family="sans" font-size="10.00" fill="#000000">bplink2oxford</text>
</g>
<!-- 8&#45;&gt;6 -->
<g id="edge15" class="edge">
<title>8&#45;&gt;6</title>
<path fill="none" stroke="#c0c0c0" stroke-width="2" d="M159.7617,-359.8314C160.2965,-352.131 160.9323,-342.9743 161.5266,-334.4166"/>
<polygon fill="#c0c0c0" stroke="#c0c0c0" stroke-width="2" points="165.02,-334.6317 162.2213,-324.4133 158.0368,-334.1467 165.02,-334.6317"/>
</g>
<!-- 9 -->
<g id="node10" class="node">
<title>9</title>
<path fill="none" stroke="#d88556" stroke-width="2" stroke-dasharray="5,2" d="M111.5,-540C111.5,-540 81.5,-540 81.5,-540 75.5,-540 69.5,-534 69.5,-528 69.5,-528 69.5,-516 69.5,-516 69.5,-510 75.5,-504 81.5,-504 81.5,-504 111.5,-504 111.5,-504 117.5,-504 123.5,-510 123.5,-516 123.5,-516 123.5,-528 123.5,-528 123.5,-534 117.5,-540 111.5,-540"/>
<text text-anchor="middle" x="96.5" y="-519.5" font-family="sans" font-size="10.00" fill="#000000">chrMT</text>
</g>
<!-- 9&#45;&gt;7 -->
<g id="edge16" class="edge">
<title>9&#45;&gt;7</title>
<path fill="none" stroke="#c0c0c0" stroke-width="2" d="M78.6111,-503.9746C69.789,-494.1105 59.7311,-481.2265 53.5,-468 44.2834,-448.4363 39.501,-424.3857 37.0406,-406.0699"/>
<polygon fill="#c0c0c0" stroke="#c0c0c0" stroke-width="2" points="40.5025,-405.5417 35.8443,-396.0258 33.5516,-406.3696 40.5025,-405.5417"/>
</g>
<!-- 9&#45;&gt;8 -->
<g id="edge18" class="edge">
<title>9&#45;&gt;8</title>
<path fill="none" stroke="#c0c0c0" stroke-width="2" d="M114.3889,-503.9746C123.211,-494.1105 133.2689,-481.2265 139.5,-468 148.7166,-448.4363 153.499,-424.3857 155.9594,-406.0699"/>
<polygon fill="#c0c0c0" stroke="#c0c0c0" stroke-width="2" points="159.4484,-406.3696 157.1557,-396.0258 152.4975,-405.5417 159.4484,-406.3696"/>
</g>
<!-- 10 -->
<g id="node11" class="node">
<title>10</title>
<path fill="none" stroke="#afd856" stroke-width="2" stroke-dasharray="5,2" d="M118.5,-468C118.5,-468 74.5,-468 74.5,-468 68.5,-468 62.5,-462 62.5,-456 62.5,-456 62.5,-444 62.5,-444 62.5,-438 68.5,-432 74.5,-432 74.5,-432 118.5,-432 118.5,-432 124.5,-432 130.5,-438 130.5,-444 130.5,-444 130.5,-456 130.5,-456 130.5,-462 124.5,-468 118.5,-468"/>
<text text-anchor="middle" x="96.5" y="-447.5" font-family="sans" font-size="10.00" fill="#000000">yri2rcrs_flip</text>
</g>
<!-- 9&#45;&gt;10 -->
<g id="edge21" class="edge">
<title>9&#45;&gt;10</title>
<path fill="none" stroke="#c0c0c0" stroke-width="2" d="M96.5,-503.8314C96.5,-496.131 96.5,-486.9743 96.5,-478.4166"/>
<polygon fill="#c0c0c0" stroke="#c0c0c0" stroke-width="2" points="100.0001,-478.4132 96.5,-468.4133 93.0001,-478.4133 100.0001,-478.4132"/>
</g>
<!-- 10&#45;&gt;7 -->
<g id="edge17" class="edge">
<title>10&#45;&gt;7</title>
<path fill="none" stroke="#c0c0c0" stroke-width="2" d="M80.8548,-431.8314C73.6409,-423.454 64.943,-413.3531 57.0395,-404.1749"/>
<polygon fill="#c0c0c0" stroke="#c0c0c0" stroke-width="2" points="59.5333,-401.7071 50.3559,-396.4133 54.2289,-406.2748 59.5333,-401.7071"/>
</g>
<!-- 10&#45;&gt;8 -->
<g id="edge19" class="edge">
<title>10&#45;&gt;8</title>
<path fill="none" stroke="#c0c0c0" stroke-width="2" d="M112.1452,-431.8314C119.3591,-423.454 128.057,-413.3531 135.9605,-404.1749"/>
<polygon fill="#c0c0c0" stroke="#c0c0c0" stroke-width="2" points="138.7711,-406.2748 142.6441,-396.4133 133.4667,-401.7071 138.7711,-406.2748"/>
</g>
<!-- 11 -->
<g id="node12" class="node">
<title>11</title>
<path fill="none" stroke="#5682d8" stroke-width="2" stroke-dasharray="5,2" d="M161,-612C161,-612 32,-612 32,-612 26,-612 20,-606 20,-600 20,-600 20,-588 20,-588 20,-582 26,-576 32,-576 32,-576 161,-576 161,-576 167,-576 173,-582 173,-588 173,-588 173,-600 173,-600 173,-606 167,-612 161,-612"/>
<text text-anchor="middle" x="96.5" y="-597" font-family="sans" font-size="10.00" fill="#000000">SexFam</text>
<text text-anchor="middle" x="96.5" y="-586" font-family="sans" font-size="10.00" fill="#000000">sample: ExampleSamplePanel</text>
</g>
<!-- 11&#45;&gt;9 -->
<g id="edge20" class="edge">
<title>11&#45;&gt;9</title>
<path fill="none" stroke="#c0c0c0" stroke-width="2" d="M96.5,-575.8314C96.5,-568.131 96.5,-558.9743 96.5,-550.4166"/>
<polygon fill="#c0c0c0" stroke="#c0c0c0" stroke-width="2" points="100.0001,-550.4132 96.5,-540.4133 93.0001,-550.4133 100.0001,-550.4132"/>
</g>
</g>
</svg>
